<mxfile host="Electron" modified="2023-04-24T17:29:21.324Z" agent="Mozilla/5.0 (X11; Linux x86_64) AppleWebKit/537.36 (KHTML, like Gecko) draw.io/21.2.1 Chrome/112.0.5615.87 Electron/24.1.2 Safari/537.36" etag="0TcZgDjWQIVc0S-Rep8u" version="21.2.1" type="device">
  <diagram name="Page-1" id="74b105a0-9070-1c63-61bc-23e55f88626e">
    <mxGraphModel dx="1434" dy="870" grid="1" gridSize="10" guides="1" tooltips="1" connect="1" arrows="1" fold="1" page="1" pageScale="1.5" pageWidth="1169" pageHeight="826" background="none" math="0" shadow="0">
      <root>
        <mxCell id="0" style=";html=1;" />
        <mxCell id="1" style=";html=1;" parent="0" />
        <mxCell id="-qlfuwF-1jwrvafE3BXy-6" value="" style="edgeStyle=orthogonalEdgeStyle;rounded=0;orthogonalLoop=1;jettySize=auto;html=1;" parent="1" source="10b056a9c633e61c-4" target="-qlfuwF-1jwrvafE3BXy-4" edge="1">
          <mxGeometry relative="1" as="geometry" />
        </mxCell>
        <mxCell id="10b056a9c633e61c-4" value="OpenWeather Map" style="strokeWidth=2;dashed=0;align=center;fontSize=12;shape=rect;verticalLabelPosition=bottom;verticalAlign=top;fillColor=#ffe6cc;strokeColor=#d79b00;" parent="1" vertex="1">
          <mxGeometry x="150" y="590" width="150" height="90" as="geometry" />
        </mxCell>
        <mxCell id="sAA-gYXfA-SkIx9lmI3N-4" value="" style="edgeStyle=orthogonalEdgeStyle;rounded=0;orthogonalLoop=1;jettySize=auto;html=1;" edge="1" parent="1" source="-qlfuwF-1jwrvafE3BXy-4" target="sAA-gYXfA-SkIx9lmI3N-3">
          <mxGeometry relative="1" as="geometry" />
        </mxCell>
        <mxCell id="-qlfuwF-1jwrvafE3BXy-4" value="Apache Kafka producer" style="strokeWidth=2;dashed=0;align=center;fontSize=12;shape=rect;verticalLabelPosition=bottom;verticalAlign=top;fillColor=#ffe6cc;strokeColor=#d79b00;" parent="1" vertex="1">
          <mxGeometry x="380" y="590" width="150" height="90" as="geometry" />
        </mxCell>
        <mxCell id="lvNx2T_vC_yT9__ADFuT-16" value="get data" style="text;html=1;align=center;verticalAlign=middle;resizable=0;points=[];autosize=1;strokeColor=none;fillColor=none;" parent="1" vertex="1">
          <mxGeometry x="300" y="605" width="70" height="30" as="geometry" />
        </mxCell>
        <mxCell id="sAA-gYXfA-SkIx9lmI3N-1" value="" style="shape=image;verticalLabelPosition=bottom;labelBackgroundColor=default;verticalAlign=top;aspect=fixed;imageAspect=0;image=data:image/jpeg,/9j/4AAQSkZJRgABAQAAAQABAAD/2wCEAAkGBwgHBgkIBwgKCgkLDRYPDQwMDRsUFRAWIB0iIiAdHx8kKDQsJCYxJx8fLT0tMTU3Ojo6Iys/RD84QzQ5OjcBCgoKDQwNGg8PGjclHyU3Nzc3Nzc3Nzc3Nzc3Nzc3Nzc3Nzc3Nzc3Nzc3Nzc3Nzc3Nzc3Nzc3Nzc3Nzc3Nzc3N//AABEIAHcAdwMBEQACEQEDEQH/xAAbAAEAAgMBAQAAAAAAAAAAAAAABAYDBQcBAv/EADYQAAEDAwEFBAcIAwAAAAAAAAEAAgMEBRESBhMhMUEVUWGRUlRlcZOj0RYjMoGSobHSFLLB/8QAGgEBAAMBAQEAAAAAAAAAAAAAAAIDBQQBBv/EADERAQACAQMBBAgFBQAAAAAAAAABAgMEERIxBRMhURQyQWFigZGhFSIjUvAkM0Jxsf/aAAwDAQACEQMRAD8A7gvXggICAgICAgICAgICAgICAgICAgICAgICAgICAgICAgICAgIPCcDJXg+DPCDgysz3agvOUJcbeT7DgeIOR3r1F6vQQEBAQEBAQEBBiqJ4qaF0s8jY42jLnOOAFGbREbylWs3njWN5U67bZSOcY7WwNby30gyT7h0/PyXBl1k9KNnB2VHXL9Fbqq6rq3E1NTLJno5xx5clyWyXt1lqY8GLH6lYhF0t7h5KC1np6mopnB1PPJER6DiFKtrV6ShfFS/rRErBbNsKuBwZXtFRH1eAGvH/AArqx6u0eF/Fm5+y6W8cU7T9l0oa6mr4BNSyB7Dw8Qe4jotCl63jerEy4r4rcbxtKSpqxAQEBAQEHxNKyGJ8sjg1jBlxPQLyZiI3l7ETado6ua7QXqW71JwS2lYfu4+/xPisjPmnLPufTaPSVwV3n1mpVDtEBAQEE203OotdUJ6c5HJ8ZPB48VbiyzjtvCjU6emenGzptvrYa+kjqYHZY8deYPcVr0vF67w+Wy47YrzS3VJU1YgICAgIKjt3cSyOK3xu4yDXLj0eg88+S4NZk2jhDX7Kwb2nLPs6KUs9uiAgICAgILNsPcTBXOoXn7ucZb4PH1H8Bdmjy7W4T7WV2pg5UjLHWP8Ai+rTYAgICAgFBzDaec1F9rHZyGv0D3NGPqsbUW5ZZfU6GnDT19/i1apdYgICAgICDNRzmmq4J2nBika7yKlSeNolXmpzx2r5w64DkAjkVuQ+Per0EBAQeFBym7gi7Vuef+Q//YrEy+vL67Tf2af6hDVa4QEBAQEBAPIoS6/BwhjB56R/C3a9HxtussikiICAgr+1/aQpIuzN9jWd5uc6uXDlxwuXVd5xjg7+z+45z3vy3Ul9uucj3Pko6tz3HJc6JxJPks6ceSfGYlu11GCsbRaPqjz009MQKiCSInlvGFufNRmtq9YW0yUv6s7sSimICAglMt1c9ocyiqXNIyCIncf2U+7v5KZ1GGP8o+r3su4eo1XwXfRO6yeTz0nD+6PqdmXD1Gq+E76J3WTyPScP7o+qZq2iHI3T5is/X96j+i+H7LhskbgaB/ae91bw7vfZ1acdc8eeV36bnw/OxtdGHvf0ujeLpcQgICDFVVEdJTyTzHTHG3U4+Cja0VjeU6Ute0Vr1lRdp9oKe7U0cFNC8Br9ZfIAOhGB5rO1GorkrxiG7odDfBeb3lW1xtQQEH1G7RI1+AdJBweRXseE7vLRvEw6JatqKK4VEdM1ksU0g4BwGM92Vq49TS87e181n7Py4azefGGa7bQ0VqnbDOJHyObqxGAcDxypZdRTHO0oafRZc9eVejBQ7V2+tqo6djZmPkOGl7Rgnu4FRpqsd7cVmXs7NipN528Ey8XqltDYzVay6TOlrBk8OZ/cKeXNXH1U6fS5M8zFPY10W2VsklawsqGBxxqc0YHv4qqNZjmdnRbszPWu/gsYOQutnCAgIMNXTx1dPJTzN1RyN0uHgo2rFomJSpeaWi1esK99ibf6zV/qb/VcnoVPOWl+K5vKD7E2/wBZrP1M/qnodPOf58j8VzeUfz5oV42TpKK3T1NPUz64m6sSlpBA6cAFXl0ta0m0T0XaftLLfLFLRHiqC4W02Wz9sZdbgKeSUxsDC4lvM46BXYMUZLcZly6zUTp8XOsbyult2WobdVsqY5J5Hs/DvHDAPfwAWhj01KW5Qw8/aGbNThO2zLd9naO6ztnnfNHIG6S6IgZHjkFe5cFMk7yhp9blwVmtejBQbJ0FFVx1LZKiV0Zy1sjhjPfwAUcelpS3JZl7RzZaTSdvFMvNkpbw2IVJkY6POl8ZAPHmOIPcFZlw1yx+ZTp9Vk08zNPa10Wxlujla8zVMgac6Hubg+/AVNdHSJ3dNu1M9omPCFjAwMLsZr1AQEBBotre0f8AAZ2Zvc7z7zdfixjp+fcubU8+P5HdoO5739X7qjq2i9qfMXBvn97Y20Xw/ZjnhvlQzRUR3GVvova8heTGa0bTEpUtpKTvWYifkj9l3D1Cq+C76KPdX8l3pOH98fV9R2+6RPEkVHWMe3i1zY3AhIx5IneIlG2fT2ja1o2StW0XtT5invn96nbRfD9jVtF7U+Ym+f3m2i+H7Nls6b92tFvzWbjJ3u/1acY8evuV+Cc3ON99nLrI0nczw239my8rRYYgICAgICAgICAgICAgICAgICAgICAgICAgICAgICAgICAgICAgICAgICAgICAgIP/Z;" vertex="1" parent="1">
          <mxGeometry x="195.25" y="605.25" width="59.5" height="59.5" as="geometry" />
        </mxCell>
        <mxCell id="sAA-gYXfA-SkIx9lmI3N-2" value="" style="shape=image;verticalLabelPosition=bottom;labelBackgroundColor=default;verticalAlign=top;aspect=fixed;imageAspect=0;image=data:image/png,iVBORw0KGgoAAAANSUhEUgAABLAAAASwCAIAAAETRBQOAAAAGXRFWHRTb2Z0d2FyZQBBZG9iZSBJbWFnZVJlYWR5ccllPAAAl5hJREFUeNrsnO1R4zAQQB2GAkgH0AF0wHUQOkg6gAoIFUAHoYPQQdwB6QA6IB3kNHjweCR7vZIsR4b3fjA5f0Xn59XnOrPj8VjAlDnjFqAQUAgoRCGgEFAIKEQhoBBQCChEIaAQUAgoRCGgEFAIKEQhoBBQCChEIaAQUAgoRCGgEFAIKEQhoBBQCChEIaAQUAgoRCGgEFAIyRWWZbler7l9OTDz+hm92WzWup3f4ptGFHb5q3YJeyELhRpDWMxXod4NDWSmbaGlsHmKa5d2MbsoFPxV/7y8vOQ+TmZQsVwu3Y0fHx+0iFlXpE0lXQfLkQo5Du1hqgqpJH9nFFKL5q7QUmKEXV1dBcTlarWaOSDgNONCvW/lFQjc5BVp5C3ufQIIxzHawl6LZoDfeoxSDxbH6M4cv+naZQ3wu8Qcf7i/v7d27fd7QXBX89ncUpZl1xXm8/nr62vzmOpD+YN7yuFwEBrvjFr0oz+Pj4/16be3t8KRvd+lLIxwjLVls9m421s/11WLpuTut0fewwE5G/NZcTfudruYa67Xa3PZZhxcX19XH7bbbbXd/LW++t83VjxNuCZNF4WWnoAI6z3GiiRTMHd76ylyFAoT9386CtNFtvlrBp2Fs1pZBagVpho+Pz+bYa2pYKcUhV4XSXpMHXOaz+bE5+fn5pbqw+MPKYo9Dh7pT73Psnup3rk35eScZrVkyPkOz8WZ00anNvHCN3emdwDAWHAozocddMdMxDDNlnxoX7NYLAZv3vGXKgqtoDHds/f3d/fWy7E1n88PhwP+Th+Fy+XS8ic7qMP06+tLnu9AQyqFVmxtNht9JAmTZ7ffjDzSqrpX+aS5lmU51KyQNKjw7TenW74XSiJ/qfwSSOtllUubKYrU3LXb7cyDnqo7kw9hNyvpeGb8Ip39QX/pLEYWKdW48Hf4k18imHSRtFEojwqy8qfpaglds97lydab41Ukt4se02/QKjRju0GG6uY6VU+sWltI4a+5ztBVktY3C4Kxbk7vVPDFxcWQgyuvdQmvFQxh+l9fgIBzw8ocs1LhVSRleUyPNMl6YVeV3br96empXjeXe2I3NzeJqtyR5w0ivy7s9DPfizZ93N3d9Y5PNQ31fr+vcpN8eXh4yLmTNd6DI+PbbAQ/iQEVadGXUqWvn4eqSIcq0pAV6eYbL3/mb2uLLScxKB9hr8GWqSfGrz+DYzHwxMiUC/3TVwyahCicuN1uA8IoMvHCnQyL/G82o7CnrxSfO2PF1ji5M2Zopbxlpj4YQaF8QStPWlOeWmHRkRAbnsHmJiF2rUAJudXxuBV1V53pjrtfXl5S9DuE6tTKajS7rKkSZTJDawglnCNVTrQPdcve3t56O9IV6fqxgkVrVz3FIXfp69Wx+hh3vezE09zNrOqkt+xUQ8NmkfS9QlehuWz1zskpFbY+a/GVbZhFOZEg0X/cDM8CshdWq1U1aDYK22clk6YCuy1W9Q6bkKiRgsViMcK3BN/GrFOBiyHeEIaoCTYvE63HKMXgL61CfSS1TnX6rueBX1s75s/o8Zt7KTiP8Vc4eVdEW75tYdecSDFWkg+EV6T8jN6vikKYvELfJCjIriItIt7UhZNFodxbofMygUGF10jfXYmFLIb2RWhiC2TUnVHmznBDs+6RCq8i5PuzOlSkwNAeUAgoRCGgEFAIKEQhoBBQCChEIaAQUAgoRCGgEFAIKEQhoBBQCChEIaAQUAgoRCGgEFAIKEQhoBBQCChEIaAQUAgoRCGgEFAIKPxV/BeAvTM9aiQGwqhdtQHgCIAMIAOcAWQAGZgIcAaQAc4AZ8BmQAh2BpAB22VVTU3p6NExmsP7vh9beJhD6Klb3S2Nl+9gwwoRCBEIQYhAiECIQAhCBEIEQgRCECIQIhAiEIIQgRCBEIEQhAiECIQIhCBEIEQgRCAEIQIhAiECIQgRCBEIEQhBiECIQIhACEIEQgRCBEIQdmq73b69vdF9U1Da1+gtl0vvcb6LbwZWuDwpFS2aCsIYQlA8h3AGihNF6IL5bcn61dPTE306uXCmjfDq6upwOOiMCW0m7UhdfqLNZkM/TtcKxTHudrtOC2sbIlY4LSu8vLykj85qLvSezFw4p7mQtOEc8sI2xevrawvq9/e3cqErAAyB0HWMDYDj8Wj96uLiIgQvxJVUsvpcGO9CY2bKpGtRn460s4tL+KGB5kKB9Pj46B7//PyMt6FQZU5fBomZO/+e5P3Vz89Pc6383ByXiUC5Spm5pzWd/6Yr8nJrXjwcDsp9lFsp59zd3TUHG0/Q/uj+YAac0cvLS8xD9fH3O7b+1Bsc7fG+ONVX3R6xhnbqjKgYkKHruvrn52cztoRlY/3Wc+fl//8M8xjTX/1K+JmuX61WJpnZ7XbmiDj89/d375h4fX1t0z2DMGoghK5NlGu9XhsAjbmbqTpkzRlWPgvGydUZy8nIx5h9UDVcU7NsYnpZJjbzsflBjm+3W/l3v983/Nr+XAbW9qR5m2FGCOOVOKiMaKV9wtfXV0n01KOSmj16OLPohZ/198g81DlcBFh5RArCqIg0yQfqJ5PpjzAXeju94X9/f9+jPwdG/wjdrMtyIx8fH/Lx5uYmdAeJ9WPYwK9WOBN/prfwFjObyqzZVzGIcKa0oZG8JeKXUL5d5RoAYTvNmAhCkyjLvxURWvWUYfo69bbu8mRMLC2eP3TbjBq9/kTxTy650J3zOnBR7kXHQqjzSwq1+kKoTxP6za2Q4vwR6vyU/R/1EFonW5WKeitIs0SY6j+tKacGQm8oHtmf3t0qPaT20ojVapW9tFRP0irrWfpSkbf79BclU3c2dz5RP8H4jOy6RzAv9A4NvWc7zzkej4WL3XKhzs+NJmpnoqnbaPtPgnvJCzvvXOL0U6/NaHNJUtF5cpPSlDRJUccSWswQ001K8VqRAzP17fBIN6iclrqBPf5kkxNnNKnn9cKHh4fQ8mFeaTvPrxYWzWusQnc2qcbuhSI/NkxLUq8a0ZF2rptuNpveHWmV9cKY2TFvB5uEJ9JH8bcdAGHnH2K9fzkOQpG7/yzJGmL6IjRCU5Ow4RF2/rExTVIqmh1DPCnL9r7lWxLQZkeY8dFvxnOn0yRrWHtHecWtwDUwR16bWvvuBaGylcTdiRLZpLajbm9rHgFhaN90YZ4Xujw12uxrsUlZpsgL7kxp0PqYlhf2lXgtCt4QVh6nFNuSUo6SvDC+vJfRJLN3stly7t0KW/GbEK3Q8fb2trA05S3khkq1Xs9WscqVOxqMJFoMuVODLcQveUmhPKVTFoMG2Ehhemp0tafGpA0MOQW2pEKae3C/3zelnKGLv/+Nohxp+/28JMCRS+dWIRilhSYZ62GpxiSGKOaI/Y1mheVfo2e2m3ptFH5DWGHhkjSaxFyo40ld30eDIlyv1xnJGZquFaLZz4Xek60qF3Mh4Qyq7Ejdd+3bH0Pv96J5p/ZofCsMbaiF32wQinvsLGPCb9KOVPeo3v/5AA2mtG9/wtRI7REIEQhBiECIQIhACEIEQgRCBEIQIhAiECIQghCBEIEQgRCECIQIhAiEIEQgRCBEIAQhAiECIQIhCBEIEQgRCEGIQIhACEK6AIQIhAiEIETz1j8B2Dv/o9SZKIDqNxagHUgH0AFWIFYgdKAVgBWIFagVaAfYAXYAHagV+HbeztvJl8DN5u6PJHDOHw6DYSGbnN27m5vNKcuqAdCOAiAhACAhABICABICICEAICEAEgIAEgIgIQAgIQASAgASAiAhACAhABICABICICEAICEAEgIAEgIgIQAgIQASAgASAiAhACAhABICABICICEAICEAEgIAEgIgIQAgIQASAgASAiAhACAhABICABICICEAICEAEv5jNBqd1sFhACSMzGKxcIJ9fn7Wbo+QcMycxS0u3CJbwu/vL8cG6AmbsVwuI/Zj9IpAT5ikA1yv18Ph0LwwMaoZK/oUS5cI9IT1XF1dCf99fn7+/Yc10GBeuDfNBknjW4COE6GrETzxL1woZDKZvL29caiAnnA37+/v4QbKGwtfAYCEJ09PT1QiQEfD0aYlRwlrAY6uJ9RJ1Wjj1WrFcQIkVA7nfC731W4zHo91P2w2m+3Mkvv4+ODAw0GFo4p+L4rhVZbL5f39fdKvAOiuhNE9HA6H6/U651djI/R+TGgvvscqytPAiAluphw58QCg6xIWVXx8fFR/Nsolfh1muEiOTqNmq4pPQiLsPu+Tcnl5ufPbzfvqMuX9KqbLNf2solrU5Zhtvr6+5NKq//L5Ae791WpV2tK+mM/nir0+Pz9Xn1rtnoSdJdOd9be3t/skjD7+NGeJ2bHpdBoSOc9mszw9iamBi4sLOShw07lur4sfsf2PoqHZZ7gcJnx/f9N1dT0cbR3TsYTPxLy8vGQw0PzdbDam0662KcW7nO1FGnenpcGYsFgs3MbVPq2IGegKt03731HNgBkJ/9ckK7zq2mjKvbC9bsmBUgflBHC2PDw8bLdb+6Z5LXxXNRxV9IRyPpOuE4asEv78/EQsTbh8r7hO2JaB1RN334luOj3T7pS2N13oYDBw5ahX7glcW0QejoLXIUhRWaaFtudHU8xwzjOYjJJoakZWwginUc3ESqDtftdNLXW6J3RpYjoDDUaJ2la5ts32bNTlOQYacuiZhPa8jzuZUXJJHWUVB5DFbFLdhA1A58LRm5ubA7vpVlchhKPUkpqzFAemaf12JEnFDEf9r0QDtB+Oyua4hBXPzqd2xacSd3d3pdlC/2zvfT8AA6FP4Wi6MVWUkn2C5M1mo87XIRwlHI08BIqbtxmeSicUXlwrsVOoa8MtA6kuofYQ2zw+3a+Ne2ol2sfas8LnvnDPbyxlPsQ5eSJmY5/Ey8RNKnlHJKyNfoXPqmPv3kkof8V0Og1pnnZi6rYHEmYw5LAlDNFPTkyPHha1KKFceOBdMmpSSHh2AhmRc3RqR0dHcq+jvJvuYQoHU0Wa2VH1yktHrl9tjk6IgbXNra4LTRdJ7ttHYTftjZdqA306MSZm6guvXpnofjga5RDEqnA5Ek4x8+RTSG3CcGAVyUPHRkWlCEeV1wmFuZnAeED+uE9m3Ha7PfWj9cjKs/WNuCyyOd2TjirVYUJgFcm73OgSdP5LJkoJN5uNOqgI+ZSQ4e3e908fb/Q44RQBSHghik81PSPbItZqQ7ocDBNzdV1CnzPAUwmzQYi0Ubq10WiUeYWiducPai9Odn96xhP18u26lcp0BM2O2nUWhFjCBYe9aHpNf5jzsaQtPgK1Lwl6R/Ls9P/CD6dP2kf4vJHuEYWmPWs6/RV9LSNhDNbWU8H79SCAkCpSr4uTtYryTBI2ZTKZhHzLfD4P/KnRL9bXipptLlqYimxrdrT2h/l8V9wzXIhvO5Exk87GzNdI5EXKUmTMqHc/1u+UT/R2JfSpIqF5zdCk7pTQxvbVEqopu7kl9Dzdx+NxXMnlbKZ0R86/EHXGtjzREqVl7IKEIa1VeBPvM9NT2r742h7cnf9tf/HfbEOaDl4EKyHnBwuDUuFTdkqpushI8f1+5XPJeQX7dqe2Yi2lgeLNzY2uihaLRSl7rNTZmFFVcXnYTGPC1nvCWG1zujbeUTt7nj+vqjs9YUjnFnJ7d2BPeP6Xo+gJY02mCVtmuKJtGyD551Un9wJVtKdIv7pE4br5zu7LBueBKy34O+l+gB1yu1G3ed93Sj9DN2g6ZeEHNB3FJR3hpJsdTTRV6xl+l2Zfe9QThk8vN3osgnp2NKRaUl0v1o1AGj0Y9KQbjwcGCCRyOOpmAvJ8PLot9mYZTgvoq4QR0y/9VYw1XWGjYhZcg75KuFwuPZ0Z/yV6tKmePHRPKe3+tQ04WMLnXXRT7enmSIqUcuGN//YyHUB3iDAxE+WWU6GQyWSiy94GOIpwVLjVvZHewsYH9qwLgMgSvr6+UokAbUp4fX1NJQK0KaGcUhRlYJlztQ+A/klY62GtirXb5FztAyA/cdLWBoPBdrv12dLmkfrPtZC/AkjoS+2KTwowEAhHGxB3xac21yQH6KmEFpePovu4u0+EAwPHQ6qnMhVFkudd4j4xFwAJGdoBtBqOAgASAiAhACAhABICABICICEAICEAEgIAEgIgIQAgIQASAgASAiAhACAhABICABICICEAICEAEgIAEgIgIQAgIQASAgASAiAhABICABICICEAICEAEgIAEgIgIQAgIQASAgASAiAhACAhABICABICICEAICHAYfNHAPbu9bhtow2gsDSTApwO5A7kCiJVELuCKBUkqiBOBVEHcgeyK5A6YDqQOpA70Lefd8LhEMBiASyufM4Pj4ciQQDcg/fd+/nb25u7AIiEAAkBkBAgIQASAiQEQEKAhABICJAQAAkBEgIgIUBCACQESAiAhAAJAZAQICEAEgIkBEBCgIQASAiQEAAJARICICFAQgAkBEgIgIQACQGQECAhABICJARAQoCEAEgIkBAACQESAiAhQEIAJARICICEAAkBkBAgIQASAiQEQEKAhABICJAQAAkBEgIgIUBCgIRuAUBCgIQASAiQEAAJARICICFAQgAkBEgIgIQACQGQECAhABICJARAQoCEAEgIkBAACQESAiAhQEIAZflpsm96eXn58uVL/P/VD9x9IHD+9vY23tG/f//+888/p99zf39/c3Pjl4B0tDBPT0/n5+etBgZ+//338M7r62s/BkTCcgc9P+/3wVHDMnAqkbC3gfGznz598qtAJByxBpjDu3fvXl9f/TYQCTtTxMAoc6go+m0gEk6XhaofQiRcSgwc1WpgyxKGBLL1PTc3N2//kdkxqN8C0tEyIev19fXdu3e16raGUEkpRMICVbtaA89+tIK2Ovb161c/EkTClkQ0Ec0yD56OpYIhRMIUCQPv7+8zD5L/TkAk7BDEOh251HEAdUIAy5Cw63TBxPufnp78TiBhZy4vL0d9P6BOOF2d8PHx0TR8kHBOCTXMQDoKYMES/vPPPz2CW+93AiQ85s8//0z8NWdaoKmDIOGIfPnyJT0TIvx1vw5i2Qrhy8vLeR1mZmBplJnU22MiReZaGD1OLzO5vbi4eH5+VgKw8Ui4J/h2FJFyDOy60kw8cqdQKTBiI5HwbJzGlfxze3p6GqKTXhBsIRI+PDzMZeCHDx8GBjTNs9hCJIwy/Pvvv9MbOP2XAgutE+52uyJDQDtloaUMFA+xhUgYCVaE6DRNOJq3IgosLhJGQjDsV45zlpyZIHC9vLwoFjnc3t7W9sSaejZ/JOznyRj9gVdXV4+Pjz1OqeDJtB4qFNmjOSL7Qlw7dyR8UdMxgxV3d3eHVx0PdXicw1eObLn4QamftXqSvW/R9nkbn6oJw799yHW1dj8WPJ/0p2KhTx+q+tfqcapV8cNDVQ9e+0V//fVXkTvfdOEzlsCFM9EtmFjCaY4w/AKbNGuyqPawMawdrq38/PycKWH4bNlnHwl7sMqpTOlqW2ZZCQ/+ea9iP3I9kd1VM9Lq4uUhqwwR9XDFusysUuvxCaWjxZ+C6XpgkeNMcIGxLSqOX82JhIePmP1lxjES6bO6OiCRjqYvsOtgDJFw4+loKXkSq2aEeuyoFxgDVzrnrL4eq21xKPzhJfQ7qx6ZMwlJOF0E+/jx46gXePjXmGEe/Sn4tq/aVZtwzn6smBz+EydV59c5e9cJSUjCqSUs1WJR++baKVRBs9bWmqaA1vTImEbC2qZaEm68YWbtvH//vupGorUpNuE0lemQnX79+vVwbnTOTnWdSPS/V+3a7Xa6/k66YabTcRKTejM7zfpdYFOgCLlla/jK6fEr3k8YIu3wGy4SNvHTeHrf3d3d3t5mtnrP8uyMEamWz58/j/Sl4ci1vSPhxRjBjv4aImR4pXo+j4+P+wAV716cUBIC4340QvWLDl85+muimargKHnUWDBG6e/doZR5MtfX150SpB7n2fW2bHtMVtPV1Q4MPM1bNITCdcKgx5Au3cz1KZp2He1UI9L1PJxffvnFTRhOyXS0VLEOx2la+j5neajwhtaHa/ogI404AcaNhGUDS4ioVU8yl4eK70xU6sJf09HSKmxYmYShQI+R2h0e9sOHD12/4u+//z5aTG2/EqlfHVtLRzOjU++DD+n1enp66mqddgKsLBKOHViK9zunSa/qDyxOwnwDD4dBtnaUz0hifxtgcRLmxKj9eMhqe2PiT50oOC1QIoqV1Qlbq4KZZTqGxB5p7X5oyOfPn4dnxQzEyiJh65JkXct0j/cfLhUzRKFQD2Qg1hcJE6MueysRPpUT0KobPO0/Hh4N6RMTALGpOuEYxTr92biiaWLM2tGUvJzKqhKAVUp4d3c3y7nmj+Xft8E+Pj5+/PgxLq9yOFVne2NiQhYQB+7u90KduHdnFcTmgz3pDWqnY96J7bMcf1ETJgf+QDkdm0f9Q01Tlqqz7PNnSOSc9ly3KOcI1WufsgSaWT8nrXXgRGkI+Uj4eE5WEurJ6x2sN+QWnWXPy4kjq8abRDpdnbBUl13iOFva5yBdONI7c4TPtk6Yrn5kv9LpKRgYLrbfeON1p6MTZHdd119abDqa2W5UZOGz6j1cRTo6pOiO17goHd1IJEw/bi8vLxPtRsMf1au4h0Ni4PAZBRPHQ3XCZRWvm5ub3W63kMKxRgNDvW51zcIkXJaBh1tKHDFk69XTaYkJ9brVXfLKJEysvbf24nX/g8QbWrtJe6z2vzEDWz/etKzjzP3GC2w1SRSauLDsGhtm0r9CXNO+d0tDzqL9OQ02XT/baXXWgbeotawO33YyvYDYeA0zOuunkDD9u+Y8WYYInFnK55VweOkvIk91u1Wto9uv5AQDW3/49Kj06o6F/XK59WahBS880Sq2rDrhqM13BRsAjwYKRiZuoE9fTsigWg08S04c61o6F7h+RxEDE+MQWtPU+R9VxTPGrjv7deodDje0SGbfKYsbY+ewzGtJH/xwi+xRq/SjpqMJ4rCh6aswK6gTvpXe8L3r7zRQvzFaekZ99k3zAF2ahPkGJg4eZ2wvc1jY0DrhwJbigZ+qXQW4dUnfWnqsaFok++iUVJf99q7p2SyELL3Iea5i5a6xGmYyB/hH4oSATsePSwPH+WDh34EiTexhp02Oivc+98gXpue09oEaOwcbo6qw0lvR77t6ZI/9jrm0dDQupDBX9riCdHR/m3KCTLVZMk7fWtqi9FOejNX4c4LhiSwOMGgZ/N1ul1+YDreFWCzhciYLzlN+10rJ2WBrAwytE459j3L6slddyHp/dkvzm088ZSjQMDOeh/f398HA2ItQpJr38PCwqF89pFutLRCnsD1GeuT69j2csbc6TW1fdpHrai3WE48dnbiRoGkmylwNM/Ehm26zbW2kSR984Q0zJQ9asO078S05K9m0nmrrEMGJZ1H0O3j+mJsld9Zn3qK0TmUfqYnH9NIlLBISM4diDb/p6apmcQmHaD9N0J5dwiGPqsSvOcGwtaNNjdJLBE0xi+Kt7xTJeOrp6kEkMVo3PxpPPF4+lJL0ufVrpGndFGRd9aveI7EKTirosYxd9VHS7UtHnWWX2bBZ3b1wmvG1CSu6DkPPPJ/0fUh8aZFLTu9Ct4RImFPd6HGLCg4qqL65tlIQx9zNlo7OOAS5YBqZM1e93wUWL2GZV936QFyIhG9914NM51CZk2Y6Ba1QSPajzM/+W0ty/0r4T+aoJhJ2LpHDL3AMDx8eHgZW1JcjYe9GmiF5X+ZKPEdfV/1/7YtT1wnRSrqPpF+17dOnT+GDR3PwQ/VmaWMDi1QOmxaea514kRhBOXzwQzhCz9EXImGTJ6NeYPpHaZpKN2q5X1QkfOu7cNOU/erV/pWj+qFIOKip8I8//pjxSf/9+/faXbtOaqxpeBKl67G1P9+Mtyh8db9IuEoJE6uPlkq90g2JE3jY1A0zfKrrisbitnYj1Rb6yTwMicBReQu/zv6V8J/MIYerlDBnCOiQMDgZaaNqzzC9W1OO+auY1JufMtTW5YbcojhcJOedcdGDmLPEj+x/nfhi5rz+n842R84UoYVs0RozrsQY7qZrCS/2eIisNJtNX+z19XXTLQqSdF2XoOstiucW0pbDD+6775eSjsZ1KIqHo3S6mF5vJuQw6Z36piysrRlX0y3q1A6xtEUMupJehq/pFgUJW4co7Ikdif2eEeGzh8tqdj7UeC2inbZA6LFQYmYRz5lAMNk9GYkmk8su67h2aivDS9jxcpTJ3SG/6reFUKeTef/+fdeRkxvO2bBeyqejIRz33sRrv4BaDmPspLOuRgtspBWj7IO/SJNjnE0/5TcKg9hIJCzlQ8hm81e8LbiULQOx7khYvNut04kN/3YGYt2RcIz1ITt59TbV1lnAQiXMHDJ3cXFxdXWVPyIs3ZtXFSln+ZnqpxiImRney9Fa9JvmBIy0O3HmWCH9ZlgIBcriwLKe/viQ3Q5fX1+PBgx0mnoDrKazPlF5yzx4uvonXYQ6YYrEdur5Hd+6yHHKDI2Ew8Ng2eMAJ9o6CmBxEnadmZ54f/H9ooGTkPC3334b9f0ACVv49u3bqO8HNoOGGWCjkRDA/BImuhB7vxOQjo6SSRoxA5FwNMUzpiOl31Nwzi6wWQlbVx9syjbD662WGtGGzVNg8d/n5+e0Sy8vL/ENl5eXv/7667dv3xLL3R6Ss2svoE74f25vb+/u7oqfnNogSFi4+sdAYJQ64RjOaI8BCef0cLfbaY/B6VB4V6Z+uwXJQiESFvaw9w6bDMQJcj5euZ9y4VBAJKz3qnVBxP3GVH4JiIQANhcJAZAQICEAEgIkBEBCgIQASAiQEAAJARICICFAQgAkBEgIgIQACQGQECAhABICJARICICEAAkBkBAgIQASAiQEQEKAhABICJAQAAkBEgIgIUBCACQESAiAhAAJAZAQICEAEgIkBEBCgIQASAiQEAAJARICICFAQgAkBEgIgIQACQGQECAhABICJARAQoCEAEgIkBAACQESAiAhQEIAJARICICEAAkBkBAgIQASAiQEQEKAhABICJAQAAkBEgIgIUBCgIRuAUBCgIQA5uN/ArB371dxI2kfgO09E4DJADKACAYiMERgHIFNBOAI6InAZAATAZ4IYCJwZwAZ8NWhzujo49JIddGN5/ljz66XbqnVav30lury8eHhwVEAwN0oAAhCABCEACAIAUAQAoAgBABBCACCEAAEIQAIQgAQhAAgCAFAEAKAIAQAQQgAghAABCEACEIAEIQAIAgBQBACgCAEAEEIAIIQAAQhAAhCABCEACAIAUAQAoAgBABBCACCEAAEIQAIQgAQhAAgCAFAEAKAIAQAQQgAghAABCEACEIAEIQAIAgBQBACgCAEAEEIAIIQAAQhAAhCAAShQwCAIAQAQQgAghAABCEACEIAEIQAIAgBQBACgCAEAEEIAIIQAAQhAAhCABCEACAIAUAQAoAgBABBCACCEAAEIQAIQgAQhAAgCAFAEAKAIAQAQQgAghAABCEACEIAEIQAIAgBQBACgCAEAEEIAIIQAAQhAAjC/2e9Xn/9+vVjH3t7e1dXV84AgHfu48PDwxz3++LiIiRf2ffc39+/vr52TgAIwgnv7sePw2zo9PT07OzM+QEgCCdha2vr/v5+lE1fXl4eHh46UQAE4QhC+IUInMKe7O7u3tzcOF0ABOGAezZUK6g4BHjPpthrNFSBE0zB4Pb2NuyYvqYAKsL3VQi+aKa9bQGYbkX469evuaTgjAIbgHkEYUjBg4ODzDfZ3t5+6Cb8pSwEYCpBeH9/n5OCh4eHMd5+//7d8SXhL+NLModGyEIAQVhA8hiJ4+PjEGaXl5fJmw6vDe/w/fv34XcegCkYv7PMycnJarVKeGHxPU8u725ubnZ3d51MAIJwuPiptNvJWagTKcBMjdw0ul6vJ5U68gxAEA7q4uJiGcfx9vbWyQQgCHv7559/+r4kp2NLvfcfa05wAOYdhAl9TGrXXmo7gHdl5M4yaePoq+7zpDrvALDwinB/fz/hVcXXph/gnQEQhC/79OlT35dcPCq+J8lvmxbnAEzBJFafSGuNDAl6d3dXah92dnbSxnJ80C4KoCLMdHp6mvCq+/v7kKD5jZnhHcL7JKfg+fn56Afw1zPObIA5VYSZBVkUqsNerawhR/OnCd3e3u4+03emq6urkNmZ4zRCbNcefwKgIkwR4iRzaaS4rn10dHT0vCoK/xL+vfmb/BQMuVs7BQ8ODtofKn+04snJScEjAKAiLOzs7OzHjx+zOHBVa8HhV3fKvxEBEIQzjoG+rq+va/QU/fr167hzzpXtfwQgCGccCRvUOGJ7e3uTmtFGP1jg/fjfNHfr58+f4Vo8tUX+4qL2xSM/VMBTm9fNE0RARag6HKJCereNwACCMEWoUQZe5KHeYIPVanVycjKLwz7kEBHeoTjy9clCNH/++ef+I8eHgWqd2an98whl0Iz2//Dw8MkOh/9ZPL+H+WaH36uQ8bU/VLideuC/MzPznuzm5maaJxKzNvsz4OfPn0Wy5O7ubpgdPj4+ztzbT58+9d1o+ICzyMKBd6npIpu8Y+GepsuR756Fm6Piyea63Lq9eKzenMsp/EHBr7XI6dfrSxeE9DKnptE39R2GGC4rmbeoCa1ACctONfJH++U8lRzgcPXdvcyzt9ncm+NGmr+MEfLvv/9eXV29eWROTk5Wq1WTVZtbAp60/Ieavpm97+LioplKsP2Rm73a8ObN37Rf2PxSwun05cuXF7/rIu0WNZ6Cd/nSBz6R0DQ6IX3nLH3zdn70iqcRu9EWkTNSsHbdPOTZ2+tkeG2L7XuUN9sqXjt67W+kVztqfkVY7ydQb34GFSHF/eFWYDDJ84OXvV2NLatpt+qhalnGvXO7ToqlWCjWQwGXPIX6k25c4d3aNVzc3GtHrxmpspi6ZPrdoaHtfw7BYNIGgVS6OL7ntqDmMh17wzYF2Wq1evM7il0cz87O4ty28R9D9dMe87per5sG8Hicm6P9PCGazsM5TZHtOWmfePPjJLxKCiIIGU7ZXgZP3NzcJLwqZMAyUvD6+rppvmuCKpRxm1dBOXj048ePWALGpsX28JLw7zs7O8/vNpq/eZITzVwKCStUN7o0jb7otabRge/2QBC+C2lrBF5eXtbbpbSJe56M95ppCj6vopp/b2LstUp6cyfP9ow87fdvv217c807tHvfzFdy+/+LWT6FxT4RhLAc3SeNS27c6/7C9s403WomONneADYMrv3+/fuQA4gRhCynjuS5UJDFxszt7e0uw/gSsrD96HHDJmITaLsF9fj4uGmN3NvbixVku0AMf9z8e9nDEnsJPZe2SnZCs3mv9vlYNTqZqXU7NusB9fkdtYeZ+2NqX1Da0P6q0+5UOjhNJdFlLoL2IJw3h088/4MuA12aP44R2LZ5SqAn+9/lS3lxzysNqE+o2JYxMwMG1A8q3hqn3a52t7u7m9aRpEaDW3tgddkjmba+RNUTxjjoWev79VX6oTmRWGDTaLxkx3ah8F9qp+CHx458TR+HkLul3jZtWpbVanV0dFT8A6aloIc0FPT582cHgSmY7oD6EHib++8NI4bih7zV2zNnVru6ugr7UOqmNWcRj4FnpAN4pxVhrP+mkIJPCtNYI3bvIN500M9JwUZ8q5yFqOKBTX4HizEBgnCgpBl40cG+Li4uNvTfaz5FUKPPZ9NK3PHN2w3LOQe2SKckAEG4qdxJe2o17j43cbharZqnmMNsfcOsWm1FVjMOKZi/ehTANI3/jHD4deeLx+GyT5G7u7uc2b8ABOGrbm9vC/bJfO5JF0eD0/vK6R8EIAjfECKw1GxS29vbNzc3CVXLMKMSZ8rIKuCdGOcZYZE5FZuJrMJ/SWu7C69qv8nwx6E99/90zom4fqzfBiAIK6ZgzsubyZ/KdmJspqDsu8x9gmZCrPawvPgvVdddevO2oD0ZJoAgrCKnU2WcxbH2enjh/eMUpmXftj3X84b5WS4vL2vEfJcS0ONAQBBWd3JyktZBNBYrQ/bgj7Mh59dGTbD1bXqt3WbbnhtaCQgIwoGsVquEV11fX49VrITt5kwqVqSp88myQWGXEm4IQg16c3OTv/QEgCBMl/ZoMNRD4070HLaeXJPVWHM8VG9dFvp5vsxe2nr0DOP+/v7o6Ohjf2k3lyxVHJPW9yza2tqqcbGak8EWfErYt4Qrfr1VDyd+eJdh4MOb3yacs/Uad3jxcW/+ttr9md9cxHiCl6yBT6TMTxRuUsc9jbvvT0J73iyuPANVhCcnJwmvmk7znYbEhcmcf7zpYZvWNDLAVLSlBunS5dvMubCEsyhhUcb2UnHFZ+Zqv7mm0ZISGnCm1okxbX9q93FllAhMOBnCveCQV5bYPja7+XvfWwQmNDXFE7jqnFzPP2b3JXcEYWFT68qYtj9//fWXS8YyIjC2FyVEYMykUR7mNWuh+PanE4HxiU9CBI64OE9ccmew9BWESzPr+cRFYDsCE9qv4uVjCq2UJtqdTgQmPGeJ91Kjf/wFt7f/4eRm2RGYcy8SrlnJ/aTUYQuLwJyXh7uotG7bcT1Rx19FOG/jjv1QBSanYPIjnA//9TUo8ine7Dh9fn7uu55yFRhnxkhLwYODgyIpGLb+ZBjxE2mjkxdlsmMnptbvNq2zeDMzKoP1es98upw5aCd/rtoR+/G3b+AG2Hq9X0eRY555DF8byjLMoIicIRkJTwHmchl/9YQZZjNpV4dZX6Mn+BEWH4TjRmBmfVZw1Gz+TLnvOQjz+6vn73/OmZwZwG35s3AIwgJBkvZrrCG5hVO2DXP9yozAzQ1HHSXPQHR4eFjjYOY0dr3PIJxCBOZ8cUVO47KpbEB9gadlv379msL4lbAPaZ3urOcw2COc5GeB8fa5yPxzOzs7aZfOy8vLGkcmlpjOkC7iOJOcB3KlmqbDnlxcXKTtQKVpFDOnXJ6F4YIw7VCGcyLt+lJK2Hraebm9vV18KORqtfqYYXmjYnN6McQILPUdHR0dpV28ah8iWdjFFCIweU/iJA+1y5hRli5fYBDGyj3hVev1eqye6GG7Yetpr427HRwcHCTvQPMmUdpMde27iva7pQX8AtSYoTFhzuLBIkoW1pAzzd6G33vaLd0Anzfc2RdfpfWdBmGo3JObvweeIKPg5n79+tVkT8cTvZmOq2o1HArEAbYywQgs/rYJLecDD3v4/v276CobgTXiJ6FdYci7nCUPsZhRx5P2HVClfRvsqd6L/SMK9lpOvlzOsWtuF1XHsSSc0hM/tu+ts8wULj5puz3wWdT3GqXX6CZF7k/DfVnBk3LEqU1///49qTaHzEVhpnn9qnrVmMUNqCBc3ok0yjDlRQbhODPLnJ+f51c/cfKhptWx70Oa8PftB2YjTgq6s7MzqW4scWKURc43P5F24FHmGzLJUdkTaQqP2H2npYw2xVosO8o2r/fqQpnWze/9iD1rljdpeOx/ZLk+MsVH7I6DICzTwlBpEBVFhJo7s6vqNI07nf8oa0HI/kql4YiLEyX3aWdaQfjhv24jM63x29NijTh8Phy900dhf8J/lj2Yq9Vqqd1KS7UAz+LstSJYvTuMnHFWOX78+OH4F6vJpmNG3XM3z2YU0r3q1ns9gi6S0Nvb29PsLBOXicgc7Zu52wmtGpVmwyo1/ds77CwTv5HMS1Dmbodf2cQv4H2vbHqNDtdDd8q3DmU/S7zoj3VgM7deda7RKGeKqWZ89CI7jibUuO9wrtEinU5zPlTC9FsD9/GuessuCF+Wv6JNQXFdsYFv9zIvTKXKl8Gu3UX2Z7BSOzODhymy0/bNMkyZfReGvKMKuzrZ0U0JP6hwpY3Pd6Lw3wdoPpnH8ghjTXNX9lKV/CnyM7hgWkw/CMdq4Jpmg3NalSwI82+q0mq1tDmZB8jCqneWT1pcY/6F1z7v8VBpqZZZrhNU9QlcvQbA6aRgzv7MIgjzr2IJp0HyrAhTu3gJwoJ34QnVTFrTUb2bqpxOBm8GYTOTSZcD1TzcyXyQsZAgfLEdI63n3pBTMwx2U1m1jbTqESseIZlT9vSduii5+2jxLzpzRR5BWPZ4DnYHU3B55/y7yTeD8MW/efOWtCmaBeHL+j5THHjh3wU8k6t90Codn5xfct97z5wnwUXuc4tMFigIi59IfSfyzdlWfvthqadRG4LwtXvNJ9/Ii19QU6SWOmHGH0f4TowyhtoHaX4tyT1m45Kt3SfwC1eQ5LowbithysD2QpXGC1Y9kZIfP8fvqNe2kvezmT9ya2ur1wDHZn6u2kOH4+n96VHaLWN8YcLyZy8ShANJuzhOcOaImU59ENsek8u1eIHofhecP2ym15SBi5z9Z5pi22Pyy2M4dc/CzP4Q4a4oRFr3E6lUrrwpznP07du3DQeqWQvvxQMeX1tqviRBOGlVZ28Kt6gJr/r8+fN8j2co13Ke/HdfZrn4VLpMrTRMfvwc6/6OV/DYHXSphcGGmXGaFYpe+/jxtaXuywXhpIXfTL17tLQyYu5LvMbncMk32nGZ5Y7Njw+jTrxHVbETR849bvc2hvxuX9MMwg+vP2o5Pz+Ph/fFeRCbVwnC+UkbIXR0dFQjC9OmnB5x1cayMm+0tx51z91x4/BhtnP5zqI0zGkG7z7bbczdEeMwnsllD134z4ODgw1HIH7kuBJO+w4+NswU3B9BOMJNUEIWdn+u8Kac5WMWVt+EH1K48Uwu1rsvStd0Bx0ykJpuin56VcVm8OR7xF7rnTVjCYb8gHGEX43ffux8FI9AE4dPPmD7I8dr12q1it1iC++K4RMTH0Tx/HqaJnO+leJDlAbr9V57sNTw38UGL45J6BvAhk8MPPA8+dedM1xnsxen8khoBuvyKZ5X1eFohJPw+e1FpclLP876hjHUyGk9Pl48C8OXUe+salcS+eVdOEW6N7SenZ3lL9fSa4vJ+o7NKFhgrR8lv3z7Udprr66uMpeJDvcom5P19va217CK8HNIGELe9+vLOWiTPZEyxxfl7Enm9bDLNbDvpwtnUUKtHM7VpjNR2jv0Nb8gDNVxx/aozLuheqFYJAtfO+dqjPMbJgV5M8DS8gmeXBaGSZcZmU0QHhwcjDKU++7urtIZM+IK6b1cXl7WXl4RQBAOXTz1dXx8XKO/1t7eXqkBoZXoagEs3nR7ja7X616zMFQV+zVlPsh5LnbHmubxz5xBA0BFmLdbE242DOlV/DnNRArfquUvgIqwk5xRbsPY29srHlpNz+lxn2DHClUKAipChWAn9Q7der2uPft72+np6dnZmR8DoCJcQgqGiirOnrVhNdpSVVe92G4vNl1p5HU4CM1KYFIQEISzT8FmuoFwcd/c1z/8v00A5I+NG6CEfTKfS/Kc1/v7++2pIuoNCwGYl0k0jebESZH9z9mBWFo5kwBUhImSl1aIVWCRfcipDtuzAQGgIhyoGqu028mloSF3ACrCxHIqrRastD85S4sBIAh7S1sVod6ibskj5UeZBxWA2QdhwtO12kubpr2/IAQQhAAgCHtKWPOvdu2V9v6161QAlhmE3759S3hVveEKye8sCAFmyvCJAjvzwfAJABVhstPT07TEKttGGmrB5BQ0swyAinCcOuzDBKZY293dNfoQQEWYJSfMPj5Ke7YXq8DMibOlIIAgHDkLPzwulhsjbWtra3Mohv83/E384/CqcXcbgNFZmFcKAqgIRUtPx8fHUhBgGf6YYJl1dXV1dHSkEATg3VWE0eHhYQib5Pmv67m5uZGCAAvzceJX9r29vSkse/v79++E2eAAEIRlrNfrnZ2d4bdrjCDA4s1j9YlQjT08GiaW9vf3h9wcAIKwR4n28J+y69THjqA13hmAKfu4pN4f6/X64uLi77//3vxYMWTely9frBcBwNKCEAD6skI9AIIQAAQhAAhCABCEACAIAUAQAoAgBABBCACCEAAEIQAIQgAQhAAgCAFAEAKAIAQAQQgAghAABCEACEIAEIQAIAgBQBACgCAEAEEIAIIQAAQhAAhCABCEACAIAUAQAoAgBABBCACCEAAEIQAIQgAQhAAgCAFAEAKAIAQAQQgAghAABCEACEIAEIQAIAgBQBACgCAEAEEIAIIQAAQhAAhCAAQhAAhCABCEACAIAUAQAoAgBABBCACCEAAEIQAIQgAQhAAgCAFAEAKAIAQAQQgAghAABCEACEIAEIQAIAgBQBACgCAEAEEIAIIQAAQhAAhCABCEACAIAUAQAoAgBABBCACCEAAEIQAIQgAQhABQ3P8JwN7dXzWOpH0DhjkTAEQwkAFEgImgIQKaCAYigI4AOgLcEcBEAB1BsxHARsBk0G8d9Lw6XgPGrg+pJF/XH3v29CBblmX9dJfqY/P379+OAgAqQgAQhAAgCAFAEAKAIAQAQQgAghAABCEACEIAEIQAIAgBQBACgCAEAEEIAIIQAAQhAAhCABCEACAIAUAQAoAgBABBCACCEAAEIQAIQgAQhAAgCAFAEAKAIAQAQQgAghAABCEACEIAEIQAIAgBQBACgCAEAEEIAIIQAAQhAAhCABCEACAIAUAQAoAgBABBCACCEAAEIQAIQgAQhAAIQocAAEEIAIIQAAQhAAhCABCEACAIAUAQAoAgBABBCACCEAAEIQAIQgAQhAAgCAFAEAKAIAQAQQgAghAABCEACEIAEIQAIAgBQBACgCAEAEEIAIIQAAQhAAhCABCEACAIAUAQAoAgBABBCACCEAAEIQAIQgAQhAAgCAFAEAKAIAQAQQgAghAABCEACEIAEIQAIAgBQBACgCAEAEEIAIIQAAQhAIIQAAQhAAhCABCEACAIAUAQAoAgBABBCACCEAAEIQAIQgAQhAAgCAFAEAKAIAQAQQgAghAABCEACEIAEIQAIAgBQBACgCAEAEEIAIIQAAQhAAhCABCEACAIAUAQAoAgBABBCACCEAAEIQAIQgAQhAAgCAFAEAKAIAQAQQgAghAABCEACEIAEIQAIAgBQBACgCAEAEEIAIIQAAQhAAhCABCEAAhCABCEACAIAUAQAoAgBABBCACCEAAEIQAIQgAQhAAgCAFAEAKAIAQAQQgAghAABCEACEIAEIQAIAgBQBACgCAEgBr9OcpP9fBq7h8nk8ne3t7W1pZvHYDW5u/fv0fwMabT6bdv356fn5ff5Ozs7OLiQi4CCMIBB+H19fX5+Xnii4Qy8f7+XiICCMIh2d/ff3x8zPuat7e3R0dHzgkAQVi13d3dlZpAVxWqw8lk4swAWBND6jV6eXm5ublZNAWDw8PD8C7ODIA1MZheox2HU3i7s7Ozq6srpwjAuA2gafTh4SFUab289dbW1svLi7MEYMRqbxo9PT3tKwWDf//9N5SG4X+dKAAqwh6U6Boa5+npaWdnx+kCoCJcxxTceO2qWs/OADD+IDw9Pa0teEIwayMFGJ8am0an02kIwjqP1zhmpAOg3iAMVdf29nbNh0wWAoxJdU2jlafgxmsbqfMGQBCub8Y8vnLqAIxDRU2jz8/Pu7u7QzlwGkgBVISZDSgFN177tTp7AARhNm8XlI+2s7Nzc3Pz+43wjxkHxU+nU2cPwAjU0jSaZU7tEHVfv35dJsOy1HOTyeT+/t45BKAiTJW+stLFxUVI9GVSMAh/Fv44bFJPFQvAWleE29vbKZO2vLy8bG1tRWyYPmYxpOnl5aXTCEAQpu1EQrto+v4ntsrqPgowaP03jV5fX/cbQpIMQBD26fz8PG7DjEvmpryUcRQAgrAHZ2dncc8F3xVeKrxg3LbGUQAMWs/PCKO7q5TY7eiHhRpXAVSEkeIeEN7c3JTYmeiXtU4hgIowUtwy9OX2Oa4oNIgCQEUYKSIFMz4afCtuDrafP386kwAEYUeurq7KvXjcdDOmmAEYrp6bRiOaIkvvcFzrqP4yACpCABCEACAIAUAQAoAgBABBmFfRuT1NHAqwboY3fGJrayvjuhNz4pYInkwm9/f3TiYAFeHKQoSsuknRiT3jXvzg4MCZBCAIY5ycnERsVagBM/plv3796kwCGKjN3qdEqWcmF8swAagIByN6XfvOXhAAFeFSdnd3n5+fIzZ8eXnJtRJF9PrAwdHR0e3trTMJQBBGenx83N/fj9s2185HN4oGT09PcYs3ASAIM+RQ+v6nvPtGHQ8I59aB2nnl5AZYxp817MTR0dHd3V10jEW3kaa0iLZ73v3hur6+/v79+/LtyRcXF5eXl851gHorwvSy7OzsbNUFe8/Pz0OiJO52l0fv9PQ0cdzI3t7e/f19rgerAONQS6/RxKa8EGkhSpcMtpX+eIFuEuXx8XHzVfroyfBSoQLO8lIAgjCzp6en9BcJRV64yodr/bshF/6xiYFcIyWy7POnERjdk2hxcZnlVgBgBDbrGQx+eHg41+mjZkWnPN2InfU0Ls71rAFUhFUY1rzV5VLw8vIylGvdpODG6zjOEkUnwFD8WdXehCwMdWH9R63c5KKdFYKzmjbYjBMUAAzIZm3zZIbqJFyXKz9qhQ5aYtfZdL9+/drb2/OrANZKdXONhmvxGqZgqAJ7T8HmLkSHUkAQjrbeyqLEg8z0cf0ZpY9WBBCEGRTtkBnt69evESsJDygFZSGwhjarLb9qS4iQgjc3N/m/gApaRN/leSEgCGXh+qZgw4LDwDqoemHera2tGq7FFxcXJVKw/oEilec0wPiDsK1Lehzf9uvXrxJLNzw+Pg5iGp1c09EB1HvTP5Tmr+vr644vykUnURtQsWWgPeU8Pz/f3d395z//aZYVCzeIe3t74Xz78uVLuWkrYKhB2Ohs4pWrq6uzs7NCLz6sbpmlZ1Vl3YS0Oz4+Xn5BzYhF1mA1v4em9JoPk8mk9EfIm1IXFxfhmMy+/s3NTd4On79+/ergm40Yo5n+pre3t7/pSuJC1iERl3mXVcc4hV+Qr2bN/Tm45N7Z2Qn7/fDwkL2zSfj9dDDxd67dDlfwjy4rX1817U77+/vpNXR4kVH2IA1HJpQmn3608Gdz0/4tf6kNX3e4KVm1oJlOpz9+/GifIodvM7zC2wbq9g8+2p/2D5r2xrf/vuC3UGEryPX19ZcvX7LvG2ys+T1mI5RQne1wlgjsvoaeKzrHURE22fDpR1uwY59uu+p+Ll4SK+zJu+fSpyfbRxt2cFnI264+90FUhGTxx9CDvE2FiEd67badPZZP7IDajCdZNfubGjrxPnqUSzU1tfLu7m70K4RtFxQ6oQxqK7xlnpxtbm4ufnL27du3YR3h8MFrmzgJ3vpzNJ/k6upq1SXXs1STK0m5kO3t7aXMSB5upUMMR+9A94tDlTabf+HTLdkzNlQP4X9//PjRJlZIu49upNr8W/A3bQrO3mqEe5ebm5vm3iW8UfjWCvWuaj5OuRRsbwVA02ilrY717+FcLZgupfYNtxpjahp9WzQvs2PvvkK4o3q71VzGLG5Enf3Ll5eXj54CzPXkSm8aLfdt3t7elrheaRpF0+iwpdwd53rQktKhdEyD6+e6LC3flf/dL+Xu7u7T6n9BA+xs4+GC6SNuXw2lzfn4+NhPnqEQhN2Jbt3K292g/hUfOzDbnTL6NmVBa+ry3/W/r5b8oocys4HngghCcppMJtkvf9GjROIqp2pL83Bg29uCiNuUBc9N27cIh7ptjn63KGxr052dnXHM4GMNLwbnT4egG9GdTUoMbYzuQRqucSVmXu3rSj03sOT6+nqlvsdtsM31upodpTd51bzju7cR7QjFlC86enDqR1P9pTzP1kGG4dFZphtx3fMWd+JIETdnVa4+Oz12lpldSKT5l9m24k93LPz/cOjmku+j87Adn9qODgzV4Ud/XPSE72wcYemJn3SWQWeZAfv582fEVuU6R8TNpDqCQRRtvdLm32zvoU+nXAm11/n5+WzvmLklumbLvrZRNKUBdlj0kWGIBGFH4hZdskZ8uW9h9ti29fGqbYwh4eZGpLTDAWf/ffbh36qjXVMq43IbfmRuLjoQhFRtDedsbHNuroybrY8XV70Xr9oGurd3Ku3mc2/RFveWeARBSC0ODg7W6vPONlqenp5u/q/2Py2ece3y1Uf3ELPbzr3+bJvhbGHaFosj6GPy7njKJe/J3lalodrWIoIgXHelrwLrttzuknOKpjwHXXJ4yWwDbFs4juDx4Y8fPyK2un/17vnfrP81V1uDIFwjpYNq8UIHI7NSvMWNRlhpq3Z/ZjugfjoOvfLOShEVYTO8ZPHfNF1tO1giDUFIdeL61yxvrfo1tOXggoWX267/cUe+3WrBtKLtzcfsFNttn9KQcwuy8Pz8fHx9MpePt+aLsxghgpCc4kZ0DL0iXHDlnS2RV503YPYJ34JSu83a2UbUvb29dphp2M/Nzc2554XT6TT8Y4nupg8f8OtgvRhQX/O6E2u1S+UG1LdPWz+dEODtcPsFq08ss87Dgr+cq02XeRKWffWJvN/yql/fguo8hQH1rNeA+nD7PNv9b9XNm60ODw87mEIzrklnfKsA9qJtBP503pPZwX/L916ZrdU+/aLbWJ0rvMJbfzrp9snJyZi+l7///tvJSQ0GOddoyK3j4+Ncj7jC9ah5gBTqhnCRKtRF5eDgIKLFKXzMQn0Eonu6D0447G3D4zJfbqjMmhuj9vZoZ2dn8Qx54X6l+YNlbnfC37SvFs7h2b7BTcG68fo4cC5cr66u3vYi/nTevvYP5lpri67Hu7zuV8aGMTSNdvMDbqeIzCh68aOq2kXfTpU53IV5GeuzCU2jjLZptGkCnVvstOh75V1mIXpQYInVHqJbXEfWNAewMYheoyEJQix1P9w4hG5439570JXI/uh1U3VeB8an6meEz8/PS84GUs7h4eHW1lb6GvEp/XFCbmVcpN5clwDDqAhDAvWego1maFfKKK7dVyk7kGsiysfHx+gPMrfMAoAgLBs8tY3qDYVURIti066bPjxj+io9BWcnNFmVKR8BQdiFkH/RT7C6Segle5qE8MvbuycUhSkzbN3d3aWkIIAg7EK41sfNd9ylkNOfDmEMf1OiXTeEWcS8ARuvM1smTlOpHAQEYXHhSj2UlWhCrny0q+fn58tXjXGa2XCW/OOmbTZ98gEPCAFBWDxahjXXSShe57Lw4eGh0MzIbzXvteDtwr6FqjRX26xyEBixKoZPhFAZ4pJAYbe3traaaaJC6vQyL+j5q9LvohwEVIQFhZpmuGtzH78q3Rbar+jJ4QAE4edCITj08d3jnr16Z2cnenI4AEH4OR36K/fpukUAQ9fnM8Ki4wW3trZmS5lQelrbb1UaRQFBWNDl5WXeZArJd3V1tUy3jul0en5+LhcXu7i40CgKrIPemkYzTrnSLCf28vKyZOfGZinwzlY3HKIQgSWWfwIQhP8nV6Nos4Ju9CU7bBg273eQXChkaxulF1JQoyggCAt6fn5Ob5acTCYhw7KMb2tWXe9lpb37+/umkK0nC6UgIAiLS5+EM1ypQ4Rkz6QuA6Bpzm3TN2RhDfFTyW4AdKnrzjLpiyuF/ChXDIUXj5vVOr3kCv8eqsMeV964vb1tZskBEIQFJS4uUS4FZ9+iXBaGqNva2vrov4b/FN49VMzp6xdWeGAB6tRp02jio8HOLtYl3uj+/j687IIUbD09PWVv+F3g7OxMCgKCcADlYMcX64xvF9EZJ2NXoAV2dnbCu1xdXfkZAIKwI9FLTLy8vHR/aNLftEma6B6hzeCQEnHY7Jjp0wA6DcLoFDw7O1umRTG78KbhraM3f3qVvhtNHOYaX9E0hIpAgB6C8Pj4OG7DHtvuUt467xRuTftqk4ihnlt182a0hoZQgLe66zUa1xOy99ol7EDcwMfT09MSY/K+vmqz9uHhIZTaP3/+nP2bvb29v/766+joKCIy6V34Tv/555/wtb4daxS+0MlkcnJy0sv8DwzLdDoNJ1I4i97elIfz5+DgIFwizCf8f353pfLdy77nlez8gET0lR3NZw+FfkT7f7iKhRu1ej5FJV/fqncJbXvJCMQ9zWkbnNZWR02jcdOBVjLLiclWxipUXZtpwk13YjPJ9vZ2eJ3T09OItvSw/7u7u2HzT39fq36uZd49bquUvQrSZ+QoIXx9iSdS4pOUcB42r3N9fZ2y+eLDG/5riRNpjSrCuDa64d7qNpqxg9RZEabf3zT9mOKUaPNvekJ1Vqv1cr1a5jfVcUWY3q+7WQwnTokldD46yCNus+moIox4QFh6FF0HO/P9+3dVV7W14P7+fmIKRp+ioQpMn3H3rVANhHvw6O7ZxNWCia0Ci2eb+rQ9I+N6dq3Dw8MhFXM5/FHtnlXVvzFuZ+7u7lwpRpmCoZqMS8Emq4ouCr3/yrc8iBRccrapXr7lZZrcR+PPavesl7GDg9gZek/BuL52oRAsGoFztUJ0qUFnKRixVTiFOpuaP5Sb379/72U+kxFWhN1PIQ21pWDpQvDd3NVMOrIUDF9oxwvUhJN2HZpJKw3CCodJGbklBeNSsMdLSfi8iddr6knB8KZ9NXp3fxs3wiCM6PF8cHBQ25GqcJfoMgVfXl7iUrDHNSazXLWpJAXDW/f4wTtr2B9tEI6j/FIRrnkKxj1v6zcF22u3c2DQKRhO4Bq+xOhpMgUhrG8KrlsfdCm4QLPsdsSGoQ7TDbi0Px2CJZm3cz1TMHrkeA21IPWkYHTfSyeSirAi+r5KweVdXl6Ou3OBFJSCgrA4FxGGm4IbrwOwfAVSMDEFr6+vXQnHE4QRjYoVjn+qc7ZfKkzBXI8Gj46OFs9C+evXL324ak7Bvb29lNHo5+fnWT7Fp5Op3t7ervvcC3VOphyys7ZZWYc+b/j6TLqdPpt24oJK6b/KVadrDxey7i8LvVyvupx0O3G645CC3V9w3hajHaziNIILYEc7OoIjOO7zYDRB2G8KpsdDykoIGRcisB5hvymYPqtZ+CFEv3vG1XqtPgHr1SK6EbvuZitc/lJeIWy7DtNCDqJFNPGGLGVxkmacRkqYhZ2PuCsdtHqDsKqlG+J2JuONFaVTMHqY16yUPjLRCxFk/xRrLnFeulBKJqbgv6+iMzjLzVCoqtfqpqreIKxqOoy4nfny5YvLylBSMP1nn3Lrlje9ZGFKCqb01AspmP6QOPpMTq9Es/8oBOH/ODo6irgtqucwxe1M9ifPVJuCGwkTUJXILVk40BTciB2yHE7jjClY7jXXOgj//vvv4RaF0bthNbgOJE7J3/ttb7kLzdPTk9OjsxQMd71ZUjC6VbbQaRyqzMR+Q8Og12W5foA6gpbuNZp46Uns2pfe7zzjDmTpP5l46lbyA4noNZr4OD+ch/1ebVYdb+Ma2M/wiehDGc7pfg9QRKNu4+rqqtxe3d7eLvNrDz/vorvRexBWkoI13+cJwtIypmDc99X0kCoqunVBEGYbqrnqmNCMUlobSpyLKb/wnZ2dEJ+CsFApFrEPKUMGSw8uFIS9pGBcO3k3V0hBuL71deKPJNeVLm+nm96L7N6DMHsKxt0v13waC8Iln+/W0P7UzVlU+Um+FkHYy7U7188p5ddS7jF1B80pdQZhOKQ1tHaUfjo4K+IBmCDsPgXjrpClnw72ckc18iBM6dqQtwmi6K5mSZ2M02UNpTrsIAhLpGDcBaLLBv+Ie3lB2H0K1p80EQWrIMzf2NhZFuZNwVVTp/ve/F3eVPYYhIVScBB3yoKw/hSMOIAdt+tEXJoEYZG2vg6ysFAKLvkRuikE+22p6yUIz87O1rnJSBDmUq6Uj4iZ7vuEC8IqisKi9/W/Sz6Tm/P09JTlWU5eIw7Cqk7poqmc5cQWhN1XYLmWIROEEXqYazR6ZF5jOp1ub2+X2LHwsimT7a5k99Xsv2xubva+HHHYh7GuiF3onInT/SS0JycnGyQLv45y010NYunvsS4k0EMQpi8iGk7HcMlOXPJmVnip7jPg+fk5vGnzu8q1pnmWwBhlFoYPdXh4WOiVV92k+2XlLWSfS7hXLnTD+vPnz/o//lhPpH5Wn7i6ukp/kW/fvoX8SKzhwubhRVJWz0n/XdWTguPOwnDHXaLi772Op2OJa14O2l9//SUIs8k4QjxUVCFIIib+D5u0BRlvs3CUnyt83WNt+6VLtd28dkbTaGa/sy4Tc3d3t/lqd3f38vLy3XVMwj+G/xT+oPnLqhb+9VOX8TiRWLsg3MjUQPo27b59+9am3azwj+E/xa31tZ7G2gTkEka6oh1nWKMgPDs7G2uhPQ6Pj4+jrJvLdZxhrUyn00F09aTqINwouSopWUSvul65jB1ndnZ2nCdrK9xRrdVT57EG/x+970Heh4UdawbYdryQXsfG2kCaq+NMRBB23z6vi1A5uVraDw4O6v+w//3vfwWhLJzXzIrUTCKad7GklRwdHV1cXIQ8Dv8bdiPEc8YXf3x8NMo+r+4bnHUNq/9EGsRzotGeSJXMcNP9TNOFDl1nDWXhjT6d9jDXjHHdzO0bXVgnfszu553qftGPVcdBr+EUa1uvos+i9KkfI54TdT9d/kDzpca5RstNQ9qZxcEQt4LlShG40lHNUqpWG4TNtimXsPQJx+u/Ae1m94YbhO0vOuU3kh5LEU1BgnCoc40OvY00XDcX169NUJUYHLLx2r1o1aBtpqhPfN86nxS2nyulReHx8bGzOWap8762PX9STqTuO8503FA54kmU/qhth2pYhGFxqCzZgtGsMJB3ar6Ug5NYNtX/G0i5hCV2nImYR77LS5gHhIv9/fffs6GYcgs77iGqYx43WWehWnpRwOhLbY+PP7Mc2JQsvL29ra1pNO9p00ujbgcivvS1ahq9uLjIuCBaygP1iPd9u/NVPbryjLDnq3Ze6b0bEodY1PAgtnSXmSzrsSWW4KO8RnS2b6MJwsRHCdGP7uJW5qm5OIl7o3AAJ6/C/+lgMfbag7CS0jDXmtTRnRuzl2J1th/kWpg05buO7jjTy91VuS6UgjDxRIr+zUa8Vzd9R0tfMT691BdNxGGUrp0tHF/00NdTh0X3I811T1A0CBMvYU3folXFLTc9guvXiIMwcd6ruB9LnU+4oguSiIdH4YoXvpGbV+H/zLULFroEDaYNt+M4LHH3UVX2xO1M0QcSGYMwcQRL2HzVnY97Ely6tTn64YIgzHLN6ewqV/pJYbkjMHu3seCqO5vEYZO1DsKUZvTllTjKFd7rxf3eVh3C2FcQBuHS0PElrMsCdBkpvR8FYfrNRPSNTm2tNSmThCyZgkseqHZPsl+lhxeEWX7nXV6PUtoWyjaLV9YIkzcIfyfP8tNZi0VEAVqoQhWE2VvaI54EV/UIv+gNZcSD+bZjrSB8px0s7qFXOEc7m6Ooyz4LgjDLJSyi40zvHbKypKAgzHs8V72dTWn0quH2fcn9ab+mxafQ29vEEn3NxhCEtf0OMzawrNUulQjCxCxc9dFLSg2aKwuzjFsVhHkjYdUvt/vvrkQKLt6Zd49MG3KzX+Lc37RneMZzprqZZcaqwgUc+uqL27GUEZzfvn1baUqdlE4629vb6TO9XV9fj3tykx5/LCmj7Ff9UlIaJDc3N9OvNvv7+0XnkQknavt08N3fbNNW1xyHufkd203aF8lARVjnvm2U71IY92MbXEX4O3ZsQ9xHTnwwmfKlZ5yAQkWYvVBb9ZtNT+64o5d3sfTFn+5to/FHjaUfVasqwvErPedq3nlQa3Z7e5sSEuEWu5uisGk5CG93eHi40ia7u7tZ6gA+vaynfLMrfa2Jc1FNp9NwSlxeXi6/yd3dXdiky+n1P22Uenh4eLdqzN6aJQjr1ZwEw339qiQ+OVvp6pDY0a75ajZfnZ6eftQ2Gy5bYa/C32xvb3e/5P3aSrnRCV/r8q3f4T41vcT/9u1bcyKFRHz3Pin8Y9OcHv7m+Pi4nktfcH5+3tw65C1SNY0OrGm09B7WNhlKuabRLL1IVuo4M4LSR9NooREFK3WcGeuJ9NF/ffsKH/W5zXsKqQg7Us8E4rMlxbp9BSkd4VbqODOCSxgfCdVVypPglTrOlJ4/pOarZTN+qZs+fYKwIzUvsrg+Evv+rdRAmviMh5olPgle/qlzsw7Duh3epvEm3Hfm7BcqCGvw5cuXiK3Oz88L7c/adqxIfN6w/CUsXL/WZIDKekos+pe/qQp3VBW2JyVqSuoF17fmViP8wbvPv5tOQIk9tOe/Ts8IOxD9gKrQ/sSdQ0VXDir9jDDXo5eVJlwdaEuAZ4SFzthZK804M9zbhcWz5yx48tc+i/3oaGRcn05F2JHoe7pCfTvj+hmenJyoC8OhW75SD2/UexZqli+kWTk2evPT09PlG2ZqyMKMLRztcVtwfWufxc41w7SbJI4PVhH289nr+Y6imxSKHp8uK8LfCYsytglXuoNurotXZz+NdasIs8xj0NecCREnfKH1YZYZUD878W+Wb23+1BWEnYm+GkZPEpF95ogxBWHHl7C8i6Us/3ipy5/GegZheq220nv1Ut8X+oVGHIFCJ4+m0e5EXwqn0+lKM14uFj1zxPha2BJHFq4040woQLNMh73SNWgNOxwO8URa6ScZbmS7vKlqSrFyp2j7U/q0lbiZdKlQQ7Eg7E5KH6fwU8nSz3Ola/ecUQ5pSryErTQmrJltsoP7iRC6BjJ2KXGI6qrjBDr7fkMJWHpWl/aDhJ/S7u7uR1e58J/a31qJG0pB2KmUZ0XhPEisC1NScCNvZ+WaLmEpAR9+t6tO0h+uLOVKwyZre2mGXXOJQ1Q/GiewOEKyrJT0rqZ/eDctCu3dYTgCzWRvzXS7web/1xycpsN2kQelI3g0mHI2hGTKuyZq6ccJcc8L04u5vM8pK3lGGP1U6W22Rbxp4qDstxasdN/Nga3k4tP9M8JeHhYWevy8YD3qor/QcB1ecCcR/lPRC/XmcJtQwj1CrgbD5kJf7vZqrrBL3+dwRi75a2+WJkh/xw7Ok7CTq5a8Ge9YE4eppOzJ8fFxynR34a0/vUKt+uniPk4377JMS+NKJ/zOq6GfSOF6GEqolOnXz87OFmdqZ7/Q2WPY0XPuIZaA5SavKjpgPHFk/bsnbqFCufvDQnNrv3yzT7h1W1ACsrbCWbHS0KC84xAGamAVYbgl6WAB7qOjo6IdQ7IUhe/G1ar3wvWUgyxTXugFSpa2FifSnCEFYSj8u1xCr+icIIn9Vrr0aYMJgCAcSSH4bo1VqBk28bFQl5SDgCDs2fX1dblFGHpMgkEUhS8vL+Ob+R5g1p+V79/+/n7GSVWiE6tEFoaM6aXMXd7Z2ZkUBFSE656CRWuju7u74+PjOg9++LAdTwkGIAj/R6GulSlKHKvT09PpdFrh8fdoEBCEasGO4qHCDysFgfVR41yjoUiqMwU3VpxkeUk1rN0qBQFBWIsQgXU2FTb+/fffEk/1QhZmXP1ZCgIsr7qm0UEMKnh6eiqxFEO4A1h1KYOMQlVaeskVAEH4iQo7yHRcOfU1dcDV1dVK8xMCjEZFTaMPDw9DScGN1/XDSrxss55cxzMBhneUgoCKsIJdyd0oOhsnJSYpLXrouikNb25uKnk2CbDuFeHl5WWW15ldP/Z+RvuPGa/7RZ/nNaVh9rVbW83aK1IQoJaKML0cXOkpV675S7s5eqE63N/fT1lyc9bt7e3R0ZFTH6CiijDEUnrxtNJTrmZJ2/Qp0xL3fPkP2CzBGkrb6N6q4UahqYmlIEB1FWFKOfj169eUpdjTZzjr6wA+PDz8888/d3d3H1WKk8nk5ORE4ydA7UGY0iskMQWzZKER6ACD1n/TaHSXk1DxpKfgxmvPyZThCj0OgQdgDBVhdLto3j1PaZ5VFAKoCLuWfak8a+8BCMIe3N3dRWy1s7OTfY3c8ILRHTJzDWwAYO2C8Pv37xFbFZobOvpla14uA4DFen5GGPdkrtw+x+3PZDK5v793MgGoCLtQdGBc3IuXmMgUABXh+4qu5/74+Li/v19VkQqAIOw0cmprrQWgqD8cAgAEIQAIQgAQhAAgCKv2+Pg40BcHQBBmEDcZTQ0vDkCFzCyTYX/MLAOgIowUNzT+33//reogHhwcOJMABGGMk5OTiK3iJn/51O7ubtyGZ2dnziSAgRrqwrwvLy95V2IKVeb29nbctqaVARCEXQfhhhXqAcih/16j0cvhHh8f59qHlJe6urpyGgGoCOPd3d1F59DNzU36qkzT6fT09FQ5CCAI+9uJhGbJEIQhDqM3Pz8/v76+Ttl5QQggCFMdHh6mrG27s7Pz9PQUseHu7u7z83PKnt/f308mE6cRwHBVMbNM4mj0EGahppxOp8tvEv44bJKYghuvQ+mdQwCCMIP0sRCnp6ch287Pzxf/WfiD8GcpDwVbKU2yAFRis55HXClPCj8q15o5X37+/JnS9PoRTwcBBGFOiU8KO/br16+4+eEAEITdFYWFbG1tvby8OHsARqCuZZiGsoaDFAQQhEVMJpP62xt//frlvAEQhGsaM1+/fvVoEGBMNuvs+ljnw8IQgcpBAEHYhZRFkQrRQQZglP6oc7dqSx0pCCAI1zd79vb2pCCAIOwnC3tvuf369avnggCCsE8hC/vqqBki0ISiAIKwfyGQOh5rv7Oz02MAAyAI500mk5BM3Sx79PTKyQEgCKsT6sIQh6FcK/T6Nzc3RV8fgNpsDnctoePj47u7u1yvZjUJABXhwNze3oYUTwywq6ur36+kIICKcPBCgfjjx4/FZWKzWu/Z2dnW1pavH4BNy6wDsM7+cAgAEIQAIAgBQBACgCAEAEEIAIIQAAQhAAhCABCEACAIAUAQAoAgBABBCACCEAAEIQAIQgAQhAAgCAFAEAKAIAQAQQgAghAABCEACEIAEIQAIAgBQBACgCAEAEEIAIIQAAQhAAhCABCEACAIAUAQAoAgBABBCACCEAAEIQAIQgAQhAAgCAFAEAKAIAQAQQgAghAABCEACEIAEIQAIAgBQBACIAgBQBACgCAEAEEIAIIQAAQhAAhCABCEACAIAUAQAoAgBABBCACCEAAEIQAIQgAQhAAgCAFAEAKAIAQAQQgAghAABCEACEIAEIQAIAgBQBACgCAEAEEIAIIQAAQhAAhCABCEACAIAUAQAoAgBABBCACCEAAEIQAIQgAQhAAgCAFAEAKAIAQAQQgAghAABCEACEIAEIQAIAgBQBACgCAEAEEIgCAEAEEIAIIQAAQhAAhCABCEACAIAUAQAoAgBABBCACCEAAEIQAIQgAQhAAgCAFAEAKAIAQAQQgAghAABCEACEIAEIQAIAgBQBACgCAEAEEIAIIQAAQhAAhCABCEACAIAUAQAoAgBABBCACCEAAEIQAIQgAQhAAgCAFAEAKAIAQAQQgAghAABCEACEIAEIQAIAgBQBACgCAEAEEIAIIQAEEIAIIQAAQhAAhCABCEACAIAUAQAoAgBABBCACCEAAEIQAIQgAQhAAgCAFAEAKAIAQAQQgAghAABCEACEIAqNn/E6C9ez1LJFvbANzua/8fjWAggsYIlAgaIlAiECJAI5COQDsC6QjUCKQjgIlAJwK/d1h787lFbUVYdeC+f3j19NhU1aIO66l12nl8fFQKAAAAW8ibUQAAAIEQAAAAgRAAAACBEAAAAIEQAAAAgRAAAACBEAAAAIEQAAAAgRAAAACBEAAAAIEQAAAAgRAAAACBEAAAAIEQAAAAgRAAAACBEAAAAIEQAAAAgRAAAACBEAAAAIEQAAAAgRAAAACBEAAAAIEQAAAAgRAAAEAgBAAAQCAEAABAIAQAAEAgBAAAQCAEAABAIAQAAEAgBAAAQCAEAABAIAQAAEAgBAAAQCAEAABAIAQAAEAgBAAAQCAEAABAIAQAAEAgBAAAQCAEAABAIAQAAEAgBAAAQCAEAABAIAQAAEAgBAAAQCAEAAAQCBUBAACAQAgAAIBACAAAgEAIAACAQAgAAIBACAAAgEAIAACAQAgAAIBACAAAgEAIAACAQAgAAIBACAAAgEAIAACAQAgAAIBACAAAgEAIAACAQAgAAIBACAAAgEAIAACAQAgAAIBACAAAgEAIAACAQAgAAIBACAAAIBACAAAgEAIAACAQAgAAIBACAAAgEAIAACAQAgAAIBACAAAgEAIAACAQAgAAIBACAAAgEAIAACAQAgAAIBACAAAgEAIAACAQAgAAIBACAAAgEAIAACAQAgAAIBACAAAgEAIAACAQAgAAIBACAAAgEAIAAAiEAAAACIQAAAAIhAAAAAiEAAAACIQAAAAIhAAAAAiEAAAACIQAAAAIhAAAAAiEAAAACIQAAAAIhAAAAAiEAAAACIQAAAAIhAAAAAiEAAAACIQAAAAIhAAAAAiEAAAACIQAAAAIhAAAAAiEAAAACIQAAAAIhAAAAAIhAAAAAiEAAAACIQAAAAIhAAAAAiEAAAACIQAAAAIhAAAAAiEAAAACIQAAAAIhAAAAAiEAAAACIQAAAAIhAAAAAiEAAAACIQAAAAIhAAAAAiEAAAACIQAAAAIhAAAAAiEAAAACIQAAAAIhAAAAAiEAAIBACAAAgEAIAACAQAgAAIBACAAAgEAIAACAQAgAAIBACAAAgEAIAACAQAgAAIBACAAAgEAIAACAQAgAAIBACAAAgEAIAACAQAgAAIBACAAAgEAIAACAQAgAAIBACAAAgEAIAACAQAgAAIBACAAAgEAIAACAQAgAACAQAgAAIBACAAAgEAIAACAQAgAAIBACAAAgEAIAACAQAgAAIBACAAAgEAIAACAQAgAAUCL/VgTlNJvNJnO/fv1Kf175ow4PDxuNxp9//hl/aLVau7u7ihcAAAg7j4+PSqFYEfZubm5+/PjxmdS3clb89u1bp9OJxOiLAAAAgZCNS/Hv8vKybDu2u7sb4fDk5KTVavmaAABAIGQ9Iv6dnZ3NZrMK7XOj0RgOh8fHx74+AAAQCPmYiH+9Xu/m5qYGx3J4eHhxcaFnKQAACIS8ZTKZdLvdajUGvl9kwkiGkQ990QAAIBDyH5EAIwfmnximKK1W6+rqSpshAABUl3UI12A0Gu3s7DSbze1Jg1/mDaFxyHHgg8HAOQAAAFWkhXB1Dw8PvV5vPB4rii/zBsPr62uLHAIAgEBY/yjYbre3qj3wnSIQRiy0agUAAAiEouD2xsLpdKq1EAAASs4Ywg/o9Xp7e3vS4HticxTU/v5+/EFpAACAQFhtEQJ3dnYuLy8VxYcKLWLh6empogAAgHLSZfT32u12PRaXL8ru7u7d3Z0FKgAAoGy0EL4lNQxKg5/08PDQbDY1FQIAQNloIXzVaDSywt56tVqtu7s75QAAAAJhqfV6PSMGN0H3UQAAEAhLrfyDBlut1u7c169f09/8+vXrYa4Sk6BeX18fHh460wAAQCCUBl8Vke/4+Pjo6Gjlpd4jH/748ePy8rJsK0DIhAAAIBBKg881Go3hcBg5cBMfHsnw7OxsNpvJhAAAgED4/4odNxg58OrqauWWwI+aTCbdbrfwZDidTo0nBACAolh24j8u5wrZ9PHxccTyiEbZ0uCX+SjE2GJst9/vF1js7XbbuQcAAEXRQviP2WzWbDbzb/fi4mJDXUNXyMO9Xq+oPBzl4CQEAACBsBj5hw52Op2rq6uylUO32x2Px/m3G0URBeI8BAAAgTC3iEARhHJuscyTqUwmk/39/cwbbTQa0+nU1QgAAJkZQ/jl7OwsZ/K5v78v89SarVYr9jDzRC+z2Ww0GjkVAQAgs21vIby5uck2r0m12sGazWbOOUg1EgIAQH7b3kL4/fv3PBva3d29u7urUMlEPIt9zra5CJ+FrwAJAAAC4XbJNofK9fV1zny1rn3OubmfP3+6IAEAQCDMJFuT1PHxcc41Btcl9jnnqhiFTHAKAAACoUC4WScnJxUtopx7nnPIIgAA8EWX0QwajUYVmweT1lz9IjoAALDtgfD29jZPIKx0KVVu6CMAACAQlsXBwYH9BwAABMJtlKcd0v4DAAAC4Qfkafuq+lwp5noBAACBkNUD1WQyqejOx57nDISHh4dOGAAAEAhrFT++f/9e0SLKuedVn30HAAAEwooFwjxTaF5eXlZxQYXJZBJ7Xr98DgAACIT/OD4+zrOhbrf78PBQoZKJvW232zm3+O3bNxckAADktPP4+LjNxz+ZTPb39/Nsq9FoTKfTqpRMs9nMOXpwd3f3/v7eBQkAADltewthq9XqdDp5thX5am9vr/zthLGHsZ+ZJxc9OTlxNQIAQGbb3kL4JW8jYXJ9fV3a8XI3NzeZe4omzkMAAMjPshP/NBL2+/2cW2zPlbAoitqx8/Nz5yEAAOSnhfA/Mg+ZS46Pjy8uLspw+L1eL+eEos8C+d3dnTMQAAAEwsJEGoxMWMimi42FBUbBZDqdbtUKhA8PD5PJ5Obm5u+//44/zOY+9AlpuZSvX79Glo6ii5+uXwAABMLPKmr4XBJV/Kurq2xjC+Ngy7ASRiThbCt/5Dcej3/+/BlFnbPxudPpHBwcxM+titkAAAiEa3B5ednr9Yrdh0iGw+FwQ8MaR6PR2dlZSWY6jcM8PT2tzckTqS/Onx8/fuTve/zbiHhyclLaeYwAABAIZcJXw2HU5r99+7by2hipkSp+lm25i3qkwZubmwjY8bMqOxxnVITDfr8ff3CxAwAgEL4corrdbpn3sDG3/PcrDEiTBj8qovVgMCh24OW6zqLz8/Ns63ACACAQVkaBc8zUXoSQzOt8rMVkMun1evGzft9IajasU/ddAAAEws96eHjY39+vRINbhVxfX1drMFucBt1ut0KdQj+ZDCOu13iaHwAAnrEw/VuV4+l0OhwOFcW6yvP+/r5CaXA0Gu3s7Ozt7W1JGkzpt9frxVF7FQIAsCW0EP5e1Iyjfly2SVmqpd/vn5+fVyUUtdvtWnYNXSHDazAEABAI+cfp6enZ2ZlyWCFU3N3dVWJNPFHwNfVeLhIAQCDkvfb39wWG+gUJUVAsBAAQCBEe1iaSQ+QHIb9+KjctEAAAbzCpzIelPpD39/etVktpvBgFHx8fK5EG07Qx0uCHtNvtZrNpSC0AgEAoFv4TC63rXcUoGHlmb29vMBj41lYwm82i9KxbCAAgEIqFu1dXV1VJQZsrhDj8ChVCJJnIM9q4Puns7ExTIQBA1RlDuE5pGbfxeLwlx9vpdCIERiCs0D4bMbh2RhUCAAiE/I/ZbBbJsK4LmrdarciBlRtCGXFdi9aGDIdDPUiBSjyd49H869evyWTymWd0a+7g4ODw8LAS6yoBCIRFhpDBYHB5eVmDYzk+Po56f0WffPHs39/fr1DkTu2usdtVSbAVmlcW2J74F8/fHz9+xB8ybC7u251O59u3byYXACrmkVyq2LMudjh2uwYlX7aCjVzd7/fv7u5WOJz7+/uIXiWscMTZUqerdRvuvRHjW61WDb6p6XTqEUMJH7XreoBu+oiGw6EzB7aZQFiMqL5EHijh6LvYpagj1ql2FaGr3uk68mE8y0tyLqWZZgXCSgTCOG3WmOTfX2KxuZXfhry20Tj/40LYUEFdXV196P1L/PJvr/S1JIcPfcji665rZjg/Py/hI1UgBARCPlCnL6rNJ00Ms7m6VOHBuwwZKVvxRs218CpR1PUFwvIHwqg9rzfJr1ZiizmKP391NxqN9d6TP39DfiNpC4RrfOVX5oEMAiFQCZadKFG7XFrBYl0P73fWVGKjselqzRT6fu12u8DvNLWB5JyINaqwKXzGd1rUgY9Go3oMmq2x+IKeLcIZf1PItEBpZua9vb2Pzv07m82azeazv1nLOOHYk725384XHXfRys2tVbPTeGdnJ770POMDAWpMIKS2oqJZSEUh6oj3cwVWFotdGbKokuc9IufEF7T892dnZ2tP8i826y2/rYhYGNX690/5mH7/xSzX7XY/k04jZMYnL8/k1Gg0llsyr6+vn3V8LVX/7d/6aFfh8swknKLgi6cxAAIh/H+tN387VWoVDKUa0VdIa+Fn6uVsToSuN76aDMuoLpLVcieI958zb6wf81rc/a3RaLS3t7f8IuP8/Py1HPviHSBSU2qlN+nuJqT2W1EQQCCE33vWIy5P+iq2VfA1UTHNP7NO1Nt0HC2bSDu/7UQdqeyjvTdXE8Hp2cUSGe89jYS/XU10he6vETCW7xjpfUq/31/5hlDC+Y2rfld/sf0WAIEQnhuNRpm7LF5dXZW5QSAtLZB56oWzszOnYqnS4LNBd+llwfJ5W+ZBWcv71ul0lueO+lD31xdHvb5YMhT71cc3pRwANuHfioD6+f79e87NVWWFyag3t9vt94/U+nwCGY/HFmgugxcH3Q2Hw9QNMr6pZ+k9fjnOlo32fD49PV1uinz7Ooqz99k/id+/urpK1+Czxs9er9doNH57YUbJLLcNnp+fFzgtU86z4kN3gwLvcs1m07BkAIEQ3iuqODmrDlEfrUQaXGTXnFWrSOYCYRnq/cvdLPv9/qJfZfzhr7/+etpKlgLkJlZtiU8ejUZxYix3/Hu7RS4C3rP0Enlv0SczrsH458+GlkVEvLu7e7sX93KjU3zsyt1EPyP/lMiRrj+00RcXusig2+1KgwACIXzAz58/s20rKo6VCzxRRd7b28sWzqPeX9dFTapiedjV8fHxs3UII01Fnftp4kqrOHxy9OnOzs77X1W88WIlkt6zXp1xUj3Lq3FQrzV1vtFZ+vb29tnfeIVRKpHYNz3REQACIXWTrfYQVdJntepKSLudbdKdyBhq2AVabhBOjWkvRrJnv5xWcUh9Mjd6Nr7dP/P09PS3aXDxm8+aOr98vPvrH3/8sSXnRpRJyddRfLFDLwACIfxGts5FJycnFS2ifr+frZoVoUIgLEq73X52OTztZrns7u7uWefStIrDeqdXSUP7jo6O3tPXOjLe8uxEb6zsstzU+Xb314ODg2c9UZfbDPNYYSjy+xtgXxRpsOTzoEqDAAIhfFi2GVO+zLuoVbegIqTlaUotqnpNt9tdvhwiLH00RVxeXv7555+rLUr+yVFnsekX56pdni71bWm9jRfDT2SwZ5uIQjMZUhlEki9k6ZpGoxHf/tevXxv/FXuSZjOKc+PXr1/xZ2MaAYEQ+E+9obo7H9UdI3NqbL1LzEdkirM98xuQCANrXH88qvIvdn+NQLj8ciR+8+2Rh2SQeZGJ8/Pz1yYT2t3dTY23y024kQy/f/8e56rVEYFKsw4hrKJCM4vWcv95w2AwWHvTyvIknxsV21pjGkxS99flv4+UuJz9ms1mIc1TLGSbHiyi4OPj42pTy8aZE//8/v7+ca4qSxABCISwBstLqFVLzso9OZ2eni43rUQ99fGDluvHy8sAbu7iWl4OYTgcfvQQlvuIRsZ7se/rdDpdrsdHetzb21v5kGNb3W7XCbma2WyW52SLk2SNq4zEWbS41oRDQCCEmqt6B6G///7bl1g/Lw66u7i4WKFien5+vjyObn9/f9Ojp9JyF8/+8vj4eIVBjC/Opxrl82LTX1Tfl385TUizs7Pz/qXwxuNxs9mMfxJ5UjfCleV5YxUn+eYyWwqHMiEgEEJuOYf9VLpHWbadL/m89jVLg8tdIiPkrDz27+rqavnrW17VcI3ik5cnjHltnYz3iGMfDofP/vK17q/xy4+Pjy8W1yLmJVEI7XY7UmJ7LoXGpEKrqEch7HzEahMLrfxeYNOb2N3dXWPbIEClmVSmLNJU6WkGswwvR2MTUY85ODg4nBMIV/D9+/eKTjQatdtsbRd//vmnqztP5X45DUYW+uQpend3t7e39/RseXsVh02kwU8ujfDi4oRx93tt2piLuVSer8WSqvcYL78MsxNXd90ggLXTQlhM9huNRk9fKoeoCUX9I/4+2+Cu2NDZ2VlUjJ7txmAwqHR1J9t88VFKFW0kXPt0HW/QYyrPtbw86G61bpYvZsLlO9jy5j5vue3x7VUT3y8C3nJTZ9zr3miGivM2EuPj42P8jJJ8/7r2X+at4rHF+/v7kq/yt+XcmgAWdj65ThTvMR6Pf/z4UdFZ/qMy9M4lpMtT2jnncqjc9PSRBnP2F12OE9WNWOvl3ltdi4Xpvsx7HuoXvf6qyQdXy6z9BRi3o42+LB4Ohzm7BANlo8voRsxms9emLqicy7n050g+JycnH31fnlmn04ndy9YlMnWfK3OBPBWP/Jyn5dHRkbsB9bNYmI6K8vUBPKXL6DpDYK/XW3S8rOUaVnGMg8Fgb2+v5MeYc3BIGvhUiWkk4rtbnoJyo8zZAJRQtbp1AAiEZRehqPwBadMBuNvtlmqC9cxdX1ImLHmX4P39/eXl6TZqeXZHgDIw2RWAQLieyJFyoMWmvsyH7aXSaLfbxbaVLb6X/JtOc9CX89uJAsk8UVCj0TAiBQBAIKybRXvg2dmZHLjs5uYmrdaVs80wImhsLrVVFvu9pHW9yhOEIgTG6Zpzip2F8/NzlwMAgEBYE1GxTqtEaA98p0Wb4ea6KS6Wii5bd80IpelUKTwKbnQN8Tf0+/1si38AACAQbtDl5WVU7qNibSXi1QwGg1SAa0km8SGnp6eLgYtlnsqlqDNnvQW+gsPDQ82DAAACYeWlGVOKbeepjdRgFVZLR/Gv2u12fB3xCZnnyfz8gae25WazublVpCL7pRy40SbZ91jXSuIAAAiExYi6darBb9WUoeUs28WIzfhXG12TN4PZbJYybQqHEds+2YI3Ho8Xs7xGKRWbAxdpcDqdOs8BACrEwvT/I6rsVQ8eldCbu7i4OD4+Xg6Ng8Gg3mk8LecYnv5lq9WKQPX169f0n4eHh7O5+PPff/89mSvz+FVpEABAIKx2RNEkmL/MIxRdX19HFoocHv9ZieXdNyRFvsXsONXqGRvxVU9RAACBsJKiCl7IvPx8+W8nUuVQaf1+3ywyAAACYSXTSLvdNn0orOz6+vrw8FA5AABU1PZOKjMajVae9BJotVqPj4/SIABApW1pC2GF1hVsNBpR8/769WvUvBtz7/lXaT6Sm5ubX79+xZFu89g8NuHq6srS8wAAAmH1pHXhSrt7Uck+Ojr6fFU7RccXW2/G4/GPHz8Wk5fAhxwfH19cXCgHAIB62K4uo6PRqGxpMGJbVK8f/ytDw0t8fmxlscXY+jtbHdlyrVbr/v5eGgQAEAgraXnlt6Ls7u4Oh8OoW0cem06ny2vx5RRbj31I4TD2KvZtqy6AOPz0RaRs7I7wRhS8u7vbttMDAEAgrIlutzsajQrPgefn5xE8om59enpawrp17FVKR7GfNa76P22VjT8sjjTCoVgoCgIACIR10263ix0yl5qhQr/fr0SJxX6mHS629XK9Op1Oagt9u1U2xcKIQJGFtvnWMBwOUzmIggAAAmGF9Xq9m5uboraeWqKeNkNVSOzzYv8r+u0vDiGNz3z/aMlIg5GFUjfarbojLA789PTU/REAQCCsfBq8vLwsMArWo4Wtcn0pDw8PU2Pg5xs5Ixelz6lK6+5qIipfX19rGgUAEAjr43JOFNySWLgYohki26x36tSnH16nqXciOaf2wMjPlpgHABAI62MymfR6vfzV61pGweVYWJ7wsIg02RrxFlPvFD5D7GqezqkTyVl7IACAQFhD3W438xav57bkvCn2YNO6HYVHmqfJKsJhxNHSthxGbH66q/V+ZwEAwPv9u5ZHNRgMZrNZzmCwhZMxRsa4v7/f39/PWdSptCPSlK00Yq/O59J/RpmMx+OfP38WMqFR7Ex8O9++fet0Ou5xAABsVyCcTCY5lxyMmvf2NAw+Exk4slm32825qkdkrfh+Sz7FS0Sy/tyzPZ/M3d7exs+Hh4dPbqU19/Xr1/hpBCAU8rhZvpAbcwoHyCnuRXFHerGaqnDYxkA4GAyybev4+Ng65ldXV5lnc42vOEq+ck2yqZqo1Q7K72bu169f8fPz726e3gSicnZwcBA/hUbgPWazWdyI0qvkFyPfytLtKKolZhOgboEwPcWlwcxSOeTMhGdnZ4v+mcBqIurk7E/xojKseBn3rp8/f2bo6RAVu+Xpr6NOdnR09PmRvfGxG+3AHwl2LcOPUyEU+41H3TrPiRclJvm/X9yO1vj+ZbWAVHh7Wlwg379/j9tRhvE4qc4cFarF3+zu7sZJe3Jy8snzNsNl7uJas8d6ydb8kiYU5anMt9E01SdsQoZ+4MUeYBmGPS8mOirk8Es7tVLsWFpGtWx34HU99bZqkEVa37X8j9fFPG1FKfx6bLVaRVUqYrtR/uXMNk8nzyvbZb6ui4ukVrOMPjw85BnMFhWpq6srbxOeiTLJWcUsvGUDqmgymezt7e3v7xf4Jr6QxVrjeHu93s5cHH7hjVSviR1rNpuxk/E1uctRe+mqLPB6TFEw/zuyp1f62dlZ5vn53in2anHbbLfb5dxJ1qJWgTDbszNqM9s2p+g7c3LOPrQ/f/5U5lChKJhepWWOgnHUccip1lXaEPhagh0MBqkqlnNsPGxJFEzrKmeOgqenp+mijsOvVr66ublJCTbuqOsdyohAuGa3t7cZtnJ4eGhekNdEyWTrOLr20dUgCm4uCkat6/7+PtvNM4603W7Xpu4yGo1SJbJamRbKHAVzvsKOg42bcBz10wF71X2gpLdscY8tdswnAuHL8kwnMxwOnTclKZ+cy12AKPiZKJhtFruoeKX2wEJWAc1Tky62xy+Igu8U12nKTnHg9btm4x6bUq4XVQLh1qXBNGm48+YNOadT//XrlwIHUfBpXTN+bsmXG7wUQxR8pzRxTrYouLhIt6Er0/bcewXCCsjTFfvo6MhJU55S8o4cShgF0yQN2aLg4h38tr2ljgPvdrtezyMKvi3NYpVthZvUSWELm/G39sAFwm0MhNbufI9sjai17BIGVY+COSdpiLrmlryD/22F25hqRMEXo2C2WayiTqKhLD2Gut2u818grDOTiwKiYBmiYJqsT+PYgrfyiIJFRcF0B2632756t6OK+rciQGyGSkfBYqd6iyh4fX2d86pPc9z56qGcUbDAHBg3orgdZe7MFXdg/ZWoOi2ErJ83Q5AnFxXbKljIKl5R95IGoZxRsMBWwfyzWH2ZT3UehywNUgNaCAGqFwWLbRWMKJhzCa/FUYuCUM4ouG2tgl80DCIQbrO4+C078Z5SyvYYUNqIgrWPgl/mIwbLuaBza+7PP/+MR0PckV6rlc6euL29je9RTwpEwYpGwbiKyzmXZroFHRwcxM/059eqSameFj//+uuvyZyTWSCsiXgYZ6guxIPcSVOeUjLpK6JgNsPhMNu87c+U50183HNOTk46nc5H30Y15l6rXI7H4+/fv+eZKxtqEAXzD11eiKu1JFNoxuHHvSjuSCvUhVLbxostHHGAP3/+NF+XQFhVeRZDj0pJVMg0TL0hyidb1e3g4ECBIwpu2sXFRbbJ+pbvJ/v7+8UmpXi4nJ+fR8Vrc5/fn1vUxgaDQY3DYTxAf9vRZtMPkTfy+doPVhSsTRT8Uo6uCnGvGA6HmyuBzlzqCRI3ojhe4XArPNZInvt7XIePvC7KJ9vZG08FBc4mxKlVhntv5vlaXoyCBX4L9/f3BR5+PFCi/As8/Nh6qTpBRIrLduye489seqzKOwukqBdDiygY94Qtqd6U8KQt9vDVADetVrOMbu4N7lNnZ2fGfrzxOj/nyzPjOamrwmcQzbyK14s3k2azWcjh9/v9OPbpdFpsHoutp0R6fn7uiqDYJ3vciwqcQTRqd5mXOV1WVNvg4j5QVI/9pyVQhhsjG1KrQPjt27c8GxoMBk6dwksmT/6HrYqCaer2wpsCQiElkGJw2QJYCqiFzOWDKBhXYtyRipp0JK1tc3V1VWxfidFolD8NphbRsvUUSF0nMi/vgUD4MYeHh3l6jV7OOXuKLZaTkxNljii43ihYksd8u93OPIguha7CY/Bva8ZiIVsVBctwwt/c3GRuBoiqbOEtou98XuSpdSMQftjR0VGeDfV6PbP0PqvLRplk21zUWfUXpTaiwiEKLpyenuacUzS9hq9Kt8xUS/ZuHlEwW2m02+2cW4wDn06nlZiOKHYydtVbKoGwjHL2sS587rvySGvy5Nxi2QY3w2ouLy93dnaKmkS0bFHwy/zVUs6uWZEDy/wa/jWxzwYWUr8omPpslypg5HzTnRoGy9xP4bUAr6mwBmq4MH08JrM17jebzel0uuWXQaTBKIecWzw8PKzBAMJ49KbFqdOj99evX29Hgqiy//HHH2mp2WxzprPRKJizqrF8OhU4dXtJql9lG5zzIf1+P26Dme+91NXff/8dUbDAfk8Frm3z9l16PB5ni1XVbWpLTYXdbjdbcbF+tZw7NXNdeZunvs0wO/+yuO9UpXzu7+/Tcy7DORk5eTgcFjtRvhO7/Aqfuv0N2epDUX0pbSGUdmUOy07UeNmJAhW7ts3bsl1ctVnPbLGeqrp35dQzEEadOP/L2i08e3Je+c9epJU2E8azrTytl2nB6wrlZ4Fwa6NgzupXbdLgIhMKhAKhKLh22Xpl12x162wtvQKhQFjSrFKzSkZ5Xku/HXiurq6KLYqIW1Xp8R/FVfIHsEC4uXco5b87ZWserN8rkjzvQAVCgXBdlaVK9GTJU8lJM+jUTJ7TVSBcr7pNKrNwfn6eeXDIw8PD3t5egYOCsoljjCMtar3sp2azWbfb3ZmLvcq2S7Hd2FzabrPZrMoaJBXdbT5f24isVf55U378+JGnUaJ+42/jYWeOGaoSBSuxhN14PM5Qo0hvaev3RRe+biSr0Iq1oTpHLYu0EneuuMNu6L1RfGwtp3Lp9/vb07i9PS2E1XrxPJ1O8wSnGp+0m65kayHUQvjJKFihAs8z9KPGY/4zVBe1EGoh/NgNqJBNp3aYOrXApMnxK9H+OZvN2u12agcbDAaff8k3mUyazWZaG6CWC42MRqO9vb11FRcliYLVevGcZ266eq+XpZGQEmq1WtPptBKtgpnvSJE5a7ygaDyGLJdaLf+q9+GlxqKitp5iYc6lETch9r8qUfCNqLO/v//Rpa4jGqX+qNuz4GQqrqA3aUWVcBWvd/r58+emN3F4eFjvCkrtD5DKRcHIgXd3d5XrWfPR2sJqTk5O6n0C1P4ABcLqPSOL7f11dnaWQkWBK/ysIPY29jn2POci0Rs9nEWzYUTct9vB4pdTLtrOFXWicNK7jJzDMlmL+MoqGuYz3B6Pjo5qfwJ8+/bNVUCpHrtV3PMMgTDSco2XEkmqMt8e2xIIUybMM0DlPfmq5N0OF/0tK5dgPxTRU7NhHOmz+37qGRvHLgil0oiCUhqVy4TNZrNyX1mGHS7PejCOke3JhDUbPrMuW/LupvahVyCsnkajUZKVEiKBpAFppZrmMfZksVd5OkuUQRxpSr9petjq9ozd9BNdLKyW2WwWX9lgMKjQlZjhEbANs97pMkoJlWdm8ne6vb2VlNbi4ODA+S8Qlk5aJ7A8z8tnawD8th/jesW2YospBKYgtCXD5F4rDa8wxcKaSSNC69rOv0Ig3JIj9Uqecj5kt2RdLtyOBMJquLu7Gw6HZdurCGOLfoypwarb7UZEWVdIi8+JT4vPfLqJ2OI2h0BWjoUVanpSCYsMX9FhPEDNpEEZ3lJ9mTdRKARK5d9beMynp6edTicqSaVt64gdG8+9dh95o50zbrXacNio0WgUz/Xr62v90yrh5uYmKmEXFxeG+AOF29/fj2dHUauCCYQgEP6/NBtyt9ut4jSSkfe2Z5gfpT0J46He7/ctfVYVvV7v7OwsKmEqIkCx0mQz2/yWajabbU8/dirhX9t88FdXV6pHsLI0Sk2LdIWqIIbxACWRJpsxdKXGVA8EwspITYVaOQoUgTySudnSq3u7jye6JusKKeEwngwTD2zV5MlOcir0BGk2m2V7S5VhNMSWXKfGiwqEFdPv9x8fHw2wyS+iYATySIPxh8e5COfabCun3W6bprVa9ue26pC3oQYmDVJF6S1Vec7eP/74Y9ObyLCyRRlsyWEKhHVzcXFRqnUpal/aEf+WGwYjnMe3EP/r7u6u9hMWxwFGAL6+vn58n+l0Gsn5+Pi4hJm51+udnp46sSukVGtGZ7jYf/78KRBCabXb7ZKsbKTPwlqY8KJiHlmS2qycGxuNgh/6OobDYT2aDeMx8/74V8XCiZ2px00gvqZshRYJP220qLdRaY3WYgs8z2pAtX94bfRWELevbAfiTvVMttejcQrd3d3FFuNJXdRz5Pz8vPAC35LDrPRdfb21KQTCt+hEuonHzCer6VWcmCtP5SOKtwzt2x8N/NscCBdRsJAg+tudqV+B17sGtukavEBY70D44jO6wLdU0+m09gXu/ZRAKBBWrGpoVNsnK5prb3+IDyx/XO90OoU0vFxdXRV7xn4++W9DIHxj6wX2UCjwu8tT9Sy8LbS61S+BsMb55I0C2c63VHkaSGv8iipDpw+BcL2MIXzXU/B+ToPhhzQajUXPk7XXVOIDFy1R8YeyNRumfSsqmKUgWuCSKu122/n/GQWuiJMmmylkGM+3b98ybKWuq27EcZnhnc29CCik/pMmmylkveg8xzsYDGq56kYc1NnZmWunWgTCDyeQ6XRa+8lOPllQ6aVXFFSeV/5x4059S+Jn4YM/0xvNMrw7SEuqFJIromJqsbu1fH39fj//pieTyd7e3mg0yrzdPJMSReUy/6FlqDeb5peNivpPUW+put1uIW+p8tx+a/n+dNumsK4JjaQrkwxfDMwlkT+SlWFmjtcUkisq3Z2j2C6jz3pHF9XSm38YT7YTdbHOTT0GNeQpNF1Gt7PLaBmeJoV8a3Hvrd+VVZvO/5uuY8SHRzXy/b3P4jfj9ytd7REI13PXqM00mCvcyMp5AWTuRNrpdEp+lt7d3eVv41LJXtfLuPPz86Ku8czDeLIdVz0yYc7xXQKhQLio8xQ1TGMts9OV8BVVbTJhzlmI1l75jIfCuk7s+JzKPWIEwvU3G9Z+qGGc6CWfSTLzfNlVqVvkb2uq7tuysgXC9PUVOItstq8y58Vb9VVSMr8mEAgFwgKfs0W9gc320IyaVaWnvKpuBePu7u7FHBiH0+/33/MCIn4nfvPFD1nMpiEQajkcVnGZhBerAhVaTiBnvTnuAtU6JzWcVjQQLl5hFnUTSMMaMxR+zpHA1X0xn3+8tEAoEBb7tC2kkT/zLbeic3QXMhXt5wPhi8NiP39zWJ5hNXPLtkBYdtPp9Pz8vAwrxb2z8hcJsIrvq+rah6qijzeBcBMlU+DkSRnmSc//prlalbD83b8FQoGwbGEg51uqzMMmK/citajn0WcC4XKPm7WfSxk2IRDWR5wZEbo+NG51c0/6qOcVuw7sumRY/WahoiWWs1dzRXuNljwQvvZqM48Mk80UMuS1/O+/iu02LBAKhOV8S5Whn07+GQQr0SerwG7Dn6ldPHu+v/FEe7ELaJwMUYl6Z515+f1maStFAmFJbfqNVM1mtSrkxl2tzqJPxV0s2y27osO0yh8I82f7zK+xC6lqlDYWFhsFBUKBsPxvqTbdzl/Ii/vSxsJio+BnktWzh/vbFbl1nXvPqvTlzITWISypP/74QyGs5ubmJs+G8qyjvQnpFVeebd3e3jonN1pdKGpdivF4vNE1oyPr5q9zpDUYm81m/KEkX3HsSexP7FV5dgneeJ9SyLoUDw8P+/v7G13Tbzqd5r/T9nq9uM3mWaP1Q7tU0aWGZ7PZ05NkOBy+f2quZ2/oFp3R0rn39ncUW3naeS32IfakbIUjEFIrOdeurfQqlAcHB86WekgLYBa1LsVG14wuJBOmSkMcVKr05F8Oe3Eri7KNfYg9KWHVAd6o+xb1lurm5iYumcvLyw19flHrbZydncVxNZvNbO+7l41Go729vY0Wb540u/hzp9NZOWnH6R3/9uksffEdvf1P4vefdqsuYaIWCKmVbC/RK50Gv8xf5WarWzstM+j3+0X1Kkytaht6h52W+i2qVKPqk+pA7XY7T1UsthjVvthibHdzra+wUcW+pYqqdlxEG3qVM51Oi+q8nVq30s0h7rcZ3lXFFlN7YBgMBkW9HVvjo+rpbfzz5+dH33o83eLNnEAIlVf1O2O2nFbUkJLtrITd3d0VtS7F2dnZhro1Hh4e5hz1+qJ4cqeqWHpPH3WjtRxp3EYiAaaWwCSqX96hUA8FvqWKiyhuR3GdbuLD4zZb4Aw66b6R7rfpphE3kLiNrKVOEre1KLT0Tird6yrdHvjM01ds8Vj5ZGNv6kiy+M/3jOd/NlqnbIHw3+5Z1Em2hruqj+fJFmgFwszSXC/ZWrSenVTxgIwdWHsojedoHFR8eBmuu6gHjOae/X1UfHfnvn79+ux//fr162HOOEC2SnpLFRXxCC35tx4XaeSZ6+vrtYfSuMXFJ5ek19947tnORMmno14eHvL333+nG1H8rPqr7ZWtMGomEvJr/+v8/PydQ2dju2XLgQIhfFZc1dXtOGqul3qLOlA87J++v8xZO4kHZ1SY1v4SPWqWp6envx2qUZRF2NPVE54q/C1VRKO1r2RzfHwcx7W5vqmfP/BU2qWNH8X666+/PvkJjUYjToCTk5PC141bF11GqZtsIe379+/VjbLZHhJmrylK1IEKXJei2+1uoqqUxvFrdobKub6+LmpdislksonZUNJQyUJmVWW17+vpKfHRf/5shrO0fPdH02CZ38ULhNRNtgQyHo8r2gEsZxtL1Wffqbp4hhUyW/qXjQ3jSZWwMqyCBXxIWpeiqLdUvV4v7khrf0uVZlWtTTNRjT098Z5NMPPOf/74+Ljofnx5ebmzs/OhD3m20QKXERYI2Qo5E0gh4yI+aTQa5exDIhAWLmoqTxdNyn++bWKymfRsLnZqB2AFBa6eGmkwbkdrH/sXxzKdToua0Iv3f01PM9hqp8Hd3d3Tia/b7fb7h2Y8rTHGnpTtJYJASA0DYbbL7Nkip+UXUXBDE6+9SF+a8kidLQuZ8W9za0ZHDayogwI+UzUvcF2K1Laz9rdUaaikzgslfxmxeBOxcv0tKplPX0e+s0Py08XoYx9KeJ4IhNTQ0dFRzohVlUyYf1dzfhG8pxJ2d3dX1HNoQ2tGp4Pa8lgYVZMoAa3xVEuB61KE/bm1f2zqvLDNsTDuyddz5dy9p2Mo4qm08lj3q6urpzMVvd0hOc60pz2z1j7FkUAIL9vQGtlv1HQ3MTJh7WWSOQ1GJVXTTQk9GwiR2YbWjE6xsMBJdIpyfn4eRx1VExPtUNHwUODqqRuabGZxmy1qEp2ipDGiJX85lfr3LvqRpbHur50DwydePN74luMmnH7h5ORkNBo9W0j2WXN0ahsv6YjTR0pp0wN+UpN3jRXSF+Xi4qKERVHUK9i451b3/MnwdrPwYyz2JWW/39/o11fvelhc0cvX16YrYTmfGpsuwHjCVuuOtOkvtwwFUmCKSCFhc4/geo92Th0g8z9DYxOf+V6Wh7Sstwq33Eq80afe52khpJ7iwsufglKfgWfvh4qVdin/bKgrTMdM/lBRYJPaaDTaxDCeRXSJSliGN2uZxTWV6kAR5l1f1Exal6KQTT88PDSbzQ0tNB956erqKl22Nes1kzr9Fjhz7CdrKc9el8cJEE+lOBM+02gc/zY+IT7n6emU2k6LGjT7TgIhtVVIL5T0XNnf3y88Fp6enm6oM8x7kobpZKri4uKiwH5NGxrG8/QqWHQZqG6b4SIHTqdTAwWpsWLfUq2wkMBHjy71bI+flb6Qh8NheuNW6fvqlydjDZ6+OozKW0qGYW9vr9vtxonx2rvL+Pv4v+nNe/on8een1b/U9l6NzsM6Z5awr1pUpjf99jc+P72yqrdip4F+sR9Fhg6ixT5pUhf5GlyG23bvLbYxLduVEpmqKi+z09v38vS402VUl9Fsilo9dZHcsj3FouQrkaniDPxQF83ydxl9bbTR57+O+ITK3WH+uesKYMWKalBJOpfHbqTVgWpWwmXoM5YhfsfjsyQnUqWHDm5zIExvEwrsiJj/VUKcq6WqjaVqxMqFIBAKhDUrkGIf32nGpswVwlK1HH40BNYgED57QMQ5EDWrt58R8X/jd+I3q1752clw5+Wpm5ubHz9+FNKR76M3grgX16N70unp6dnZWXkK9uTkZC3hbTabff/+Pc6l8kxwGjdoXdqoqLiOxuPx7e1t/MxzTbVaraOjo7gbGBAIPDOZTKK6GJXGPLMApGDz7du3ek+Bw2sEwkxX9WAw2FzHdOGwWpnw2S04Cvbr16/xszH32nuEiH+/fv3K9myQBiGZzcWl99dff83+60OpL67ruMZbc7If8BmpPhBub2/Tf77/36ZqRtyI/vzzz/jpkY1AmMNoNIoQUvLl6T6aXk5OTjKv8lf7TFgPTxf2AQBAIJQDH+p9mOfn55WbSfLm5ibz4uzbIK3gZF1sAACBcKtF2Oh2u7XPgcth4Pr6ukJL66RlIbbta9qcTqdT7FSuAAB8hnUI1yCtWNJut7cwZsQh7+/vx+EPBoOqJNj7+3ur5K3F1ZxyAACoLi2En8pCEQJLO8NHIQ4PDyMhVKL3YHxx25nh1yItsKscAACqTgvhillib04afObm5iaKZX9/v/xBK608W4ZVCqsl0v7dnKIAAKgBLYQfo1Xw/Y6Pjy8uLiqxq/GdVndRkJziC42vVTkAAAiE20hsqHGEEPVrE+8BABAI1+zy8rLX6ymH1TQajbu7u0oMLBQLqxvpAQBYgTGEv08IzWZTGvyM2Wy2t7cXobr8u5oGyD0+PpqGNC0oEkUhDQIA1JgWwreMx+Nut6sc1uXw8DAyRoV2eDKZxAkQgXarvqZOp3NxcWGheQAAgXCrRRKIQKgc1itixnQ6rVzYuLy8HAwG9V6jotVqRQ6Mn85SAACBcNs1m81taxfKKTJho9Go4p6Px+Ner1enZHh4eHh+fi4HAgAIhPwjDRosW41/d3c3Ku4HBwdRcY8/vP3LNzc3k8nk9vY2/lDa6FLdTJjMZrOzs7NKDIx88XQ6OTnp9/v6hQIACIQCYRnTYISlqLIfHx+vpcoeRxTR5fv376Vq9qx6JnwWDsfjcZlbDtd7RgEAIBBKg+vX7/eHw+FGq+xxgJFeRqNRGcr8/v6+fvlkMplE9i48H7ZaraOjo06nU4/UDQCAQLhZBY4bPDw8vLq6yhyNIq50u92bm5sCyzyyynQ6rf2pFedVlHPqxLuJcyzOn4h/BwcH8QcNgAAACIQf1uv1ChkPdnx8fHFxsZ3HXp4SKIPfJvPGnIICAEAgXLOIQ/mXni9bECowFl5dXXU6HechAAAIhLk9PDzs7e3l3GJp1+KLotjf38/fb3ZLOo4CAEDZ/EsRDAaDnJvr9/ulnUklJdXYw8zbjQhakkluAABgq2x7C2FEkWazmW1zFxcXx8fH5S+W/H1oNRICAEB+295C+P37d2lwWf7xjZHMx+OxCxIAAATCfLJNo3I8V6GSyb/DP378cEECAEBOW91l9Obmpt1uZ9jQ7u7u/f19FYtob28v5+rqpjgCAICctrqFMNua7MPhsKJFdH5+XstvBAAA+LLlLYTtdjtPAql0Ie/s7GTb1vX19eHhocsSAADysOzExlU94eTcfy2EAAAgENZKq9Wy/wAAgEAIAACAQLg1JpOJ/QcAAATCbVT1cXE599+MMgAAIBBmcnBwkGdDl5eXFS2izHu+u7vrmgQAgGwsTG9h+rc0m83ZbJYtDVa0lAAAoKK2uoUwWwfFh4eHXq9XufIZDAbZ0mDodDouSAAAEAjzOT4+zrOhy7kKlUzs7Wg0yrnFo6MjFyQAAAiE9QwhvV6vKpkw9jNzk2ar1TKjDAAACIRZHc7lzISDwaDkZRJ7mL+D63A4dDUCAEBmWz2pTDKZTPb393NusdFo3N3dlXBGzYeHhyiKnOMGk1arFQXiagQAgMysQ/hPGsk2kjCJxLW3t1e2aWYGg0HsVf40GK6urpyHAAAgEBbj4uKi0Whk3ujl5eXOzk4ZRhWmPck8hczC+fl5/sIHAAC+6DK6MJvNms1mUVvvdDoRSjN3Ik2LYYzH4wKL/fj4OA7c6QcAAIXQQvgfjUajwGQSqWxvb29nZ+f09DRy2qZzYGwlthVbLDYNFlvmAACAFsL/kX+5hTfC0nA4XOPgxji0s7OzQoYIvnaA0+nUKQcAAAKhTPj7+HR4eHhwcNCae/uXJ3O3t7c3NzflSYDSIAAACIQy4baLZHt9fa0cAACgcMYQvuD4+NiyeBvS7/elQQAAKAkthK8qapX2Gru6uup0OsoBAABKQgvhq3Z3d6fTab/fVxSf12g07u/vpUEAACgVLYS/N5lM2u32pleDqLGLi4s1TpcKAACsixbC32u1Wvf398PhUFGsUHSPj4/SIAAAlJMWwg94eHhot9uTyURR/Nbu7u7d3V2j0VAUAABQWloIPxxy7u/vf7sSoFKKUpIGAQCg5LQQrkhr4YtR8Pr6WloGAICq0EK4evi5u7szQC45PDy8n5MGAQBAINwiFxcXEQuvrq4iIm5hKk6Hf319vYWHDwAAAiH/6HQ69/f3EY22ZN3COMzUJKiBFAAAqssYwo14eHg4OzsbjUY1O67hcBhRUGMgAAAIhLzLeDweDAaz2ayi+99oNC4uLg4PD32VAABQM7qMblyn05lOp49zkawqsRhDxL80ODDEzkuDAABQS1oICzObzcbj8Y8fP8qwdkWr1To5OYnsqjsoAAAIhBQTEW9ubm5vb+Pn5rqYRvY7PDw8ODiIn+IfAAAIhFQjLqaUGHHx7d+MmJfWA4yfIh8AACAQAgAA8D9MKgMAACAQAgAAIBACAAAgEAIAACAQAgAAIBACAAAgEAIAACAQAgAAIBACAAAgEAIAACAQAgAAIBACAAAgEAIAACAQAgAAIBACAAAgEAIAACAQAgAAIBACAAAgEAIAACAQAgAAIBACAAAgEAIAACAQAgAAIBACAAAIhAAAAAiEAAAACIQAAAAIhAAAAAiEAAAACIQAAAAIhAAAAAiEAAAACIQAAAAIhAAAAAiEAAAACIQAAAAIhAAAAAiEAAAACIQAAAAIhAAAAAiEAAAACIQAAAAIhAAAAAiEAAAACIQAAAAIhAAAAAiEAAAAAqEiAAAAEAgBAAAQCAEAABAIAQAAEAgBAAAQCAEAABAIAQAAEAgBAAAQCAEAABAIAQAAEAgBAAAQCAEAABAIAQAAEAgBAAAQCAEAABAIAQAAEAgBAAAQCAEAABAIAQAAEAgBAAAQCAEAABAIAQAAEAgBAAAQCAEAAARCAAAABEIAAAAEQgAAAARCAAAABEIAAAAEQgAAAARCAAAABEIAAAAEQgAAAARCAAAABEIAAAAEQgAAAARCAAAABEIAAAAEQgAAAARCAAAABEIAAAAEQgAAAARCAAAABEIAAAAEQgAAAARCAAAABEIAAACBEAAAAIEQAAAAgRAAAACBEAAAAIEQAAAAgRAAAACBEAAAAIEQAAAAgRAAAACBEAAAAIEQAAAAgRAAAACBEAAAAIEQAAAAgRAAAACBEAAAAIEQAAAAgRAAAACBEAAAAIEQAAAAgRAAAACBEAAAAIEQAAAAgRAAAEAgBAAAQCAEAABAIAQAAEAgBAAAQCAEAABAIAQAAEAgBAAAQCAEAABAIAQAAEAgBAAAQCAEAABAIAQAAEAgBAAAQCAEAABAIAQAAEAgBAAAQCAEAABAIAQAAEAgBAAAQCAEAABAIAQAAEAgBAAAQCAEAAAQCAEAABAIAQAAEAgBAAAQCAEAABAIAQAAEAgBAAAQCAEAABAIAQAAEAgBAAAQCAEAABAIAQAAEAgBAAAQCAEAABAIAQAAEAgBAAAQCAEAABAIAQAAEAgBAAAQCAEAABAIAQAAEAgBAAAQCAEAABAIAQAAEAgBAAAEQgAAAARCAAAABEIAAAAEQgAAAARCAAAABEIAAAAEQgAAAARCAAAABEIAAAAEQgAAAErk/wAH/VZiTI7bmQAAAABJRU5ErkJggg==;" vertex="1" parent="1">
          <mxGeometry x="420" y="600" width="70" height="70" as="geometry" />
        </mxCell>
        <mxCell id="sAA-gYXfA-SkIx9lmI3N-8" value="" style="edgeStyle=orthogonalEdgeStyle;rounded=0;orthogonalLoop=1;jettySize=auto;html=1;" edge="1" parent="1" source="sAA-gYXfA-SkIx9lmI3N-3" target="sAA-gYXfA-SkIx9lmI3N-7">
          <mxGeometry relative="1" as="geometry" />
        </mxCell>
        <mxCell id="sAA-gYXfA-SkIx9lmI3N-3" value="Spark Receiver" style="strokeWidth=2;dashed=0;align=center;fontSize=12;shape=rect;verticalLabelPosition=bottom;verticalAlign=top;fillColor=#ffe6cc;strokeColor=#d79b00;" vertex="1" parent="1">
          <mxGeometry x="610" y="590" width="150" height="90" as="geometry" />
        </mxCell>
        <mxCell id="sAA-gYXfA-SkIx9lmI3N-6" value="" style="shape=image;verticalLabelPosition=bottom;labelBackgroundColor=default;verticalAlign=top;aspect=fixed;imageAspect=0;image=data:image/png,iVBORw0KGgoAAAANSUhEUgAAAgAAAAEKCAYAAABkC+0BAAAABGdBTUEAALGPC/xhBQAAACBjSFJNAAB6JgAAgIQAAPoAAACA6AAAdTAAAOpgAAA6mAAAF3CculE8AAAABmJLR0QA/wD/AP+gvaeTAABj00lEQVR42u2deXhbxdXG3zNXspM4CQlbSLwm7A2ExYDRapGE0LAVKAbiAAVKw0c32lIKLZSl0Ba6Ai0tTSlQIDbgFijQpkAIsjYngEshCWUpSWzLCSEsWR1b0p3z/WFDs8i2ZN2RZHl+z8PzEEu6d+7M3DnvnDlzhqDRaDQaTQasmzdl3ziJ+cSoBeFAAGUAtgHYAMYKGPQ36uEXypuiO3Rt5Q+kq0Cj0Wg0QyE6v7RMMn4O0DkAigb5+mYmvkPE6E4tBLQA0Gg0Gs0whAGKziv7uiT8mIBxaf68gyEvq2xYt0TXpBYAGo1Goxkuxr8ORru97F4CLs/gMiYD11c2RO/QNaoFgEaj0WjynFV104vG27c8wuA6a9QE/7KisfO7umZzg9BVoNFoNJpUGGffdKdlxh8AiK7uqC+7Sdes9gBoNBqNJk/pqC+bz8AjSi7OdFlFY8cDupa1ANBoNBpNPhn/eWUzmLAMwGhFt9ghwM6yhs5/69rOHnoJQKPRaDT9T84BYuC3Co0/AIyWhIY1l1SN0jWuBYBGo9Fo8mH2X1/+JRA86pUGHW6LJW7WNZ499BKARqPRaJLy7vyDxhej+20wDsjSLU1B7C5b1LlM1772AGg0Go0mRxTJ7q9m0fgDgCGB+1fVTS/Sta8FgEaj0WhyQEdd2Wgi/lbWb8x0+Fjb5u/oFtACQKPRaDQ5mf7jbIAm5eLWRPjhmguqqnQjaAGg0Wg0mmxPxBkX5/D2YwyR+KVuBcVCS1eBRqPRaHZm42X7jtvRPeojAPYcG6jTyhui/9Atoj0AGo1Go8kCXTuKfLk2/gDAwF06N4AWABqNRqPJlmEgMTtPinKQETP1YUFaAGg0Go0mSzPv2XlUmh+svahyqm4VLQA0Go1Go5B186bsC+DwPCrSaGHKu3TLaAGg0Wg0GoXECUcj7wLE+Yy2eVPO0K2jBYBGo9FoFEEwjs7LcpH47boFU8boFtICQKPRaDQq5trER+Vp0Sri28W1uoW0ANBoNBqNipk246g8Ltv3Oi4sO0i3khYAGo1Go7Fy9u+DDcAheVzEUSxxj24pLQA0Go1GYyFtkyYfDKA4z4s5p2N+2dm6tbQA0Gg0Go1FGML43HAoJzPuev+iSSW6xbQA0Gg0Go01TB8m5SyPJYqu182lBYBGo9ForIDoiOFTVr56zbwph+lG0wJAo9FoNBnDRw6jwhYZZPxGt5kWABqNRqPJgDWXVI1i4GALL7mRCAsAsELBMrttXul5uvWGhk1XgUaj0WhETE4HYFh1PQLeKF8U/WN7fdkMAF9XVW4C/WrjZfsu3u/+D7cWehu9O/eg4tETdhwrIY5hwVUElDFjLwIVAbydgDZJvEaY1FJmRl+lJphaAGg0Go1mEENqrfufQW8AQA+Nur6Yu78IYLKigpfu6B51I4BrCq1NXl1Qbd9v68YakJxNoNlA9/Gy19iD+DOhhU+dLAyAmMAC6BBlH7fX898I9NPyhui7/Yg0jUaj0Yx02utLfwnQdywTAMSXVC7q/DMAtM8rnwfiBoXFjzOLYyob21cN5zZggKLzy46Q4FkCNJsZtQDGZnhZE6A/mkXGt6c+uLZbCwCNRqPR7C4AngfoZKuuJ6U8turRda99+u+2+rKlBJyk8BGayxuiJ5HSmAPr6bxgSrlJxmwQzwZ4FkCTFN3q5QTbz5zWuGbDp3/QSwAajUajAYOOsnBGmIhvHvPmLn8h8XWw/DcAu6JHqI3Wl9WjIboon+v5g7r9xu6w208UELMZmG0CxwJMWZiTn2Cj+GPsw2zyI6E9ABqNRqPBfy+atH+Rad9goZpYWdEY3SOmoG1+2c+IFa7VE96Px4oOO7Bp9eZ8qds1l1SNop64U0DMBvEsANWwMNgy7aZhfL+yMXq79gBoNBqNBvZE8VEgaZ2RIbye9D4l8mZzmziPgUo11g0HFNljtwD4Vi7rs62+YhogZwvQbBlLfJ6IxuXLygQJXLWqbvqvpjetimkBoNFoNCMcIvMIix3CK5L9ccrCdV1t9aXXEOhxZTNc4GvRC0sfKHuk8/Vs1V/7+eUHstEXuAeeCch9esvC+edmZxwwtmjTHADPagGg0Wg0Gku3AArCG/19VtnQ2dReX/qClQGHu2GTUtzDgEdVQOD6ugP2ixfZZzLzbAJmATyV+gz+sBB8jBlaAGg0Go0GAM2w9HJG/wIAAISJr8ve7yg6ephdHfXlX0JDx4NWXG3dgiljEtsMD8CzGZgdB2aAWQzjILqDAB0EqNFoNCMaroPRYS/bCmC0RZf8uKIhus9gX2qvL/8xwD9Q+GgfCRsfWvZQ50dDqZN2e8XRwKcJeNgNYFTh6D36Q8Wijv/THgCNRqMZwbSJyYcI64w/GEhp7Z3ifBvbMQ/AVEWPto808SMAX0upHnYK3OsAzybIiZ89UYFB4E8AvQtAo9FoRjRkCGuPACasTOVr5U3RHe3zyr8D4ieVPRzTFe3zyx+sWNTxyu4frb2wcjLJxGxiMQvg2YAs7TX3XPBtzqB3tQDQaDSakS4ArA4A7GcHQDIqGjueaqsv+wcBpyp6PAPMj0bnl84HEDUlHyNIzGZgFqQ5HSB8llR/BCGFeEkLAI1Go9ESwNoAQHPgAMA97m7SN2HwTKhbY58mmVoAgIjAusHfq3q4bU2fWNNoNBrNCMZKASCLzZ60DuSpeKzjPSb8TDdDluQeYeGn/68FgEaj0YxQNl627zgAVRZecs3+TRu3pfsjEcPtAFbrFlHODjL4T1oAaDQazQhne1fRkbB2O/iQsu+VN0V3EKcWra/JaPZ/187bIrUA0Gg0mhFrEMjSAEBOIwBwDxHQGP0nmJ/WraIGBj6IxYpu3/lvWgBoNBrNyBUAFm8B5JWZ/Nxk+1UAduiWUdLW39z9lEQtADQajWbkTguPsvJygimjA3imPrp2LUA/1Q1jsfEHHq5Y1PHYHu2lq0aj0WhGrGWw0gPQVRaPZhzI1/NJ8c8AvKsbxyqNh7dj8aJvJBVsuno0Go1m5LHu4ikVACZaeMmV1AQz04scvPi/PcxCBwRaY/y3gsUXd3f9awGg0Wg0IxgzYXEKYMZKqy5V2dj+AgN/1a2UWROz5HmVje395mXQAkCj0WhGIJItTQAEFrzCyuvZpPw2gO0FVu0fMfBXMIJZmP1fXfVo598H+o4WABqNRjMCIbL2DACW6aUAHozSR9d1MHDrMK/m7SD8E6BrpJDV5YdE97ePlReDMEWx+f99ZUP0rkFFln4NNBqNZkRiqQAoTpgrrC7gtvhevx5v33wJA4cNkzqNg7GMCC+yoKVbe8Yvn960KrbTrJwS840HAD5QYRmeK1/X+c2URKB+BzQajWZksapuetE4++atAIosuuT6ioaoklltx7yyWia8lMf2ajUBSyR4SSJe/Hx/AXcA0F5f/mOAf6CsJMT/Me1259QH125K5evaA6DRaDQjjL2KNx0uJRVZeMk3VJW1vDHa3F5f+jhA5+dH7fEGgghI8BKblItLH13Xkcqv2uaXfgms0PgDHxLRmakafy0ANBqNZgTC0uIMgMwrVZaXbHS1TOBUAsbloLo2A/ATsCTBcsnUxnVvpXuBjnlltcz/O4VPAd2C+cyyRzr/m86PtADQaDSakSYAgJMsvZ7ACpXlLX8o2tk+v/wWMP8iC9UTA9AC0BJBcklpZ+er5EdiqBeLnl96iCQ8AeuWW/ZsTqbLyhqjLen+UAsAjUajGUF0zCv7IgMXWWqBTH5Ddbk/KNn/7v23brjE4uyFfXoIKwBeQkRL7CIeOODhDZZsP4xeXLqPTNCzAPZWVS/EuLm8saNxSL/Vr4NGo9EU9GyfovVlx4NwNjPOAXCIxbdImEW2cVMfXNudBfFiVUBgOxhLAFoSs8VePOjhDR9YXda+QMsXAHgVtu2iioboRdQrYtJGewA0Go2m0Ix+HYx2W4VDkKzrAM4BUDY0E5ESb2fD+AO9AYFt88sWEePCNH+6DaBlDF4CiCWVDe2tqkVXh33LH1Uaf4DCsU+KvzxU468FgEaj0RQIHXVlo6VNzhYkTm8HziLI/Tkrd+YV2XxOU9q/a6P46QAmDOSVAPB67/Y8uWTj2MnNxy1sjWetLerLbwD4YoV1vjZmxM85eHFHTyZX0QJAo9Fohq/R31va+XQCnc3AHIIYw8jy2i6Lldm83bTGNRva55ffAObf7vRnScDrDLwI0BLbWDM4ZeG6rv99vC5r5WufX34+mG9ReItN0pSnHtSQ+bKFFgAajUYzjIjOLy1jprMAnMVALYFyOo4zzDeyfc/yRR2/a68vsxFTFQSW2WPxpZOb3t+Y87aZV+qQzA8q1GAJZnFe1WPR/1hxMR0EqNFoNHlOW33FNECeQaA6gJ35NHYnYFZNa1jfNtLbaM0FVVWGiC8DaJI6tUVfq2js+J1Vl9MCQKPRaPKMnSP3JeNsAg7N06JuLm+ITswkEK0QeK9u2l52eywC4HPq7kK/rmjo+I6VV9RLABqNRpMPRv9miPa3K5y7R+7n9yyNV4x0488+2DrsPU0AKTT+WFwe77jG6otqAaDRaDS5Mh47b9d7F+cRyQOGmTVdMdLbsGNK6d0AnazwFqt6aNQF1ARTCwCNRqMZxrx/0aSSHmmbS0xndwCnEeReDAzPeXSWdwDkG+3zy68G85UKb7FOEH/+4EX/3aLi4loAaDQajWLWXFI1QcTiJwvQGTETZxMwtiAejDBiBcDaC0pPA/MdCm+xgyTOKXu0M6rqBloAaDQajQKiF5fuYyZwmgDVcSwxB6CiQlsst7H55sg0/lOOEYIeA2AougWD6NLyRzuWK20//ZpqNBqNNayun1xpkDibJJ0jE3ARIAo4Qm79lMZ1H444YTe/tEwyPQugRNU9GPh+5aKOx5QLOP3KajQazdBpq6+YBjLPJ6ZzAByHrKfiyxFMz4+0tv6gbr+xO5ieIWCKunrF/ZWN0Tuy8TxaAGg0Gk2arFswZUx8G51LTJcCshZMIymnygpmNIgE3zWS2pzrYETtxY0EHK1w5v/StsReVwLRrDyTFgAajUaTItHzSw9hg65ObMMFBIwfIanUJBGWQeIplvRExWMd743ItreX/ZKB0xXe4h0Rx7nTm1bFsvVMOhOgRqPRDEJbfcU0InkbGOdBXeBXPhED8BIzP8mG7emqR9rWj+T2b59X/lUQ36PwFh8R4ChviL6bzefSAkCj0Wj6oaOubDQX8fVguhrAqAJ/3O3EWAzCU4ki29+nPrh2k+4BQMe8ss8z4Rmo85jHiDGnvDHanO1n00sAGo1Gk4RofenRElgEVpriNdd8BPDTEOIp6uEXypuiO3TL72T855cdyYzH1NpKuqK8saM5F8+nBYBGo9HsPvDXl50jgYcBjCnEx2PCUwbzk6XxzoCKFLOFwJq6qgPAiWcAjFd2E6afVjR2PJirZ9QCQKPRaHairb60joGGAhsfVxPwrGTRVNHYHh7pB/gMqpDqykazPfEkA5XKbD/w14pDO27I5XNqAaDRaDR9rJ1XOpNAhWD8GcArzHjSZsgnSx9Z97Zu3RQr7maI6Nt4CMCJCm/zin2svJhuhtQCQKPRaHLM+roD9osRNQ7jcTFBQDMTPUkGP1X+ULRTt2r6RN8t+zETzlV4i3YpjC9MWRjtyvWzagGg0Wg0ABJ22y8J2H+YFbsLwPMMflLE6dnypujHuiUzsMzzyy9j5uuUeReArYJxRr5sq9TbADUazYin88Iph5pSvAlADIPifkKgJRLy2TGjep7c7/4Pt+oWtMD415d7AX4eQLGiW0gIOrvikY6n8+WZtQdAo9GMeExpXAFw/hp/RicE/42Zn9w4dnLzcQtb47rVrBaA/JRC4w8GvlOZR8ZfCwCNRqMBQOBz8jAs/h0CnoTEk2WPRl/+X+T+Ot1gFrJu3pR9E1L8HcBEhQru95UNnXl3doIWABqNZkSz9sLKySzNyjwpTiuYnmTQU5WN7at066jl3bkHFSdox5MADlR4m+fK13V+Mx+fXwsAjUYzsmf/HJ+W46X/dhDdbTPMpikPrWvXLZIdGKD2vbvvA5Nb4W1WxeNF55MfCS0ANBqNJt8MgUkTKHf2v4eZr6k4JPqXXO8JH2l01JffQMwXKhQYH0hpO/3AptWb81b86m6g0WhGMm3zS2cR05Icy5C1gPgTJO6veLRDL/KrNv7zymYw4V9Qd7KjCUEnVTzSEcznetAeAI0mT/Ad7ztA2uUhUtBeffr8E5sNK/1+/6ZCf/a6ujpj/fr1Q8q5Pm7cuK7Fixf3DHkQJI6anOu5EFUBfCsEbmqvL/s7AQvLDon+U3sF1CCJjyaQumOdCS/ku/HXAmCE43bWPgnwWXtORvBmqCUwXck9Hd5VIEweaCoE4CMAa5n4pUSi6P7ly1/coKoOXA7vFUS4N9lnwoaKQCDQoXLUd7lqfX1uyDkJyLLe0Yk/q4pEDHA7vf8G8KitSPwhUzHgdnoDADy7loKXhMLBk1O+hsv7Ohgzdmu1J0ItgS8OtVzvR9/3gcSQZuHbNm07G8BTQ733+jGTV++/bcM2AGPzZEz+AgNf6HinrL1jHv5Egu8vW9QZ1SOWdbCwvUDS7IGibX/M6rYTWonQXWFk4nF4TgD4C/2o10MdDsdoy42/2z0RhM+hd7tNf//tDeBgACcT00/sRnytx+X5NhQsVzkcjtFE6PcwDhmXRykTX253jdvpbSbmpQAuA1A2wNePBnC7GWcrIomP2GOwkmJFqj+urq62g3FYkj6zIpNCSeDIof7WJHtG9z5uYWucgUAevqYVTLhFMq1try9/um3elDO4DgY0GVP1SNt6JixU5wBA7Zp5Uw7TAkCTnwqY6PYBjKphY9vhlr8UJs0Yws9GMdOvPK7aWyzv/ML2rYEMLwljhtX3nDNjTonb5V0EKZbtMRMf1EhyWyb39nq95Uiy15nSMN4lRSWHASjasz/hjYz6BtHQBABjeySydI0Fb8Rjefy6GgCfQSSe7rCXdXTUl92+9qLKqXoUy4yiWOJWBlRlURQ2Mn6kBYAm73C5aucCOGnA4VAIy2e/Ugx9lsfMN7hcPstO5/L5fBOI6bsD3lOypXXgcMws7Rrb7QejfmhGUmQkAEwzef0zUcoCwBRIKoqMRGYeABqqB4CwqteBkBn2sfwXBj4YBq/vZAauFab537b6sr+3zys/i316KXdIFdn0/kYivlvZJAt8blt9RbUWAJr8anPmHw9ubNjy2S+Bjshokijlt60qS7yHf4De5YaBCmxZHXi93nKDEi8DOG7oHguZkQAgTmpkze7urW9meI0dkyomrc6kTzLjc0McZVdY0T5TFq7rIqY7htN7TMCpIH6yY0pZW/v80tvWXFBVpYe3NEWx3f4LAKoOUCKC/HE+P79WjiNu9u+dR4xjBp9xw/r172TGg/EmiO7aaaY/nghfQpK1ahDm9E4WwZnVgWsKMX8tha8eXF1dPaa1tTWjYzvnzJhTsj3R/TcCpvTnHGHAT4wnWNCbIiE/gsBECRxDgs4FwwXA3L59e0aBYAQcuWfF0X/Tej7GjCQLR6uamprMoXtGfNNAsiTJR7dBiuaBR7DEaqu659bE+N+Os2/+MjBEMZI7poDpekMkvt9eX76UIRduHHvAU/q8gMGZ+uDaTW31ZT8j4HZFtzhl7bzSmVWNnUu1ANDklOrqajsx35JiPJ3VAoCSGnWBl0Lh5l2CcWpqahbabcVvg3HAbt+e4Ha7J4RCoU8yEyK2WwAek8I3jeLisdMBvJLJ7brGdS8cQHQtYxLfCIf9ryb5rBnAnS6X91QwbmttzWxAZ8KRSaTTijRbMYkHgDOahRvgpO5/CfFYZJl/Zbbej+lNq2Id9WWXMhBEkjiH4eAVAHg2gWbvv33D++3zyh+AxJ8qHut4T49+/WMfK3+T2Ca+if4FeoauGvoxAEeedhjNSGF0UckCgJLkvKbWJF/f2+GYWWrVvX0n+ioB7LHPm+WeBmj58uVbwBRK7pngjHYnuFyuQwl8yZ4TW7wGYI9ZbKZLIW63z93fmj8x/vzJ5o9q+zH+nxEOB/5BQs7KqP59PhsYh+75fKkLAIfDsTeSBE1ShjsAKHlsSGzz5o3vZPsdKW+IvszANcP+ZWccAOLvw+B32uvLX2irL61bVTe9CJo93ScL13UBdJvCW5zYXl/+BS0ANDnD5/ONhUi65W0TSXlV0s4hEpZ5ARK25LM8o58ZKIGTDVbc3d29MSNjI42fIJnni+h6AG1JjHRmcQBS3tHPTPrJYEvg0lWrVsVSuUymXo94PH4okux5TibA+sMGW/IgQtPISABw8riCN1OtG6upbIjeTcAdBfLqf+oVeHycffP7HfVlf2ibVzEdml34YOz+9wFQ6CnhH+fjFk4tAEYIZpy/k8SlDgC/+Hjrx68Aex5WQdK6ILh+gse4R/asTCZWOPkWuTWZuMGdztrjQTg7yUevhsPN/wTj7SSfDVkEeRyeWQCcST5qt9nFxcgwliGtF51Fcjc7Galv3+snKDLORoaBeHt6WYjxei7fl7KG6PdB9IcCGwYmMrCASK5sry97ta2+bEFHXdloaHDcwtY4ATcpvMX0dntpfb4994iKAZg7d27xli1b9hFCTKAETZAsPlsHZoN7gMQHiURi/fLly7cU2Ox/30RMXr3neI6PJJl3r1q1KuZxetcycNBuo7BlAoBZHrFH7AFj7e517XK5xiV65H2gpGdz/zMztcs/RZIACAlc3zsRpbcIPDeJABhi4CFd1I934ya/378tm32A+9mBQTCvczu9KW2jY8KJSWphYyaZGn0+36hETB64Z3lxvNvlfbx/LUJvBcPNN6qqLwKYF3Vc2V5ftoaAnxTgZKmagD+wHXd01Jc9DsJvyxdFV2AEU3ZItLHj7bJrQDhKUZ/60btzD3r84MX/7cmXZy5IAeByucYJKY6VwDECdDQTDgZQtXXz9skEg9gEmHqnuDvNOAAYsBsG3E5vN0BvM/CKAF42QS2RSPaCkayf/cvrkWz9nfGLcCS8tc9AvAXwQbuN+Ba+CEkSvRALt9N7+04vSBUDtaCkngpmEg9kMBs/hYFZSV7Klkgk8HzfLZJ5ACa43e7yUCiU9jGtTEiWXnfzx5s/bsh6J0gevQ8CX57GNZKRUQKgRCIxHRBGkoJ9DgNsDWTw/aqrjABGQ/SOtvrS1QR6AEBJAQ6XExhYAMZX2uvLAjDpyyM1aJBuhmy/kG6E5L8pukPVqIndXwHwWy0ALK5Zt9t9ArFxGjPPAuMEJtgy2C82CuCjCDiKgcsFGG6n910GN5Hgx0Oh0OvDpWKczpmVzIkrk87+hXnPZ/8mfosZp+/2pUN8Pt8ov9/fnUkZpk+fXgTsGYAGUCWAa3exL9zvYPx4aJBguYH6BxP9JKkhkeLGnTwEb3EyK2liBoC0BICvxleWgJySxHI9l4u1bSYcqeK4m4wDACUdyUO6L2dNkFc2dDZFzy99XQr6Awi+QjR+DGwThEXlI3zHQMUjHU+31Ze1kKKofSZc//5Fkx444OEN2/PheYe1W8tb4z3Y7fL+1OX0roYUy5j5h+hdc1UhbA4m0A8gxb/dTm+gL5te3h+nbHDiFiQ98IJ+Fg6Hd0qDmXT2azO7zYz3RE+cOPFwAPYMzMTbLOSVQ/2121F7AYBjk3wUCS3zf3YATUwWvZX89ulnRYzb+OB+lEzWI9tdLtc4AiqVDGgyMwHAQ8wAmGngYbqUPdb5TnljdCaYLhsmGQPTYbHdJo8oXxT9IzQQAj9QqLQOiJm2q/LmWYfjbN/l8p7qdnr/KQ28DcZ1BFRluQweYv6H2+n9l8tVe3K+VpTT6TuCCRcm+ehDSYnf76pMjaTGz4qUwMwikwyAL9tMmj3UKPjq6mo7Ef+on87/w53/3beW/XGSl3YIsRA8sZ/uuzHb/cCQxpGqxKpMI41wP/UxJAGQeeDhEEoKcEVjxwPFRnwaA98CsH6Y27pPGLiioiF66pSH1g3k4RIej2e/kSIAyh+J+gE8r7Anfa+jrmzvfHjWYbUE4D7RNxtC/hiME/KkSEcT8/NuZ+2zNpOu9C/359WRnQbkjxlJt558SGz8wu307jSSm+OS2QgrUgL3swNgMD5gxs/HTyj5TSZnvY8pHns57x7b0MsOCZzvdnrPT2HkT7sOBLOZdDkBPD7b/UASHdHP2sqLIE7NA884uG/JZpdLj91W/GaGxUsmDv8DwkAu/h0qj4gejD737V3vXzTpvnjCfhkTrgJw4PAyc/xozEhcddDDGwb0ZrhcrunExn1S8tMAfjpSRABD/IAgT1YknPeCHd8DcJ0WACngcPgOM4T5G7Ccnafd5fSEwW6P03N5MBL8a16IJbe7hiXO6Ofjw/r+23V+k8x4cOZbAZOnoMXHIP7XTv9OgLERoHZifmnshLGhTAw/0JuCt4u6b+wnrmA0gAUpXirtlMDEtJGTVikdlfXOQDwjSR2sC0UCKb9PbmdtI8CVu7Xr6uffeH7Ia5l9u1Mm7+kxwl3hSCDvt+D1CYHf8M24p/3tKacRGd8EeHaeF3s9AV8vb+h8YqAvVVdX20cXl3wHjL4lRLoTI4jKhvbWjnllf2XCuWoEBq6Kzi/9bdmizpxOGvNaAMydO7d426aum5jk1WDK9yxWExjU5HLU/sJeTD/w+/2JnJbGpNtBmatXYUFKYEZSEfFUKBz8ssoq6Brb/e1+ch+k7UxJNyWwNGQUMtkKG5/scrnG7Rp/oViectIAwDRd6HxEkutmtANAxmTykwWBYbUdjW6GBNY9A+CZtRdMOcYQ4tsMXICM4l6s7wYEPII4vlXeFB3w8Buvw3uMSfgT8L/01cy0GiMMknw9G3SWIjs5SrK4HsCVuXzGvI0BcLlc07du7lrOxN/H8MnLTUR8TSIm/1lTUzM+V4VwO9yng8hnkVLdJ5OUwD6fbwKA0j2NBysd5N1u90QA37HqegbJtIRQ37bBZIPmXsTG1Vl+yafv2VFTN7LV1dV2AIckce1k1Iayn+RQoli8iWFK1aPrXitviF4shVHJwC1Qd9JcOqxm4pPLG6IXD2T8HQ7HaLfTe7skvELY9eyKoiJaM9IEQNljne+A8ZBCTfbljgvLDtICYDc8Ts8lxMarAB81TPvOLLtR/EJf7vTstymJWy29oDCHvAwQj3PSADShepYn6QYAEy273NACAZ/r54Pr3Q736SmI4Ckul3d+JuV2OGaWMrDPHiVLI3q/pKjksGQinJCxiEt2sFC73+/fNNyNR9UjbesrG6I3j4r3VDJwBQFv5aAYCQLuLjLiMyoXdb444Kzf6fUaZP83erfl7h43tNXv93+IEYjNLm8BoCpxj50lbsnp8+VTZft8PlsiJn/JwDcLoO+cYFDRUqfTOScSiWRt25DbWTsf4KOTfLQRxAPnL2AaD+wZYEmSjwKweEguEclJE9CYZCoTAF6vt1wm8NVkdhzEgx/LyeTd3eARKG0BQAZ+yyauSCK0bSDxhNvl/SUJ/lUwGNx5ZwB5Hd4jJPElYPoKUWZrrwbkkf0o/5TrXyJ5ECGLjAVAsiOf3+3z3vQ/aNls8WxnUhwq+zdt3AZgId+M+7IcJ7CCgMvLG6IvDzLmTkjE5B0S+Ar6DXgbee7/T5ny0Lr2jvqyexlQtXXvgrUXTPlF1aPrXhvRAsDhcIxOxGQTgNMKp/vwUQL2f8yZMac2k2CpVOlNuMM39/MSXx0KBx4ecDCo8ZUlDNmx508z2AkgkhxBS3g/ElYnimSCbwFoVJL2eCwUDg6aj9vt9L6RZHaadkrgYDD4ptvh/QsI5yVT/2BcxyZd43Z6XwewkYDxDBwkgf3+NxbL9kzqgoR5JO8ZjWjGEU95RtpPEOeOyZMnZ5I0RoD2XJoA02wwDeg2j8f4PvQarGHDLnECF0451pDiW4riBOIE/GpLfK8bpzcNnHDK7a49IxGTv0eSJbrdGHHu/11ENMvb4iQuI2CcgssLwxC3Ajg9F8+WF0sAPp9vrCFsTxeW8f9sRKveMbb7cZ/Pp1xsTRy/z5UApiX56B1bETUO9nv/cn8ngG1JBuWhL8UkW+dlde5/l8t1aD85+E2TjR+lVuSkyXomuN3u8nTLYyJ+JcBtA07Se5MUncK92cd22W9tMmUkAPo5ae/dlpaWHak3ISfZqkdvNjU1mUMtl9M5cyqAsUMypsMsSHB3qh5Z9y8VcQIMtDCJo8sbotcNZPxramZNcru8j6N3a18K8T1yxHoAAGBK47oPCXynMgvBOK1jXlntiBQAPp9vbCImXwDT7ELtQAycGo+Zv1JdjyB8P/mAyTeluCuBGXg3yQUO8fl8o4Y2VifN5/6Guso27kASzxYxHmlp8ac4602aFfHTlMBp0dLS8jExzhvqIM8s2jOrkGRnMKRnQJn2FBGcoRE2OH7kUH8rwCsLYVzYPU6AgbeHeKkuBq6riEc9lYvaBwygdDtq64qM+Cow6tJo/xHtAQCA0aN6fq4yAyQT3zbiBECf2/9pACcWegci0DfcDu/Fqq6fiMnvApiU5M6rgpHg42mU07KUwE7nzAoAE5IMKEpmcB6H5wQCzkxmutmQP0m9sSh5ul4aWlbEYEvwZZOFC8nE1SDEYluHLAD6vE6H7VH/MvW1+/7SCGc8CxdiyMtKCSRWFtLYsH/Txm2VDdGFFYdEP8cszwRoSRo/fy4B83OVDdE7qAn9emS8Xu9Ut9P7PIgfTxYUOsgLMaI9AACw3/0fbiXQzxVaCHdHfdmpI0kACEH2RgAnjZheRLjH4fAdZrnh603T+e1+lOWNAGSq12KWSY3fUFICC44lD0Az1WwBZKLbkSSQiUEPhEKhNHLwi7f7ceUM2Wi1tPjfGrdXyZFE/L2UvAGM7SD8IZ3kQ3uoHtM8BMCoJC/9itT7g+2IpHWaoYjjoWWHBIAN2QyqzerwcDNkZeO6ZyoaOk6WQlYT8DCAeD9f38TAFeUN0bnTGtYPtMQk3M7aBTKBNwAMKW25YWoPAACYRcZvAXQo8wIAt/PN2bXJOQsCdDs9PwXwhRHWh8YaxH+prq4+IZOBfc8JK41lpsv3NNpshsOBJ9O6lsF/hilW7nmtRNp7syUV/UewuUcA3NiJJausrliHwzEaTL8H8Ps9ZozSFkjnWt3dW98YXTT2vD31m8xorbYvs+HPq6ur7xxtH1dLhjyFJSpAmAzAAOMjEN6EoPCOHdtezLSPGN3Gxwkb7/EcbMjmlAcIG0dlnPYMYqTEskzKJoGfCSn+kH5fN7eMhIGi6pF1/wJw8bqLp9yQSIhvoDfoca++Sng8IW3fnNa4ZsB0yE6n7wjB8j6AazKxS9vj29u0+QemPri2u62+7DYCVGWpPLLjnfLzgI5HszcnzQEep+dCBj08crsSPxCKBC/Tr5RGo0mF9y+aVBKXdi8kOssbowPG0HyWxhfo5yTQtFgXigRKdQv0jdw+2DqmlL0J4GBFt3j3g7GTph+3sDVekALAW+M9WBpohZotFcMGAl8ajAQf1K+URqOxCpfLdyIx3wfwdIsGqnAoHHDn+pmA+Kpsps8eiPZ55fNA3KBMZDD/X2VjZ1bOwsjqeoPP5xslDTw+0o0/ADDo9263+yhoNBpNhlRXV49xO723E8uQZca/1xrlNADQW+M9mFj+DbAnfaZXF1Tb2+orJmazTOWHdjwGxuvqJof0w466stEFJwASMXk7gKP16woAGAVTNLhcrnG6KjQazZCNpNPrHV1UshLJ0/hmaP9zFwDocMwslQa/AGB/wZw0aHSfLR+VEuTGtvqySFt92c3ReaUOrrO2DvYw0DdDSubr1d0ApbDh6wUlALwOrxPAN/TruvO7RX/v7u7u1lWh0WiGgsfj2U8y/gHCVCUGIkc5AHw+3wSDEosBqgT6S0YFfDR+n04AJgEOAm6SRJEOe9mm9vryF9rqy65ac0FVlYryVT3a+XcAzaqenwnfz4ZnIysCYO7cucWScB/y+PTBLPMhE04PtzR/r7U1O8EeGo2mADHhBaFE3WQ0+zkAfD7fqHhM/g07pePmZOdGADhuYWscvEfmzrEAzybgTkMk1rTXl73XUV/2h7b60rr36qbtZd0MTtygsBomEszvqK7rrBjkbVu6rgZweA5ej/UAXgShgYBFYDxBvWe6b8rhKxu0meKYcDjwDz16aTSaDIfwA5Ve3RRZFQB1dXVGPCYfIcC7qxAZIG8EDZoZchoDCwj0uN0e+7C9vuzVtvqym9vqK6oz2Xdf2dgewhAPSUtRfn17TV3VASrrW3keAN/xvgMSLK/LYh96F6B7bZKe8C/zr+2vX7tcvmOJ5Vno3V+7fxbKJRl8u73ISDUtr0aj0Qw2DZ2qcC9Xj3+5f11WZ2zrNtxDwBeTfLSf0+ncP3kSKLEqjTO6bACqCagG5E0d75Rt7KgnvwQvMYj/UbaoM5qWiWZcx4RTFE2mS0RR4gdQeDqu8m2Abpf3t2B8LQt9ZwNA14QizYuQRua7uXPnFm/dvP3rAG6Cut0JH0jgokgk8LwesTQajVV4nN7nGJij6PLvhCKBQ7P1LC6H5xYiurFfbwQwKxAJ7HGcd/u88rNA/KRFxVhNwBLJ8llZXPTC1AfXDhqj1V5f+ihA5yuqlhhDHF7Z0K7EE6N0CcDn8+0LxqXKew7xEluROCIUaX44HeMP9GZnC0UCvxQ2TCegRUHpXiKDj9bGX6PRKGCawnE1a+5/t7N2wUDGHwAkKGkcABmWHg7Vu1xA4mkjlvi4L5jw2rb6imruZ8JMoB8CUOXVLSLmG1XVu1IBEO8xrwQwRqntBxZNnnLA5/1+/4eZXCcQCHR09WyvZdAjFhXNBHDL5NJJJweDwfV6nNJoNFZSV1dnMFCh7AacnQBAl8t7JsD3DP5NmVQAlB0UXQ2gS0HRRvcFE95OkK921Jetbasv+2NbfWldR13Z3p9+qbwh+i7AjyirIOIL2+ZVTFdxaZUxACSILmalXYeePaB0/y9lci75zvRF5H/J5axNEPiSDC61XgAXJnNXaTQajRV0dn5UJoAiZfY/CzkAvE6vVzIeS8UWUX8egJsh2+vxJoDjFBe3goDLAbqc7ZDt9WWvEbBEQi4hol8x42JFk2qDSN4G4Oxh4wFwu90nMHCQwsZYZyuii6wy/jvLzO6ebQsYCAzx9y/ETfsx2vhrNBqVCCGnKr0+sVIB4HT6jpDAU0hyYmVSQdK7FbCfuDXO9hHRAkA1A9cSxAvMCAKIKbzfF9ZeMOWYYSMAIMUZKmufiW/1+/2bVFy7tbU1Lgw+l4G1afwsAeCGUCTw+eXLX9yghyeNRqMUU05TeXlSuATgq/GVCch/AEgn2c04p3NmP0seYlWOW2OvVIXMUJvDIPGD4SMAgJMUXrs7kYg1qGzNYDC4kYQ8C0BPCl/vFMCsUCTwY6QZhKjRaDRDMwlQ6wEoFko8ACecMGufhCFfAFCedpk4dmRysZJ1D0DWYcI5HReWWepVVyIAHA7HaADHK6yLfy1fvlz5ueChUOh1ALcO3CpYbCsSRwcigQA0Go0mewJApQfgExUeVofDMbrIFn8awGFDNFnJ4wBE4QsAAIIlf8nKCyoJArTDfpgE7Or6PTqyVeM7erb/bHRxybnY8xCjBIGuD7Y0/xxpZKHQaHKJw+EYXSyL90nYE58FjwkhWEq5KRQKbdJ9eThNCVUKAOvd/3V1dcb6zg8aAHYOuVSUPCVw2aLOaHt92SYAEwpc9X2JgRvJovdUiQAwBT5HrLLfk5Gt6m5tbY27XL6vEMtl+N9JW+2CMS/Q0hwZaWNOdXW1fZxt3CRTmFPYEJOI5SRm2menr4wCMJpAHzPz+4D4QEB2imKxPtOtmprBqampGW8Yo6YbwBF9B6gcCmASgH36/huTMCQg/+f8kxIABNxOL9CbPrsDhDaWvIIgVpowXm5pWdqpazfvULcEYH0OAFrfuWEhgLMyHPuPGODTlQC5C7zNy9vOn3wYHlv/n7wVAAJUyUonEnxoNms8HPa/6nJ6fkegb4DxTMy0X/ryyy9+VOiji8/nm2D2mDUQmMGMIwE6EsDnEpBFAPUmN+4nKJfxadoMCQlAxiTcTu86MFpB+BcT/kUkg6FQ6BM9jmfURvvG43IWSZwMwkkApvXV/lCZDGAyGCcQUR3AMJCA2+ldDXAzWDyzI7btudbW1i5d+7ljzow5JV3oVpfCnK3dAeB2em4HcJkFBTvM5/PZkqdTFysBLnQBAGHYfADyVwAw896K6+BzLpdrSjgczlqe6oQZu6HIGPWfYEvzvShQN+ncuXOLt2zp8hJ4JhgzEzFZDSLDwqedAsIUAGcQA2CRcLs8fkh6StjxdCAQ6IBm8MHU7T6E2LiQmU9LxOTRBAj1Sb0xDaBpIL50dHFJl9vhfZbA9wdbgi9ghAe++nw+m2ma+zHz6F2mvHEay3ZOaSmU4hRnO28DkAiFQu2DfX/b2NhUoTCVO1t4DLDbWftVgL9n0eWKZbc8OKkBJKwcIQtYM6y6kKpEQKrPMTaIja8CuCFbNd4XdPj7QutJdXV1xvvR930Mmrd18/ZzSH3b7dr/mGaDMFsm8Bu3yxth4G67XTyhD0zaw+hPZKbzBdPFLOHg3I50Y0A4j0HnuZzetcS4c8z2Ufc9/8bz2wu9HWZXz96ruyg+B8QuBo4h4LBETO7fa4t3tcdsAJCp2eidvrsawKAn/BHJaSq7AFu0BdDj9FzA4N9YWTZJdEQyAUDEq3hECAC27IRARQKAKQvnDH3HW+P9c2B54F1tHtLH5XJNITa+un7dhi+D6IA8KBKB4SLAlYjJDo+z9rcszD+O9CUCt9t9CKS4FhLzCSjOt/GNgCoQ7twxtvuHHmftz4wiutvv93cXUhvMnTu3eOumrnNAfGk3Yj70BTgrGeFSXXuXPA2kboy1mZl7AFyu2pOY+UFYvNuMe1MCN+0xKzTlygSJETAq8L5WXUlJbTGEmYVaGC0NapozY06JNudpKHKH5wS309NAbKwFcD0YB+RhMcsZfAekaHM7vdfOnTu3eKS1k9PpO9rt8D4GKf6D3rXTvK4DBvZh8B2JmHzb5fKeXwhtUFNTM97t9F6/dfP2KIgbAJwMhbub+uZOKQkAIlKZA0CW7F3SntE4U+OZQcxPqOi3/aUEntK47kMQ3i/0sYGINue1B4DAWXIF8lFdY3vuA1APvX1pMINyhCB5IzPqhlGxxwG4fevm7V9zO7w3hFoCD42IGb8pfgHI00FZWNm3ngpiPOp2ei8SNlw5HOM6fD6fLRHjrwJ8M7K7JAakmn+fMVVh7+hcvHhxz1B/7HTOPJCReB6qtuSJAVLMM6200kWel2KbeWNeewDA2VRhfIHL5blOm/jkeGu8B3uc3kcF5BsYXsZ/F48ACH92O71LvV7v1EJspzkz5pS4nd6bIcUbIJwBDEvjvzOnyQRWuR2184ZToT0neo5NxPhVgO/KuvEHwAKpLQEQqUwCNOT1/5qaWZME4s+hd+upIv8E2gb4dMUIGNaj+S0AgHXZrA1ius3j9Jymzf0us5hRbqf3ZmlgBQPnF4BBAYCTZAL/djtrLyqgpiKP03NJ17ju/wK4CXnu6k+TcSBucLu89w6DZRzhcdZ+jwW1AHxUDouRivElMFepc0LQkNb/XS7XOLsR/wdAByqsoE2CcW3/s2N6Ar3nshQskvFSXgsAFuKdbL81DGp0uVzToYHLVXtSIiZfK0CDAgDjAX7I7fI+7vP5JgznB/F4PPt5nN6nGPRAnsZiWGVRrti2eftLTqdz/3ws3pwZc0rcLu9fGHwHFB6vm9LgLnsGFQC+432TQFAX+8QybQ9AdXW1ndhoAnCswurpYqIzA8sC/e6Br2xsDwmTpxPjJgCtKLyl4e3xTaPDeS0ASrYWrUD29waPIzaeOOGEWfuMVMPf60b2LCTmpRhyru1hY1TqEjH5ssPhO2g4Ft/tcJ/OJq1k4MyR0DcZcAjYWvKtvXzH+w7oGtsdAlt/1voQ2NzS0vLxoCLBpvYUQIi0twDS6FEl9wE4RWGpYmDxxXC4OTjYF8se63ynvDH6o4qG6HFkQzmIrwSwGEAB7E6hvx68+L89ljW1iiI+/8bz28F4Kwe1c0ixLf5MdXX1mJFm/J1O3xFdY7tbAPrKCHrsg20klzmdtY7hUuC5c+cWu52e34HE0wD2H2HddJpBMuDxeD6XD4XxeDyTEzb5IvY85yNXIiklw8vESgWAIdPbAuhy1P4SjIsVFikOQeeGWvz/TPeH5Q9FOysWdd5b0RA9leLYm1meScBC9Ka8Hm5IZvqZpVpPmU4BluZqpjG6uORxn89nwwjB5fJ8XUC+CuDIkSZ8GNhHgJ/3ODyn5HtZnU7n/lu3bH8RoCtRGDEZQ2Eym+T3Orw57as1NbMmsYkgCJ/Ll4qhFHcASFZ8DHBCpOwBcDu81xHxt1UaPTB9KRRqfibTC5U3RXdUNq57prwhekV5PFrOLDzM+BkhJ5PV9Mc6QkNlY/uqYSEApMALOayr0xIxeU+hj6TV1dX2Xpc//QaFt9afDmOZ6BmPw3NWvhbQ6/AeSbAtB8MFzX6SsMTtdh+So/dmjN2IP6U4WG0IYpbeS0kokFIBsMP/in9DahMP73wQfqJW39OVoZbmRsvFVhPMysb2UGVj9NryhujhDHEgA98CaAmAeB6+M1HD4G9ZLvZUlXb8+JLnAGzOYYUtcDu9NxXqCOpwOPYeVVzyzxHm8h8IOxM1ut2+vDsMxO2uPUMSIgRU6Wb6jP1Jir/nIjBw9KiSBwGcmG8VQoS1KX5T9THAgwbOuVzeU4nxIFSeR8D4XijSvDAbdV/Z0L66siF6V0VDx8nCxpMZfDEx/sLA1jzoGnFmMa/soU7LD6BTJgAWL17cQ4ynclxxN3uctQVnIJ3OmZU2si8nYKa2I7swiqR8yuHw5U0ApNtRWwfJfwUwVjfPHtO7gwTZnpg+fXrWIu/dztpv5m0+jNTz76uMARh0GcLprD2eGI9B3VkyAHBDuCXwi1w0Q9lDnR9VNnQ+XN4YratYF92bWXgIuBtALpJa9YDpvMrG9pCKiytNnGwS/SH3gwzf63F6Liicmb/vIIFEgIGDoElmVPYRJBfX1MyalOuyuFze8/pSyNp1y/TbYK69J+xzR1aMv9t9CHq3+uUnRmJQAdAnlqYobJDVg48//KxKQUuEO0ORwI/zoUnIj0RlY3uovCF6VUVDtEJKeSwBNyM7Www/EuC5FY0dyibSSgVAJNLcAsbyHLehYNBDbof79AIw/ocZJP0AKrTlGOClBaqKjPhDyGGgncfpuZAYDYpnSYWhARjfcju89aq7BUvxewCj8rQa5Lhx49oG+9LEiROrABjq2oLX9C9oXVMEyRegdvfK74LhwLfzta9WPbrutfKG6C0VDdHjYkb8AAZ/iYBnAfRY2lkJfycbjipr6HxJ5fMoPzqJwLfnQbvZQeKvwyFSfCDl3Wf8S7XJSMkTMMftrL0yF/d2O2rrGPSgyoG6AFXb7xyOmcr6tsvlrc/zJbPU8u+bNqVbAAUlXwKoqakZT2z8XWUcC4MeCUUC3xguXfaghzd8UNnQ+VB5Q/SMUfGefYlxLoA/YeipehngF4hwavmi6OnlD0U7lc+OVd8g2BJ8CsCyPGivIiZ6Ih+DxAYfvFxTDMjnoTK/dmHKgJ9nOx7A6aw9HsTa+KfPXgYllCwZ9map41vy/PlTPAWQlW4BpCRxCD6fb5TNKH4GSvMl0FP2IroU2U8gZwn7N23cVt4Y/WtFQ/TyioZoOQw6si8B0Z8Y+DeA/g7I20yEvzNwnTTN6RUNnXPKF0UXZ6vc2XFPCnENpAwg93ufx0DKp91u90mhUOj14dCxfD7fhERcLobarT+FyhiD5AMAnMhCSlCv1ztVJvhZAGN01Q+J0zxOzwXBSPBRKy86unjshQAfmM8Pnmr+fcmYSgpHUVOYa3cfvRMxfpgAr8LHf2HcXmMuWLx4ccHk8K94uGMlgJU7/23dgiljurfxfsQ0mgz7ZqPH3FTeFN2Ry3JmzSC7nZ77Abo0T9pno5CoHSindJ4Yf1s8Jp/LQ9dlFwHrGNgE4k29I5jYD+D90Ls+mFfr3kw4PxwOPK7yHg6HY2+DiiIAH5onj72JgP9I0HtguZpIbAawDczdIBpFwAQJuRdBTGPwoQQcmifCZf2Onu0Htba2dlk39tS+CnB1XgsA5hvDLcFbB/uey+n9CwFfVDUuhiKB/Xe9n+duAql0y0fGbBs15/k3nt8OTdbJ2kBtcuK7BtnnID/WsPeTAs85nTM9kcjStnxtHDMuf5oHxj8OYBkRLZHgV6W0vd7SsrTftam5c+cWb96843AD5tEAzWbgZOQ45S0xbquurn6ytbVVVYIPMmB/JMfGfwcI/2Tw88xGKBLxv4k03Kk+n89mdps1kjCHiM5G7rJKTh5TPPbrACxJeepy+Y4Dy7w2/kD/a+9JUBcDwLsuQ7id3psBqDT+/7YVidO08R8BHgAA8Dg8tUy0FFmIPUixx7/HJL3hcHhdvjWMy+U9jxiPIjfLJnGAngNzIwvzmXA4PORkGHV1dcb70fdnM+FLAJ2LnG2Jo6+FIs2/U9KvXZ5vM9OvctGBQfwig/5YsnXU360cSD0nelws8DWAzs/2+0rARzGzZ9ry5cu3ZD77994O9H98bN4IAIYr0BKIpPA8nwCYoKg7NYYiwfo+r8kCgFVu414RS9hPevnlFz+CZmQIAABwOTy3ENGNeVQHK2MJuy+fOmLfdr9XkP3kMR8w8732hPF7/yv+962+uO9EX5VJ8lomXI7sLxOs/2TzR1WrVq2KWWr8T/Qcy4IiyG4q5gSAhyTEryMR/0qVN3K73dWQdCdA2Q6e/WEoErjNAgHwH2TvZMx2EDoATntdlwTqg8HgxoHHBcfeBtmVjVMM/kk4Erze7a49A5KfUPWOEvBfGOwNBoPD8UAeLQAyvafb5X0sn7JxEfCKJHNWJjNdy4ykz2dLxGQYwAnZnHEx6Ce2Ivqd3+9XfmSm1+E9UhLuAeDJbjtzXTAS/IuFbTU2EeNXs+r6JzxpSvGDlhb/W1l9Z5213+5LopMt4dZpKxJVfr9/yIFhHo9nPzbpA8Xl3AbgLmHDnwKBwBqVN3K5fMcRy1eUNTLxVySMlcTyRaiLB+mwSeH1L/Ov1eY39+TCFc87urdfkgcJgnZSvjie2Pibz+fLeZKQRExel0XjbxLhzuKeogNDkeZfZcP4A0CgJbAiFAn4iOj6vtlsltqZFlhaeXF5axaNfwcxfz4UDpyTZeMPAByKNP9KALMAfJile5bG4/LUTC4gpThOcYdaDiGnhyKBG1QbfwAgyYp3AokpxHKxQuO/3mQxUxv/kS0A0Nra2kU2PhvgfArAOynRIx+vrq7OWdpWr8N7DIBsLY+sYBInBsOBby9pXZKLQ5tkMNz8EwGcguwdGjXL7XZbEkTldruPYsbXs2R/H4ibPUcEW4LP5fIFCUQCAcGYA+CTrLgdGAsy+z3PUOiJCZuInxQKhdqz54dhpUmAuDdXwgRFl98kIU5tafH/V5vdES4AACAYDK4XkuZmazBJ8aU+Y0xxyQM5qheShHuRjSA5xp9MjteEw/5Xc13lgUhgKZnsBbAhK/1dikst6Sks7oF6d3gPEX8lFAleZkVAnCXt1RJ4TYJOAZCN/cuf9/l8+w69m5Oq8zI2keC6lpaW7O7hHr65QLZI0JxIxP9vbXK1APjfYLIs8B8BnAWL8yhnZhsx3+30/Dbb93W5vBdDves/QaAFoZbA5VkfvAYSg8uDb0iIz2fDE8DAaRnP/p21l4DhUlzUDyFkbTAcvC/fBo1IpPkVIv5mFm5lxONyyOm7iaUSAcDMv8pJABsrPQVQFTuI+cxIpPkVaLQASDIDDPRuEVOfqS2NoeNKl9OTtdOoXC7XOGL8VPHgsZ0JXwhGmv+Yjx0xEvH/WwDnADDVTqJwdCYnBc6ZMacE6s+3WM9k+kKh0PJ8HTh6hQk3qp/0YuhxAKTGA2DY6cGcjEoYdh6AGBPODbYEm7Wp1QKgX8LhwGMAvp9PFUOgH3ictd/LjrIX1wGYrFKFwxCnh8OBf+RzZwxEAksB3KS6aYuM2MlD/XHX2O7/g9rERutNFt5wOLwq3wcPCfNbUO216Y05SHuccjgco6Em6djqQCCQ9XPh6+rqDB5ep4CaYLow38ccLQDyhFAkcAcR7synymHw7b0JMdThcDj2VpxqMw4W54RCfv9w6JChSOCnUHx4FANzhvK7vl0i31FYtK2CcdpwCZSKRCIfELFqT9m+Lpfr4PQn/8UHQsU2Z0ZO4mY6Oz8qA1A0TOwKg7Eg1NLcpE2sFgApEwwHvtN3jGr+OALAv/M4PaepawDbVQDGKfRkfC3U4v/nMOqTEkL+HxRuDySQY0hKqsf8PwBTlD03i/MCLYHXhtMA8vGmj+/C0I8/TRHj6LTfK+aDFXWed3IyEJE5XNb/mYm/GmoJ3K/NqxYAaXee7p5tC8BYnEdlMhjU4HK5plt94ZqamvFE6mb/xPhtvq75D+gFCIVeB/hhhR6AqX0u4pSZO3duMRFdo/CxfzLMhBoAYNWqVTEw7lE6SEk6Ku2+L9QEABL4vZwIAOU5AKyy/vheOBy8V5tWLQCGRGtra3xHbPu5ACJ5VKzxxMbTmWxJSoZNFC8AMFHRTOWNsRNKvjtcO6aE/ccKvQCGHfa00sNu2bL9C8pm/4SwrUjcMlzbykR8IYAuVddnSn8/PzMpEgC0OieVTMNhBwD/KtwS+IU2q1oAZCoCumxF4gsA8um43mmJuNno8/ms2vtNRHS5orLGKMEXLV68uGe4dsxIZOl7IDyj0Kik5dEhhrK2YphfziTlba5paWn5GKCnFRq/8iH8Ss0SgA1rclPLnPcCgCHGa5OqBYAl+P3+D022nZxX2QKZZidi8gYrLuVy1bpVpZFlpruCy4NvDPveSfSAurYUn0v1q16vtxzqjmX+WTgcfnvYtxXjcYXXHsq2TRUegJ5AINCZo5ch75cACPxlj8NzCjRaAFgzs1jaKUw6GdnJEpcq17tcvhMteFkuV/QWvp+Q3bcVQue02WgxgE2KrErK7nwzzpcDMBQUIrqjZ/tPC6Ktimkx1C0D7JvOWNW3W0PFFsA2ADJHVTwcYgCIiR7weDz7adOqBYAlBJYH3iXmM9F76lZejHXE8v7p06cPeUuOw+EYDYkvKimdxO35kjY2U/x+fwKMpYqEUsqDFBFdqGhm+4vW1tauAmmrbla3fdPw+Xx7p/rleDx+oJKxjTgn6/+9yacwaZh0hcmcoD8jNyfNagpNAABAsCX4sgC+gPxJGXz4xPH7DHk/uAFjFgglCsr1wY7Y9j8WVA8lUpVFLCUB4D3RezhgfQAWAR/ZisWfCqqpgICyi29P/dwFIYWa9X/OTQBgd0n3tGHWEea6HN4F0GgBYJknIBJYyoSLkTsX3O7c4Dved8DQXhBxhqIy/b5QZpSfVZWUrWom35RSwJIUNFfN/XGv3+/fVkhtxUQv50c5hBKDScRrc/E8phh+hwAR4VcOh+8waLQAsIpwOPA4M76aJyq3JGGX1w1togQViYWkhO2BQuug0pBvQMU5EcwpLuHwqSqey2TxSKG1ld2kvNi1Q6xozzwjN1sAJQ/HQ4DGGCQXZbJUqtECYE8R0BL4AzPfmCfFucLlcqW1N9zp9E2HigAl4qWRyNK2Quug4XB4KwDrc68Tigf7is/nGwvArcCQLG9p8b9VaG3lX+ZvA2O7imvvEAan0bZqPAA5WgIgouF6DPCxE/fa50fazGoBYLEICN7KTL/Og6KMIjYWpPcyyxo1swR6qmB7KUPFwTiDRvWbPWYNMLhQSHtAFwr3zOe6pQjrVFx49Ghzc+qFUOMyF8UiRzkAaNow7hPXeJ3emdBoAWCtCGi+Ok/ODVhQXV1tT30WgRNUFMLG4u8F20sJluc0YGBHCm/HsUq0GmhpwbYV2Potu4ztfr+/O+XeAlQqeLCP/X7/phxV6tRh3CGEBB464YRZ+2hzqwWApcNCnpwbMHlM0Zg0FC5Z7gEg4L/+Zf61BSwAJlh+SR58z7pkMUPB02y123NzolyWXAAfKWj/T1L9qu943yQAYxQ82uqc9X7mKoUtFgKwVfEzlBbZEvp8AC0ArOXTcwMIaMmxhTorlW/NnTu3GGDLDxViwssF3UsZZQqG1a7Bv4JjFDzNiuGc9jcFYaVgq27qoiJmVxQASLlJAew73jdJ0Zbh3sci8RIY38rCS3yu21l7qTa5WgBYLQK6TCTOQo5O6eozwClt69uyZctBAGyW31/yKwXeTy0PmiTgg4E+7z0t0PpUzQx6p5Abioli1l9UpuwBEAW2A0CZoPn0sRhr+o7uzcISIt/lcPgOgkYLACuJRCIfSNhPwSCDukoD5TvRVzX44CTU7IsVhW1UAOs9AMxYP9DnhmGUqxBrIFnobaVglkqpxxWQmvVy5tx4AIjUbgEklqt7hZu5AEh9qWWIjDNINqYTM6XRAiBFEbD0PQk6XdU2pMGIG4NH9zPocBX3NsxcnVCmnpqaWZPQmwveahfA+oEHfENJ6lXBKGgBQMyWr78zEE3jy2pmzIIKMgcA2XufKxwOryPi72XhiY4bVTTmBmi0ALBeBDS/AtBFUJE4ZlB7gqNT+I4SD4AYJToKtYPabPEaNe018JIRSRyg4r4maCsKGWG9ACDizjQaVonBlJJy5AFQugMgNmnSpM+2bQbDwT8BeE79M9ENHoenVptfLQAsJ9TS/CSAXCSfqEhhJqPCAxArtJSyu3RQSScquTDjzYEHKalEABjMZmF7AMjy7V4sRTT1ZlViMM0tWza256RCWakAWNvU1GTuUtWwXQH1uwIEEz3sdrsnahOsBYD1IiASuIWAbCdbGWzvMQE4RIHnoaBnlEysIm8Cx2TsrYHHXdpfyUxSCFnI7SUBy4+CFUjNA+Dz+WykIF4E4OiqVatiOalQUpoEaA+vRiSytA2M72fhycpZGndrE6wFgBK70ZOwXwagM2s35IEj1d1udzmAsdZPEJScU58X9EbiQ8USwLspHJk8Wg8PQzBXKo6ttaeWClpKqSZwE7lZ/+8LlitVd4fkxxuHWgK/A/Ci8s4CvtDt8Nbr10YLAMt5+eUXPxJAPYCsuFxpEIMhpVB1Mtaogu2cwn6GGtFEkVR8D4oG3SmF2l5Op3M/BcJpl3XqAUkoc5fnZP2/xFZSBYUCn/rPbcDChq8AUL+0SPhdKjuoNFoApE0gEggA/FCWbjfgwGco2FP+qQCYXT17r4KcTjLNU9TpBxUAzEKNABieJ7ulhMGGioG8bbd16oGE3YGKHi0nHoCEoTgF8AC5DQKBwBqAbsrCY+6VMOQjdXV1BevJ1AIgh5hs/yEweNY3CyjK0eCEruJEeaG1m8/nmwDwXCXjnjBfzNVzKY7qzilSkOUCgNKZfasKmCvQHACQAz9XKNJ8Z1+qYLUwXOs7N1wHjRYAVtPSsrQThIezcKtBRIY6AWDAPKLghFvMvAgKTuID481QKDTojI4E96h4LgIdUajvmmDrBQADa1P+rqokQELk5hhgtTsAYIwyBnsuySQvB9Cdhce92eXynQiNFgCWv0iSG7OgYgc+rpQVqnmi6gKb/Y9i0LVqmolSS3nKtFHN/VHt8Xj2K8T3jCGrFFw2DeOr5h1jjuXoICCh0gPwSSqnG4bD4beZOBvbqm3E5iMul2ucNssFIAB8Pp8tX1I+BluCQQCbVd6DCZsGnvipU/PMKKjzts2Y+RUoin5mQlNqM3WpKq204ISYXZCjiQoPQHqH8FhvMBnbI5HIxhzVqEIPQOo7G+x24+dANk6wpANJGr/WZnmYCwC3u/aMREyuGlM8Zn6ePKckqE3BStS/q9LhmDkFareVHe1wzCwthA6pcvYP0Nu92SJTECEgdedKkJyLwqTS6gsKyWtT+V7fzFFFyujVyEFmUZUejT5SFlZ+vz9BJn8ZgPpcCIQvu1ze87VpHoYCwOPwzPI4vS9D8tMADmHQ1/JncpL6WuLQ+i36TS0rhKk68lsYZBbES5OImbcom/2zXJS6oDMV5pCgL/p8vn0LbCwhECz3AMCWmqEiRQlzKEdbAPt29ijMlCfTWtYILg++AeCnWelIjHvdbncFNMNDAHhO9BzrcXqfY6IlDBy/00fHeRyeWXkhAHjgKP3Mr0/v9lvJLA/MwhNegWEe0+F1eJ0AXa3o8nEJ+/2pfrm7u/sdhTOeMWacv1pIA0lNzaz9AVh9DsDWYDCYmvvdNNSIbMrRMcBFMaWThjSXVnq1WJG4jYHXsvD4E1iKh/XWwDwXAA6H7yC3s7aRBb3KwJzkHY2+nw8PSsB4ldeXoJf7v7nIxt7vQ1wu7+eHa0f0+XxjJfFDUJT4hIDHW1qWpjyrb21tjYPwljrByF/ry3RYENjtPVUKLrs2jWmjogDA3BwCxIq3ADKnn93Q7/cnGOIyAPEsjNfe99e9/x1tovNQAPh8vn3dTu/tBsmVAF/Q2179MsvprHXk8iH7lOQxCm+xpbR0vxUDvG1ZSf5CjFuHqReAEjFzocqtkpLEnUMYJN9Q+Mz720TRNYUykDALy9f/03K/qwqyZTM3OwAUnWr42Wx+iEeIRyL+f4Pwy+z0Kfqx01l7vDbTeSIAZlfP3svt9N6W6JFrAVyLFPdpE/jaXD7k+vXrjwYwQeEtWgbKVsbIWvKXYz1Oz8XDrRO6nZ5fAGqy/vUpo3+Gw/60o5gFyX+pHeD4eq/De+Rwaac5M+aU+Hy+pKmnVeQASMv9LtUYTBacGw+A2hwAsmTvkiGfbjhufMnNAK3KQjXYBfjP1dXVY6DJnQCYPn16kdtZu6C7OPY2gOtBKElTyZ+ZUyUnxQKlLyvxs4N8JWvZ3xj06+G0I8Dj8lwDkFpXH/HNQ/mZycYLih+/yCT8OV+2yw6Ez+cb2zW2+8mtW7eayfudghwAzKkLADUeAO7u7s6JAIDajJHRxYsXDznR1eLFi3sgzC8jO+esHD66uOTn2lTnQADU1dUZHqfnkol77fMuwH/A0E/6IsF8Sy4esKZm1iQAF6m0uYZBfxtg4BwF4IAsPvIEQ8QfHA4BNG5n7TeZ6Q7FiuiZUCi0fCg/jUT8KwFEVRaPgGNGF5fcmc/t5HA49jZjcikYB7W2tsb7UcGWCwDmlGffBCjYgUDY0Nra2pWTSmeFxwCnI6z6IRQKLWembB3n+1WXy3umNtdZFAAul/fM9Z0fvM6gBwBUWPAyzXW7a8/I9gPajPg9ULsH/5VAINDvcaU9PajCwDESKgaP2e+v23B7vna6uro6w+303gXwXYrrJgZDfjdDAfFcNgY4t9N7Uz62lcPhO8ggezMDxw/oklewBZBsqQWq+Wp8pVBxKiYjRxkAIaAgp8L/Ktaa4427Y9tuAPBuVhwijPs8Hs9kbbIVCwC32+d2u7whYvwN4OmW3k3K3zgcjr2z9XAep+cSAr6ouGv+aaBPDRUzk5REPr7b617PL+bMmFOyPrrhSQDfVD5oEO4OhUIZJYBigaezVDU3u1yer+dTW7lc3lMNki8D6Du/oN+ZIykwWNzV1bU2lS/GbazmDABQTgSA1+sthYpzMP6HJcsara2tXYJxCQCZhWrZDyY9mPXJ1EgRAN4TvYe7Xd7HIWUQDJeiIbnSELbHsuGe9jg8pzDoXsW32cqUaBzYgJhVuWpcZvqZy+H5Yb50NrfbXdM1tqcVhGx4gjpiiZ5bM72I3S7+AcL72Znl0G9cTs/duY4JmD59epHL4bmFGM9gp2Q0/e0dV5QD4P3U3e9qdtkIyk0SICTUxgyxhc8VaAlEANybjWphYI7bWfsNbbYt7ONO58xKj8P7oBRYCUad+lak2evXbbhN8cz/i0z0lGIVDRAeCofDWwce1HN7/CsR/cjlrH0gl3vO586dW+xx1P4EUoQBPjQrgwXh/5YvX74l0+v4/f4EgAez1l6gb4wuHrM0V+5Ot9vnnjh+n9eI6Ebs4SFMPiO22UwVfTxlI6XqHeMcHQPMyL8cAAMxZtuo7wHZWi7hn3lqPDO06bZIAAgkGpjwJWRz/zjjOrfTcwcsdudUV1fbPS7vrxnUBBVrgrsSt5niFylYoqpcNzKBLzHIvtzr8B6T7Xu7XLUnbd28/RUm/j4UJflJUukPh8OBf1j2kiRwP7KaD57cbNIbLpfn/7IVzOl0zjzQ7fTcDykDIHwuHcNB0noXfHrudzUGk1jmZAlAKp40mKbN0ud6/o3ntwvgK1l6R4rZEA2FlEQrpwKAGQ/lyCx9z+3yPmhVQ3pqPDNGF5cEmPEtZGWdiB/xL/OvTcH6VuVJWx8pCS+7nd47s3EcrdfhPcbt9P6TmJcCyN5ed8aaUT3FlroJA8sD7yLVY4StY19i+v36zg9aVabTdrvdR7mdngaBxNsAXTrQu1NU1E9WPAVZ69Jyv6s6B8CemxgAUrsFsGv58hctP+gqEAksBeP+LL3k023C/hNtvq2Y3MieRjC25+TujIsNsq1wOr1zhnoJX42vzOWsfYANeg3AiVkqecxkI9UOODWP2tsG4Co2abXLUfszt9tt9cApXC7vmR6n9zlJaAVwSpafLw5DzlvSusTyo59JypuQk1Ph+CgmWuJ2ev/jdniv8vl8YzO9oq/GV+Z2eK9yu7whSPFaXxKmwTwNW/x+/4f9fKbgGN40Zt+sJAlQbNKkSetyMzcilUsAyk43HBUruhqKt81+1uSMq1wu76nahGfY1QDA7fTc36f+c1mQfwC8sKun6x/97jX+dADz+WxmzDyFgfkAnQ317v7d+WUoEhh0e5nP5xubiMmtedz+EsBLBP4b2ejZQCCQ9ppnXV2dsaFzg8tkOh3EdYRcejzo6lCk+VfKZssu7xNgnJ3jNtsC0FIm+aJh0ouBZYG3BhvQHY6ZpTaKn8ggLwMeAo5G+l6yf4cigaRLSG6H5yUQ+SxtSWZfsCXYnMI7NioRk12w3uv3TigSODQXDex2etcBUBMDwngm1BJQtqfe4/ScxqBns1RVH8RN+4zly1/coE350GeEkBB/FOCcCgAGTgXo1NHFJRvcztogwK8T88rez4QdYHvv2iQdlYjJGoD2y1FRPxjVU5RSdHkshqo8T8wvAMxi0CxO4G630/sfAv7FwAomrCCSG6Qs2mSatM1m6zaEEBMoQROYuIKJjgL46PWdG04AsDcRI7f9hx4JKzT+ACAkbpKEM5G1WIakjAf4LGI6SwrA7fTGALSBuA2gT/5nQFHSl4J6KpAYxX32kYZewauzOWNN1f1umuY0gFQs+eUkALBP0KhLHKb4dMNgJPh3l7P2EQJfmIXq2t8u4g8AOA058c4ViACIRJpb3E7vqwCOy4MyTQL4XADn8mfvNe8qFXJpaAjfSdXFLDhRBRpWZ/MczsDhfQYEYAGBBIQBgA2wCTD1mRHOyJxYzauSYwtU3yTQEljhcXl/0xdnki8UATgYTAdD4VtCIrnhmD59ehEAq1NP9wQCgZRObuQET1Nj/zk3AYDdciqEwhcrCzsb4gnbt4ps8ZMx9Myx6QiauS6Hd0G4JfAHbc6HNgPsq0e+R1fHoC/P4nA4sCjlvkk0VVea8kZ5jww+s6WlZUc27tbVvf16gN8bcbXcz7G4EydOrFLgEWlDisllVL1jlKMcACwUnxxqqA9sfPnlFz9iwoJs1RkRfuVw+A7TY2EGAsAoMh4F8IGukn7ZBEP+X3p6IW92ABQqncJGJweDwfXZumFra2uXAC3ASHM59rd33LRZb7Ao9dm3ZKHoGOCcpQFWKgCkpKwIm3A48DQITVmqszEGyUV93ijNUASA3+/vBrBQV0k/YxL4ylAolN4RmtoDoJIPyeA5QwlczJRAJLAU4HtHUmWziK9J3sUVpOFNx01NimbMMjceAGWCpo+iIqzN1rPY7OKrWZxUHjtxr31+pIfFIQoAALDFxT052xKY39b/D8FI8NG0xzHWHgBFbGUSc4PB4Ju5KsCOnq6rAARHSH3L8ePHr82WAU4nUx0pmjEbo4xCzAGwwe/3b8vWs/j9/g+Z8J0sVt81Xqd3ph4ehygA/K/43wfh17padiEybnzJVUPTDVoAqLC9TPSFcNj/ai4L0draGrfFxXkAOkdAnXf2d348SyhIAsTpzL5VGMxP/H7/ptxMNtTFABCyv6wRDgcWgfBktuyZBB7K5oFzBSUAACBu9vwcwEZdNQCAjrhpP6e/wW8gfD7fBOx0kIrGEj4mySeHw80v5UNh/K/435egOgDdhVzpPNCWOFIwA0/R/e50OvcHMFbBI6/JYWWrnDTkxqsh+GsAPsnS7UoN2P+oh8ohCoDly5dvIeIf6KrBh0LilKEmmTC7zWm6Ci1lHZl8UnBZMJxPhYpEmlsk8AUAPYVa8TTwrgfL+3mq7neiIkXvWG5SAPel6B6fEyGnkGAwuB6M72axw57jcXou0UPm4NiSNlg4+Ce303segJNHaL1slaBTQ8ua/5OBtNIBgNa90a+bbJzWsnxpXrrbI5HA8x6H5wImaurvnRrWHoB+gvJ8Pt++iZi02mB9nKr7naScpmLHfK5OAUQCU5Wm1uDceTZCLYH73S5PHZg+n50+S791u92RUCj0Tjq/q66uHjN69OgBT5GdPHnylqamJnPn79pstq19J4fufj376NGjxwKAaZrd2dquPGQPwGddRcjLAWzByOMTCHlyJNL8SoYqVHsALBHzWDRmW7GrpWVpXq+1B1uCT4HpYgCxQmuD/g7mMXtUeLnS2KamKGCOKHuR8lkdMwyxOrcvM18BYGuW6rIEUiyqrq62p/OzUcVjbocUHw/034aODYcAwJiikl9++rdETCaNExszauw1n37HJux5t0uh3zR1oVCoHUyXYGTtd94gIWaGQqHlFswitAcg0/kQcF0wErjw+TeeHxY7U0ItzY0keSaADwupIUyI97JmsNLIAQBV7xjnZglAkuoxI5FTARAKhdoJdG0Wb3ncqKIxN6RlECUeA+gKgK4A4/t9nfL1z/4GukKMErvnHekG8OWkbwjzpcjj5UExyID2JBHdPEIMzkqbFCdGIv5/WzSSaQ/A0OvubWJ2hSKBO4ZbyYPLgmEh4QWwulBaoyiefFauxGAxp+MBqFJi//vJeaB+gqxUAMQnT56ccy9aMNJ8L4iXZK1OiW7wODy16by/oUjzwlCkeSEM2dCrM3ntp38LRZoX7r5ERcBfARzuOdHj2vnvbrevloGDQPjrsBQAABAMN9/KoEcK3OA8FTd7XP5l/rUWXtT6l5nwfoFbfpOZfm5y7JhgS/Dl4foQgWWB/9iKRE0Wtz+ppMv/in9D8u5Ildbb/7Rm3yoMJtvt9rYcjUMqJw1rm5qazDzoTywMWgAgW/kIBBM97Ha7le3IMoGHAHRJIS7f5UElfxnAJmJ+YtgKAAA8pXT/S4jx5wI0OAkA14UizecsX758i8X1avngaErhAXALCjPifAUxO8Mtzd/Lt0CZoeD3+z8MhQPngPGlLA52Kuj//HgFW9Y4xRz8dXV1BoByBc+7vi8rai5sY5WqK1MutzbuLpADgTXM/MMs3rKcpXG3MiMq5GYCniTw+X3bvzG7evZeBD6HwQ9Lorwdz1I6qq6pqck8oGzSl8H4UwHN+lsh5HF9bmZL4xzcbncZgGKLC9zT0uJfHYoEbjZZHAHgxQJpiA/B+JatSBw7nGf9/RFqCTwkYTsawN+H5Vsy8FJGhfUegNQC1davX18KwK7ggXNlKAVA5cquzvm1JBVuCd4NcCh7/ZgvdDu89ercGuI+AKPjcfMCAOgpjtcDGMMw7s/n9zvls2qbmprMUEvgcoCuAhAfxmPyFmZcYyuiE0Oh0OtKOpup4gwAWou+E9JaWvz/DUUCJzPhcgAfD9N22EZEt9qKxNRQS+CuZFtoCoVIZOl7oUjgdAmcAsabw6joLAkDnX5ptZfL3LJlY0rnbQgplMyW+zv1UDUOx8zJ6D3aWZEFpDV51rckk7wcQPZmx4Tf+U70Kek3oZDfD+At4t5lAO4NCnzZupiyHAuAzx400ny3AGYDaMfwIgHwH+Om/ZBwS+AXSg2OiuAokru/wBwOB/5EBh/GTD/HcHEzE95n4h9AyIpguPnGbOYmz70QCDxvKxZHMeESACvzuKjdDHqQSZwQDgceT/aFvqQ1Yyy+b+eqVatS2kZpKoqYFznyABCZFWrvIPMuKDUcDr+N3iXNbLFXQpgP9y0fqeBBgKvdDu/FAFcT6L58H5PEUH4UiAQCO3q2Hw7gDgBmnj9jHOCHIeT0UCS4YKiZ/dJ7m4X1wTz9BEcFg8GN4Zbm75HB00C4PY+FwMtgfHnc+JKqcDj401Ao9AlGIH6/PxEOB/4cigRmMNGpAF5An2cn59N94DUA37UVifJwpPnSgc5bYGYVBuvdlF8xRSlzc5UEyICsVNq2gtfk4/swuXTSLwh4JXt3JPf6zg3XKTE0pv1BAHEQ7gWwTVLiUeQ5Q85a1tra2gXgOq/D+5gEbgHhdEBpHqt0+QDAQpNt92Y9iQwrOdBjQAUfDAY3Avi+2+3+GUxRT4QvMXB8jg3KWgIeYTIf6VP7mp2qJxxuXgxgscMxs9SgxAUMzCfgmCyWwSTgX5L5GTL4sXB6WdM+AWDpQMpEb6Tet6iKVKQoEblxlbOCHRW7NLRp5qUAaGpqMp1O32UC8mUAo7N025vcbvcSK/K97Mzy5S9ucDu8z4BwDoPuC4fDW/N9EMo4bWmgJfAagDM9NZ4ZbKNrwTgHwKgcPc8OMJ4h4oaPN3+8OFV3ogLDp2B/dGrbo/pm1vcAuMfj8XyOTboYwGkApmdBoMUAhMF4npifDy0LvoaRlUhqSPQJ1F8C+KWvxlcWt8lZBMwE4yRYG+neTcAKBl4h8NIEJ15qaWkZUgxJKBRajV4PYE6wF9E3EgnT8qNmJ0+elJPsp0QsmUWrohGpa6jtnA0iEf9Kt8N3Dkjeit6zJdRPJKV42Heib85AW79tcZtMGPITImxPPiRzF0CfoHc3WW87ghcy6CQS5k7uf4oD/AmQf7sBLK/o2dWz9+oujp8DkvVg8kFxbvTeWSa/wETPdndvX9Lnmcgpbpd3PRgHWDszkUdnErRYUzNrkl0kZjJhJoGPA3BohopbAvQugNcIeI0l/WtMV1HLcMnaN1xwOBx7G0bxDGbzCDAOIYjJgDwAoP0BTMCukfBxgLcCYhPAHwO8FqA2Jqwlkit37NjxZmtra1zXqkajUSIAdsblco0jSbUg4QNzNYiOAbBXBpfcCOLXwfQ6mFptkoL+5f5oPlVodXX1mNHFJdusrlsmc7zFLiXhO9FXYZJ5qBSYSpImgDABhAnEmMDgGEA7iCGZsBnANjDaBSFqktkppWwvhP36Go1GowVAlu7nq/GVSkNOMwlTibEvCPuCMRq7nalORF1g2c7SiArIzu3x7W35MLsfDKfTd4SAXGHxZT8IRQKTdHfVaDQajVVk++hS7puxRwEECrFCheCpCmK6V+uuqtFoNBpL7ZWuAosxFewAIC0ANBqNRqMFQH6j5IQ0LQA0Go1GowVAfsMKzkhnrNEVq9FoNBotAEaaB8AQ2gOg0Wg0Gi0A8pwq6y+Z0AJAo9FoNFoA5Cu+430HABhr8WXjkydP7tS1q9FoNBotAPIUaZMKzgDg9qamJlPXrkaj0Wi0AMhTTKHiGGAdAKjRaDQaLQDy3AXAegeARqPRaLQAGGmQgh0ArD0AGo1Go9ECIO8lgOUeAKE9ABqNRqPRAiDvsVwAsGAtADQajUajBUC+Mn369CIAU6y+rpRSCwCNRqPRaAGQr0ycOLEKgGHxZbsikchGXbsajUaj0QIgTyGTpiq46hoArGtXo9FoNFoA5ClSRQ4A6ABAjUaj0WgBkN8eAKYqq6/J0Ov/Go1Go9ECIL9h6z0AQucA0Gg0Go0WAPnuAlBwCqDUAkCj0Wg0WgDkO5YLADZ0DgCNRqPRaAGQt8yZMacEwH5WX3fUjlFrde1qNBqNRguAPGX7uO1VAMjiy368pHXJZl27Go1Go9ECIF8rkUWV9Vcl7f7XaDQajRYA+Qwr2AIIyHd0zWo0Go1GFTZdBRaYahLNBvhaBluyDEAgNmH7q65ZjUaj0aji/wE8+ffM6SR7FAAAACV0RVh0ZGF0ZTpjcmVhdGUAMjAyMS0wNC0xNlQwOToxNDo0OCswMDowMN6+mLgAAAAldEVYdGRhdGU6bW9kaWZ5ADIwMjEtMDQtMTZUMDk6MTQ6NDgrMDA6MDCv4yAEAAAAAElFTkSuQmCC;" vertex="1" parent="1">
          <mxGeometry x="643.61" y="613.5" width="82.77" height="43" as="geometry" />
        </mxCell>
        <mxCell id="sAA-gYXfA-SkIx9lmI3N-10" value="" style="edgeStyle=orthogonalEdgeStyle;rounded=0;orthogonalLoop=1;jettySize=auto;html=1;" edge="1" parent="1" source="sAA-gYXfA-SkIx9lmI3N-7" target="sAA-gYXfA-SkIx9lmI3N-9">
          <mxGeometry relative="1" as="geometry" />
        </mxCell>
        <mxCell id="sAA-gYXfA-SkIx9lmI3N-7" value="Database" style="strokeWidth=2;dashed=0;align=center;fontSize=12;shape=rect;verticalLabelPosition=bottom;verticalAlign=top;fillColor=#ffe6cc;strokeColor=#d79b00;" vertex="1" parent="1">
          <mxGeometry x="840" y="590" width="150" height="90" as="geometry" />
        </mxCell>
        <mxCell id="sAA-gYXfA-SkIx9lmI3N-9" value="API" style="strokeWidth=2;dashed=0;align=center;fontSize=12;shape=rect;verticalLabelPosition=bottom;verticalAlign=top;fillColor=#ffe6cc;strokeColor=#d79b00;" vertex="1" parent="1">
          <mxGeometry x="1070" y="590" width="150" height="90" as="geometry" />
        </mxCell>
      </root>
    </mxGraphModel>
  </diagram>
</mxfile>
